%TF.GenerationSoftware,KiCad,Pcbnew,8.0.0*%
%TF.CreationDate,2024-02-29T13:53:57+01:00*%
%TF.ProjectId,G2-Control,47322d43-6f6e-4747-926f-6c2e6b696361,rev?*%
%TF.SameCoordinates,Original*%
%TF.FileFunction,Copper,L2,Bot*%
%TF.FilePolarity,Positive*%
%FSLAX46Y46*%
G04 Gerber Fmt 4.6, Leading zero omitted, Abs format (unit mm)*
G04 Created by KiCad (PCBNEW 8.0.0) date 2024-02-29 13:53:57*
%MOMM*%
%LPD*%
G01*
G04 APERTURE LIST*
G04 Aperture macros list*
%AMRoundRect*
0 Rectangle with rounded corners*
0 $1 Rounding radius*
0 $2 $3 $4 $5 $6 $7 $8 $9 X,Y pos of 4 corners*
0 Add a 4 corners polygon primitive as box body*
4,1,4,$2,$3,$4,$5,$6,$7,$8,$9,$2,$3,0*
0 Add four circle primitives for the rounded corners*
1,1,$1+$1,$2,$3*
1,1,$1+$1,$4,$5*
1,1,$1+$1,$6,$7*
1,1,$1+$1,$8,$9*
0 Add four rect primitives between the rounded corners*
20,1,$1+$1,$2,$3,$4,$5,0*
20,1,$1+$1,$4,$5,$6,$7,0*
20,1,$1+$1,$6,$7,$8,$9,0*
20,1,$1+$1,$8,$9,$2,$3,0*%
%AMHorizOval*
0 Thick line with rounded ends*
0 $1 width*
0 $2 $3 position (X,Y) of the first rounded end (center of the circle)*
0 $4 $5 position (X,Y) of the second rounded end (center of the circle)*
0 Add line between two ends*
20,1,$1,$2,$3,$4,$5,0*
0 Add two circle primitives to create the rounded ends*
1,1,$1,$2,$3*
1,1,$1,$4,$5*%
%AMRotRect*
0 Rectangle, with rotation*
0 The origin of the aperture is its center*
0 $1 length*
0 $2 width*
0 $3 Rotation angle, in degrees counterclockwise*
0 Add horizontal line*
21,1,$1,$2,0,0,$3*%
G04 Aperture macros list end*
%TA.AperFunction,ComponentPad*%
%ADD10R,2.600000X2.600000*%
%TD*%
%TA.AperFunction,ComponentPad*%
%ADD11O,2.600000X2.600000*%
%TD*%
%TA.AperFunction,ComponentPad*%
%ADD12R,2.000000X1.905000*%
%TD*%
%TA.AperFunction,ComponentPad*%
%ADD13O,2.000000X1.905000*%
%TD*%
%TA.AperFunction,ComponentPad*%
%ADD14C,1.600000*%
%TD*%
%TA.AperFunction,ComponentPad*%
%ADD15O,1.600000X1.600000*%
%TD*%
%TA.AperFunction,ComponentPad*%
%ADD16C,5.600000*%
%TD*%
%TA.AperFunction,ComponentPad*%
%ADD17R,1.500000X1.500000*%
%TD*%
%TA.AperFunction,ComponentPad*%
%ADD18C,1.500000*%
%TD*%
%TA.AperFunction,ComponentPad*%
%ADD19C,2.400000*%
%TD*%
%TA.AperFunction,ComponentPad*%
%ADD20O,2.400000X2.400000*%
%TD*%
%TA.AperFunction,ComponentPad*%
%ADD21R,2.200000X2.200000*%
%TD*%
%TA.AperFunction,ComponentPad*%
%ADD22O,2.200000X2.200000*%
%TD*%
%TA.AperFunction,ComponentPad*%
%ADD23C,1.800000*%
%TD*%
%TA.AperFunction,ComponentPad*%
%ADD24R,1.400000X1.400000*%
%TD*%
%TA.AperFunction,ComponentPad*%
%ADD25C,1.400000*%
%TD*%
%TA.AperFunction,ComponentPad*%
%ADD26RoundRect,0.249999X-0.790001X-1.550001X0.790001X-1.550001X0.790001X1.550001X-0.790001X1.550001X0*%
%TD*%
%TA.AperFunction,ComponentPad*%
%ADD27O,2.080000X3.600000*%
%TD*%
%TA.AperFunction,ComponentPad*%
%ADD28R,1.300000X1.050000*%
%TD*%
%TA.AperFunction,ComponentPad*%
%ADD29O,1.300000X1.050000*%
%TD*%
%TA.AperFunction,ComponentPad*%
%ADD30RoundRect,0.249999X1.550001X-0.790001X1.550001X0.790001X-1.550001X0.790001X-1.550001X-0.790001X0*%
%TD*%
%TA.AperFunction,ComponentPad*%
%ADD31O,3.600000X2.080000*%
%TD*%
%TA.AperFunction,ComponentPad*%
%ADD32RotRect,2.000000X2.000000X225.000000*%
%TD*%
%TA.AperFunction,ComponentPad*%
%ADD33HorizOval,2.000000X0.000000X0.000000X0.000000X0.000000X0*%
%TD*%
%TA.AperFunction,ComponentPad*%
%ADD34R,1.700000X1.700000*%
%TD*%
%TA.AperFunction,ComponentPad*%
%ADD35O,1.700000X1.700000*%
%TD*%
%TA.AperFunction,ComponentPad*%
%ADD36RoundRect,0.249999X-1.550001X0.790001X-1.550001X-0.790001X1.550001X-0.790001X1.550001X0.790001X0*%
%TD*%
%TA.AperFunction,ComponentPad*%
%ADD37R,1.600000X1.600000*%
%TD*%
%TA.AperFunction,ComponentPad*%
%ADD38C,2.000000*%
%TD*%
%TA.AperFunction,ComponentPad*%
%ADD39C,1.440000*%
%TD*%
%TA.AperFunction,ComponentPad*%
%ADD40R,2.400000X2.400000*%
%TD*%
%TA.AperFunction,ViaPad*%
%ADD41C,0.800000*%
%TD*%
%TA.AperFunction,Conductor*%
%ADD42C,1.300000*%
%TD*%
%TA.AperFunction,Conductor*%
%ADD43C,1.000000*%
%TD*%
%TA.AperFunction,Conductor*%
%ADD44C,0.500000*%
%TD*%
%TA.AperFunction,Conductor*%
%ADD45C,1.500000*%
%TD*%
%TA.AperFunction,Conductor*%
%ADD46C,1.200000*%
%TD*%
%TA.AperFunction,Profile*%
%ADD47C,0.100000*%
%TD*%
G04 APERTURE END LIST*
D10*
%TO.P,D7,1,K*%
%TO.N,Net-(D7-K)*%
X160828213Y-109876069D03*
D11*
%TO.P,D7,2,A*%
%TO.N,CATHODE*%
X155748213Y-109876069D03*
%TD*%
D12*
%TO.P,Q1,1,B*%
%TO.N,Net-(D2-A)*%
X174693213Y-116376069D03*
D13*
%TO.P,Q1,2,C*%
%TO.N,/+30V rail*%
X174693213Y-113836069D03*
%TO.P,Q1,3,E*%
%TO.N,CATHODE*%
X174693213Y-111296069D03*
%TD*%
D14*
%TO.P,C8,1*%
%TO.N,Net-(C8-Pad1)*%
X153653213Y-97541069D03*
D15*
%TO.P,C8,2*%
%TO.N,-Ig2*%
X133653213Y-97541069D03*
%TD*%
D16*
%TO.P,H1,1,1*%
%TO.N,GNDPWR*%
X176000000Y-44000000D03*
%TD*%
%TO.P,H4,1,1*%
%TO.N,GNDPWR*%
X176000000Y-136000000D03*
%TD*%
D14*
%TO.P,LK3,1,A*%
%TO.N,Net-(LK3-A)*%
X166708213Y-98676069D03*
D15*
%TO.P,LK3,2,B*%
%TO.N,-Ig2*%
X166708213Y-83436069D03*
%TD*%
D17*
%TO.P,Q4,1,C*%
%TO.N,ALARM_LED_ANODE*%
X110252213Y-126466069D03*
D18*
%TO.P,Q4,2,B*%
%TO.N,RESET-A*%
X112792213Y-126466069D03*
%TO.P,Q4,3,E*%
%TO.N,+12V REG IN*%
X115332213Y-126466069D03*
%TD*%
D19*
%TO.P,R10,1*%
%TO.N,Net-(D7-K)*%
X157278213Y-100531069D03*
D20*
%TO.P,R10,2*%
%TO.N,/R12*%
X157278213Y-95451069D03*
%TD*%
D10*
%TO.P,D1,1,K*%
%TO.N,/+30V rail*%
X144268213Y-114686069D03*
D11*
%TO.P,D1,2,A*%
%TO.N,Net-(D1-A)*%
X149348213Y-114686069D03*
%TD*%
D16*
%TO.P,H3,1,1*%
%TO.N,GNDPWR*%
X84000000Y-136000000D03*
%TD*%
D21*
%TO.P,D9,1,K*%
%TO.N,-Ig2*%
X165820213Y-65818069D03*
D22*
%TO.P,D9,2,A*%
%TO.N,+Ig2*%
X165820213Y-75978069D03*
%TD*%
D12*
%TO.P,Q6,1,G*%
%TO.N,Net-(Q6-G)*%
X115515213Y-67696069D03*
D13*
%TO.P,Q6,2,D*%
%TO.N,Net-(D12-K)*%
X115515213Y-65156069D03*
%TO.P,Q6,3,S*%
%TO.N,+12{slash}24V HV ENABLE*%
X115515213Y-62616069D03*
%TD*%
D22*
%TO.P,D14,2,A*%
%TO.N,Net-(D14-A)*%
X133830000Y-53750000D03*
D21*
%TO.P,D14,1,K*%
%TO.N,+12{slash}24V HV ENABLE*%
X123670000Y-53750000D03*
%TD*%
D23*
%TO.P,VDR2,1*%
%TO.N,-Ig2*%
X129503213Y-70811069D03*
%TO.P,VDR2,2*%
%TO.N,CATHODE*%
X132403213Y-63311069D03*
%TD*%
D19*
%TO.P,R15,1*%
%TO.N,Net-(BR1-+)*%
X156403213Y-83686069D03*
D20*
%TO.P,R15,2*%
%TO.N,Net-(BR1--)*%
X151323213Y-83686069D03*
%TD*%
D21*
%TO.P,D13,1,K*%
%TO.N,+12{slash}24V HV ENABLE*%
X105958213Y-105296069D03*
D22*
%TO.P,D13,2,A*%
%TO.N,GNDPWR*%
X105958213Y-115456069D03*
%TD*%
D24*
%TO.P,K1,1*%
%TO.N,Net-(D14-A)*%
X150892213Y-43344569D03*
D25*
%TO.P,K1,4*%
%TO.N,G2 UNREG TX IN*%
X150892213Y-50964569D03*
%TO.P,K1,6*%
%TO.N,unconnected-(K1-Pad6)*%
X150892213Y-56044569D03*
%TO.P,K1,8*%
%TO.N,/R12*%
X150892213Y-61124569D03*
%TO.P,K1,9*%
%TO.N,-Ig2*%
X158512213Y-61124569D03*
%TO.P,K1,11*%
%TO.N,CATHODE*%
X158512213Y-56044569D03*
%TO.P,K1,13*%
%TO.N,G2-REG-OUT*%
X158512213Y-50964569D03*
%TO.P,K1,16*%
%TO.N,+12{slash}24V HV ENABLE*%
X158512213Y-43344569D03*
%TD*%
D21*
%TO.P,D10,1,K*%
%TO.N,+Ig2*%
X162373013Y-76078069D03*
D22*
%TO.P,D10,2,A*%
%TO.N,-Ig2*%
X162373013Y-65918069D03*
%TD*%
D19*
%TO.P,C9,1*%
%TO.N,-Ig2*%
X141748213Y-78131069D03*
%TO.P,C9,2*%
%TO.N,CATHODE*%
X141748213Y-55631069D03*
%TD*%
D26*
%TO.P,J1,1,Pin_1*%
%TO.N,ALARM_LED_CATHODE*%
X105172213Y-133946069D03*
D27*
%TO.P,J1,2,Pin_2*%
%TO.N,ALARM_LED_ANODE*%
X110252213Y-133946069D03*
%TO.P,J1,3,Pin_3*%
%TO.N,RESET-A*%
X115332213Y-133946069D03*
%TO.P,J1,4,Pin_4*%
%TO.N,+12V REG IN*%
X120412213Y-133946069D03*
%TO.P,J1,5,Pin_5*%
%TO.N,PTT_L*%
X125492213Y-133946069D03*
%TO.P,J1,6,Pin_6*%
%TO.N,+12{slash}24V HV ENABLE*%
X130572213Y-133946069D03*
%TD*%
D19*
%TO.P,R13,1*%
%TO.N,/R12*%
X165068213Y-52776069D03*
D20*
%TO.P,R13,2*%
%TO.N,G2 UNREG IN*%
X165068213Y-47696069D03*
%TD*%
D28*
%TO.P,Q3,1,K*%
%TO.N,GNDPWR*%
X120558213Y-72046069D03*
D29*
%TO.P,Q3,2,G*%
%TO.N,G1 trip in*%
X120558213Y-69506069D03*
%TO.P,Q3,3,A*%
%TO.N,Aux trip in*%
X120558213Y-66966069D03*
%TD*%
D30*
%TO.P,J2,1,Pin_1*%
%TO.N,/+30V rail*%
X173960713Y-101826069D03*
D31*
%TO.P,J2,2,Pin_2*%
%TO.N,/Q2G*%
X173960713Y-96746069D03*
%TO.P,J2,3,Pin_3*%
%TO.N,/R12*%
X173960713Y-91666069D03*
%TD*%
D26*
%TO.P,J104,1,Pin_1*%
%TO.N,+24V Unreg in*%
X92318213Y-46186069D03*
D27*
%TO.P,J104,2,Pin_2*%
%TO.N,G1 trip in*%
X97398213Y-46186069D03*
%TO.P,J104,3,Pin_3*%
%TO.N,GNDPWR*%
X102478213Y-46186069D03*
%TO.P,J104,4,Pin_4*%
%TO.N,+12V REG IN*%
X107558213Y-46186069D03*
%TO.P,J104,5,Pin_5*%
%TO.N,CATHODE*%
X112638213Y-46186069D03*
%TO.P,J104,6,Pin_6*%
%TO.N,G2 UNREG IN*%
X117718213Y-46186069D03*
%TD*%
D32*
%TO.P,BR1,1,+*%
%TO.N,Net-(BR1-+)*%
X158618747Y-75824069D03*
D33*
%TO.P,BR1,2*%
%TO.N,+Ig2*%
X155083213Y-72288535D03*
%TO.P,BR1,3,-*%
%TO.N,Net-(BR1--)*%
X151547679Y-75824069D03*
%TO.P,BR1,4*%
%TO.N,/R12*%
X155083213Y-79359603D03*
%TD*%
D19*
%TO.P,R21,1*%
%TO.N,Aux trip in*%
X141485000Y-133500000D03*
D20*
%TO.P,R21,2*%
%TO.N,ALARM_LED_CATHODE*%
X136405000Y-133500000D03*
%TD*%
D16*
%TO.P,H2,1,1*%
%TO.N,GNDPWR*%
X84000000Y-44000000D03*
%TD*%
D21*
%TO.P,D12,1,K*%
%TO.N,Net-(D12-K)*%
X106950213Y-58044069D03*
D22*
%TO.P,D12,2,A*%
%TO.N,+12{slash}24V HV ENABLE*%
X117110213Y-58044069D03*
%TD*%
D26*
%TO.P,J4,1,Pin_1*%
%TO.N,+12{slash}24V HV ENABLE*%
X126910000Y-46202500D03*
D27*
%TO.P,J4,2,Pin_2*%
%TO.N,Aux trip in*%
X131990000Y-46202500D03*
%TD*%
D30*
%TO.P,J103,1,Pin_1*%
%TO.N,Net-(J103-Pin_1)*%
X86338213Y-114004069D03*
D31*
%TO.P,J103,2,Pin_2*%
%TO.N,Net-(J103-Pin_2)*%
X86338213Y-108924069D03*
%TO.P,J103,3,Pin_3*%
%TO.N,Net-(J103-Pin_3)*%
X86338213Y-103844069D03*
%TO.P,J103,4,Pin_4*%
%TO.N,Net-(J103-Pin_4)*%
X86338213Y-98764069D03*
%TO.P,J103,5,Pin_5*%
%TO.N,Net-(J103-Pin_5)*%
X86338213Y-93684069D03*
%TO.P,J103,6,Pin_6*%
%TO.N,Net-(J103-Pin_6)*%
X86338213Y-88604069D03*
%TD*%
D10*
%TO.P,D8,1,K*%
%TO.N,Net-(BR1-+)*%
X161888213Y-83821069D03*
D11*
%TO.P,D8,2,A*%
%TO.N,Net-(BR1--)*%
X161888213Y-88901069D03*
%TD*%
D21*
%TO.P,D15,1,K*%
%TO.N,Net-(D15-K)*%
X110358213Y-74636069D03*
D22*
%TO.P,D15,2,A*%
%TO.N,Net-(D15-A)*%
X120518213Y-74636069D03*
%TD*%
D19*
%TO.P,R28,1*%
%TO.N,+12{slash}24V HV ENABLE*%
X119723213Y-93716069D03*
D20*
%TO.P,R28,2*%
%TO.N,Net-(D15-K)*%
X114643213Y-93716069D03*
%TD*%
D21*
%TO.P,D16,1,K*%
%TO.N,PTT_L*%
X120430000Y-62750000D03*
D22*
%TO.P,D16,2,A*%
%TO.N,Net-(D14-A)*%
X120430000Y-52590000D03*
%TD*%
D34*
%TO.P,JP101,1,A*%
%TO.N,+24V Unreg in*%
X92741213Y-52964069D03*
D35*
%TO.P,JP101,2,C*%
%TO.N,Net-(D12-K)*%
X95281213Y-52964069D03*
%TO.P,JP101,3,B*%
%TO.N,+12V REG IN*%
X97821213Y-52964069D03*
%TD*%
D36*
%TO.P,J3,1,Pin_1*%
%TO.N,G2 UNREG TX IN*%
X173581789Y-52548877D03*
D31*
%TO.P,J3,2,Pin_2*%
%TO.N,G2 UNREG IN*%
X173581789Y-57628877D03*
%TO.P,J3,3,Pin_3*%
%TO.N,G2-REG-OUT*%
X173581789Y-62708877D03*
%TO.P,J3,4,Pin_4*%
%TO.N,CATHODE*%
X173581789Y-67788877D03*
%TO.P,J3,5,Pin_5*%
%TO.N,-Ig2*%
X173581789Y-72868877D03*
%TO.P,J3,6,Pin_6*%
%TO.N,+Ig2*%
X173581789Y-77948877D03*
%TO.P,J3,7,Pin_7*%
%TO.N,GNDPWR*%
X173581789Y-83028877D03*
%TD*%
D37*
%TO.P,U2,1,NULL*%
%TO.N,Net-(C5-Pad2)*%
X133483213Y-108346069D03*
D15*
%TO.P,U2,2,-*%
%TO.N,Net-(U2--)*%
X130943213Y-108346069D03*
%TO.P,U2,3,+*%
%TO.N,Net-(D4-A)*%
X128403213Y-108346069D03*
%TO.P,U2,4,V-*%
%TO.N,CATHODE*%
X125863213Y-108346069D03*
%TO.P,U2,5,NULL*%
%TO.N,unconnected-(U2-NULL-Pad5)*%
X125863213Y-115966069D03*
%TO.P,U2,6*%
%TO.N,Net-(D3-K)*%
X128403213Y-115966069D03*
%TO.P,U2,7,V+*%
%TO.N,/+30V rail*%
X130943213Y-115966069D03*
%TO.P,U2,8,FC*%
%TO.N,Net-(U2-FC)*%
X133483213Y-115966069D03*
%TD*%
D24*
%TO.P,K2,1*%
%TO.N,Net-(D14-A)*%
X110219713Y-63933569D03*
D25*
%TO.P,K2,4*%
%TO.N,Net-(J102-Pin_5)*%
X102599713Y-63933569D03*
%TO.P,K2,6*%
%TO.N,Net-(J102-Pin_6)*%
X97519713Y-63933569D03*
%TO.P,K2,8*%
%TO.N,Net-(J102-Pin_4)*%
X92439713Y-63933569D03*
%TO.P,K2,9*%
%TO.N,Net-(J102-Pin_1)*%
X92439713Y-71553569D03*
%TO.P,K2,11*%
%TO.N,Net-(J102-Pin_3)*%
X97519713Y-71553569D03*
%TO.P,K2,13*%
%TO.N,Net-(J102-Pin_2)*%
X102599713Y-71553569D03*
%TO.P,K2,16*%
%TO.N,+12{slash}24V HV ENABLE*%
X110219713Y-71553569D03*
%TD*%
D30*
%TO.P,J102,1,Pin_1*%
%TO.N,Net-(J102-Pin_1)*%
X86348213Y-79946069D03*
D31*
%TO.P,J102,2,Pin_2*%
%TO.N,Net-(J102-Pin_2)*%
X86348213Y-74866069D03*
%TO.P,J102,3,Pin_3*%
%TO.N,Net-(J102-Pin_3)*%
X86348213Y-69786069D03*
%TO.P,J102,4,Pin_4*%
%TO.N,Net-(J102-Pin_4)*%
X86348213Y-64706069D03*
%TO.P,J102,5,Pin_5*%
%TO.N,Net-(J102-Pin_5)*%
X86348213Y-59626069D03*
%TO.P,J102,6,Pin_6*%
%TO.N,Net-(J102-Pin_6)*%
X86348213Y-54546069D03*
%TD*%
D24*
%TO.P,K3,1*%
%TO.N,Net-(D15-A)*%
X109948213Y-93296069D03*
D25*
%TO.P,K3,4*%
%TO.N,Net-(J103-Pin_5)*%
X102328213Y-93296069D03*
%TO.P,K3,6*%
%TO.N,Net-(J103-Pin_6)*%
X97248213Y-93296069D03*
%TO.P,K3,8*%
%TO.N,Net-(J103-Pin_4)*%
X92168213Y-93296069D03*
%TO.P,K3,9*%
%TO.N,Net-(J103-Pin_1)*%
X92168213Y-100916069D03*
%TO.P,K3,11*%
%TO.N,Net-(J103-Pin_3)*%
X97248213Y-100916069D03*
%TO.P,K3,13*%
%TO.N,Net-(J103-Pin_2)*%
X102328213Y-100916069D03*
%TO.P,K3,16*%
%TO.N,Net-(D15-K)*%
X109948213Y-100916069D03*
%TD*%
D38*
%TO.P,C10,1*%
%TO.N,/R12*%
X139783213Y-82936069D03*
%TO.P,C10,2*%
%TO.N,CATHODE*%
X132283213Y-82936069D03*
%TD*%
D39*
%TO.P,RV1,1,1*%
%TO.N,Net-(R9-Pad2)*%
X144796213Y-106446069D03*
%TO.P,RV1,2,2*%
%TO.N,Net-(R7-Pad1)*%
X147336213Y-108986069D03*
%TO.P,RV1,3,3*%
%TO.N,Net-(C8-Pad1)*%
X149876213Y-106446069D03*
%TD*%
D40*
%TO.P,C17,1*%
%TO.N,Net-(D15-K)*%
X101810000Y-78602220D03*
D19*
%TO.P,C17,2*%
%TO.N,Net-(D15-A)*%
X101810000Y-86102220D03*
%TD*%
D21*
%TO.P,D17,1,K*%
%TO.N,PTT_L*%
X98888213Y-120996069D03*
D22*
%TO.P,D17,2,A*%
%TO.N,Net-(D15-A)*%
X98888213Y-110836069D03*
%TD*%
D23*
%TO.P,VDR1,1*%
%TO.N,/R12*%
X144114213Y-88282069D03*
%TO.P,VDR1,2*%
%TO.N,CATHODE*%
X151614213Y-91182069D03*
%TD*%
D39*
%TO.P,RV2,1,1*%
%TO.N,GNDPWR*%
X116658213Y-78866069D03*
%TO.P,RV2,2,2*%
X114118213Y-81406069D03*
%TO.P,RV2,3,3*%
%TO.N,Net-(R18-Pad1)*%
X116658213Y-83946069D03*
%TD*%
D10*
%TO.P,D2,1,K*%
%TO.N,Net-(D1-A)*%
X154663213Y-115896069D03*
D11*
%TO.P,D2,2,A*%
%TO.N,Net-(D2-A)*%
X159743213Y-115896069D03*
%TD*%
D19*
%TO.P,R8,1*%
%TO.N,Net-(C8-Pad1)*%
X162336213Y-100514069D03*
D20*
%TO.P,R8,2*%
%TO.N,Net-(LK3-A)*%
X162336213Y-95434069D03*
%TD*%
D41*
%TO.N,GNDPWR*%
X165243213Y-129291069D03*
%TO.N,PTT_L*%
X114500000Y-120946069D03*
%TO.N,+12{slash}24V HV ENABLE*%
X130487874Y-126822126D03*
%TO.N,Net-(Q6-G)*%
X151400213Y-119258069D03*
%TO.N,Aux trip in*%
X146828213Y-126500000D03*
X123968213Y-69601069D03*
X139208213Y-126500000D03*
%TO.N,/Q2G*%
X138573213Y-121036069D03*
X164608213Y-105796069D03*
%TD*%
D42*
%TO.N,CATHODE*%
X141748213Y-55631069D02*
X143269282Y-54110000D01*
X156577644Y-54110000D02*
X158512213Y-56044569D01*
X143269282Y-54110000D02*
X156577644Y-54110000D01*
X151614213Y-91182069D02*
X150506282Y-92290000D01*
X150506282Y-92290000D02*
X141637144Y-92290000D01*
X141637144Y-92290000D02*
X132283213Y-82936069D01*
D43*
%TO.N,Net-(D12-K)*%
X106950213Y-58044069D02*
X104036144Y-55130000D01*
X104036144Y-55130000D02*
X97447144Y-55130000D01*
X97447144Y-55130000D02*
X95281213Y-52964069D01*
%TO.N,Net-(J102-Pin_4)*%
X92439713Y-63933569D02*
X87120713Y-63933569D01*
D44*
X87120713Y-63933569D02*
X86348213Y-64706069D01*
D43*
%TO.N,Net-(J102-Pin_2)*%
X85360213Y-74808069D02*
X90488282Y-69680000D01*
X90488282Y-69680000D02*
X100726144Y-69680000D01*
X100726144Y-69680000D02*
X102599713Y-71553569D01*
%TO.N,Net-(J102-Pin_3)*%
X87318282Y-67770000D02*
X87318282Y-68816000D01*
X87318282Y-68816000D02*
X86348213Y-69786069D01*
X97519713Y-71553569D02*
X99250213Y-73284069D01*
X104664213Y-72522069D02*
X104664213Y-70744069D01*
X104664213Y-70744069D02*
X101690144Y-67770000D01*
X99250213Y-73284069D02*
X103902213Y-73284069D01*
X103902213Y-73284069D02*
X104664213Y-72522069D01*
X101690144Y-67770000D02*
X87318282Y-67770000D01*
D45*
%TO.N,G2-REG-OUT*%
X158512213Y-50964569D02*
X165337644Y-57790000D01*
X165337644Y-57790000D02*
X168662912Y-57790000D01*
X168662912Y-57790000D02*
X173581789Y-62708877D01*
D42*
%TO.N,CATHODE*%
X158512213Y-56044569D02*
X163457644Y-60990000D01*
X163457644Y-60990000D02*
X166782912Y-60990000D01*
X166782912Y-60990000D02*
X173581789Y-67788877D01*
D43*
%TO.N,/Q2G*%
X164608213Y-105796069D02*
X163564282Y-106840000D01*
X142620000Y-110680000D02*
X138573213Y-114726787D01*
X163564282Y-106840000D02*
X154040000Y-106840000D01*
X150200000Y-110680000D02*
X142620000Y-110680000D01*
X154040000Y-106840000D02*
X150200000Y-110680000D01*
X138573213Y-114726787D02*
X138573213Y-121036069D01*
D45*
%TO.N,Net-(C8-Pad1)*%
X149876213Y-104020000D02*
X149876213Y-101318069D01*
X149876213Y-104020000D02*
X158830282Y-104020000D01*
X158830282Y-104020000D02*
X162336213Y-100514069D01*
X149876213Y-106446069D02*
X149876213Y-104020000D01*
D44*
%TO.N,Net-(Q6-G)*%
X111014213Y-67696069D02*
X107966213Y-70744069D01*
X107950000Y-108260000D02*
X128100000Y-128410000D01*
X115515213Y-67696069D02*
X111014213Y-67696069D01*
X116856213Y-89794069D02*
X116856213Y-98423787D01*
X116856213Y-98423787D02*
X111653931Y-103626069D01*
X107966213Y-80904069D02*
X116856213Y-89794069D01*
X107966213Y-70744069D02*
X107966213Y-80904069D01*
X111653931Y-103626069D02*
X104288213Y-103626069D01*
X128100000Y-128410000D02*
X148110000Y-128410000D01*
X104288213Y-103626069D02*
X104288213Y-108260000D01*
X104288213Y-108260000D02*
X107950000Y-108260000D01*
X148110000Y-128410000D02*
X151400213Y-125119787D01*
X151400213Y-125119787D02*
X151400213Y-119258069D01*
D43*
%TO.N,Net-(J103-Pin_5)*%
X85868213Y-93604069D02*
X88414144Y-96150000D01*
X88414144Y-96150000D02*
X98850000Y-96150000D01*
X98850000Y-96150000D02*
X101703931Y-93296069D01*
X101703931Y-93296069D02*
X102328213Y-93296069D01*
%TO.N,Net-(J103-Pin_4)*%
X92168213Y-93296069D02*
X94718213Y-90746069D01*
X105000000Y-95500000D02*
X102690000Y-97810000D01*
X94718213Y-90746069D02*
X103746069Y-90746069D01*
X103746069Y-90746069D02*
X105000000Y-92000000D01*
X105000000Y-92000000D02*
X105000000Y-95500000D01*
X102690000Y-97810000D02*
X87292282Y-97810000D01*
X87292282Y-97810000D02*
X86338213Y-98764069D01*
%TO.N,Net-(D14-A)*%
X133830000Y-53750000D02*
X142720000Y-46450000D01*
X142720000Y-46450000D02*
X150892213Y-43344569D01*
%TO.N,+12{slash}24V HV ENABLE*%
X137328640Y-55171360D02*
X145980000Y-48510000D01*
X145980000Y-48510000D02*
X158512213Y-43344569D01*
%TO.N,Aux trip in*%
X125500000Y-70101069D02*
X127960000Y-52880000D01*
X127960000Y-52880000D02*
X131990000Y-46202500D01*
X125500000Y-70101069D02*
X123968213Y-69601069D01*
%TO.N,+12{slash}24V HV ENABLE*%
X131190000Y-54130000D02*
X132120000Y-55960000D01*
X132000000Y-51028282D02*
X131190000Y-54130000D01*
X133850000Y-56910000D02*
X135420000Y-56760000D01*
X132120000Y-55960000D02*
X133850000Y-56910000D01*
X135420000Y-56760000D02*
X137328640Y-55171360D01*
X126910000Y-46202500D02*
X123710000Y-53060000D01*
X130289273Y-42509569D02*
X126910000Y-46202500D01*
X122496213Y-60696069D02*
X123710000Y-53060000D01*
D42*
%TO.N,GNDPWR*%
X80767982Y-116997763D02*
X80767982Y-138417832D01*
X179160931Y-132339069D02*
X179367449Y-132132551D01*
X177943213Y-132339069D02*
X179160931Y-132339069D01*
D43*
X128040000Y-139191305D02*
X128200000Y-139351305D01*
X105958213Y-115456069D02*
X104414282Y-117000000D01*
D42*
X128200000Y-139351305D02*
X134000000Y-139351305D01*
X102124213Y-40660069D02*
X80676213Y-40660069D01*
D43*
X165243213Y-129291069D02*
X165290000Y-139287121D01*
X104414282Y-117000000D02*
X80676213Y-117000000D01*
X125946792Y-129960000D02*
X128040000Y-129960000D01*
X105958213Y-115456069D02*
X111442861Y-115456069D01*
D42*
X177943213Y-132339069D02*
X175276213Y-135006069D01*
X174514213Y-40660069D02*
X174514213Y-43312069D01*
X165290000Y-139287121D02*
X178367580Y-139287121D01*
X174514213Y-40660069D02*
X102124213Y-40660069D01*
D43*
X165243213Y-129291069D02*
X178513119Y-129291069D01*
D42*
X179367449Y-132132551D02*
X179367449Y-132000000D01*
X133951302Y-139287121D02*
X165290000Y-139287121D01*
X101946413Y-40837869D02*
X101946413Y-46106069D01*
X102124213Y-40660069D02*
X101946413Y-40837869D01*
X178436213Y-40660069D02*
X174514213Y-40660069D01*
D43*
X128040000Y-129960000D02*
X128040000Y-139191305D01*
D42*
X179213484Y-41437340D02*
X178436213Y-40660069D01*
D43*
X128040000Y-129960000D02*
X164574282Y-129960000D01*
D42*
X174970756Y-83099833D02*
X179213484Y-83099833D01*
X81701455Y-139351305D02*
X128200000Y-139351305D01*
X80676213Y-40660069D02*
X80676213Y-116905994D01*
D43*
X164574282Y-129960000D02*
X165243213Y-129291069D01*
D42*
X178990807Y-139294146D02*
X178990807Y-133449126D01*
X179213484Y-83099833D02*
X179213484Y-41437340D01*
D43*
X111442861Y-115456069D02*
X125946792Y-129960000D01*
D42*
X80676213Y-116905994D02*
X80767982Y-116997763D01*
D46*
%TO.N,Net-(BR1--)*%
X153127099Y-84846069D02*
X157166099Y-88885069D01*
D45*
X162576213Y-88885069D02*
X157166099Y-88885069D01*
D46*
X152483213Y-84846069D02*
X151323213Y-83686069D01*
X153127099Y-84846069D02*
X152483213Y-84846069D01*
D45*
%TO.N,/R12*%
X157430327Y-93055560D02*
X155304213Y-90929446D01*
X147196679Y-79349816D02*
X147196679Y-85199603D01*
X155304213Y-90841560D02*
X152744722Y-88282069D01*
X157518213Y-95636069D02*
X157518213Y-93055560D01*
X147196679Y-63517603D02*
X149589713Y-61124569D01*
X155083213Y-79359603D02*
X151774906Y-79359603D01*
X149589713Y-61124569D02*
X150892213Y-61124569D01*
X157518213Y-93055560D02*
X158422704Y-92151069D01*
X151765119Y-79349816D02*
X147196679Y-79349816D01*
X144114213Y-88282069D02*
X144114213Y-87267069D01*
X158422704Y-92151069D02*
X173475713Y-92151069D01*
X152744722Y-88282069D02*
X144114213Y-88282069D01*
X151774906Y-79359603D02*
X151765119Y-79349816D01*
X173475713Y-92151069D02*
X173960713Y-91666069D01*
X155304213Y-90929446D02*
X155304213Y-90841560D01*
X147196679Y-79349816D02*
X147196679Y-63517603D01*
X144114213Y-87267069D02*
X139783213Y-82936069D01*
X147196679Y-85199603D02*
X144114213Y-88282069D01*
X157518213Y-93055560D02*
X157430327Y-93055560D01*
D43*
%TO.N,Net-(D14-A)*%
X110219713Y-60616569D02*
X118380213Y-52456069D01*
X110219713Y-63933569D02*
X110219713Y-60616569D01*
X118380213Y-52456069D02*
X120412213Y-52456069D01*
D44*
%TO.N,PTT_L*%
X98888213Y-120996069D02*
X114450000Y-120996069D01*
X114450000Y-120996069D02*
X114500000Y-120946069D01*
X125492213Y-132542213D02*
X114500000Y-121550000D01*
X125492213Y-133946069D02*
X125492213Y-132542213D01*
X114500000Y-121550000D02*
X114500000Y-120946069D01*
%TO.N,ALARM_LED_ANODE*%
X110252213Y-133946069D02*
X110252213Y-126466069D01*
D42*
%TO.N,CATHODE*%
X132403213Y-63311069D02*
X141748213Y-55631069D01*
X132283213Y-82936069D02*
X132283213Y-63431069D01*
%TO.N,/+30V rail*%
X164044713Y-112416069D02*
X174474713Y-101986069D01*
X146538213Y-112416069D02*
X164044713Y-112416069D01*
X144268213Y-114686069D02*
X146538213Y-112416069D01*
D43*
%TO.N,+12V REG IN*%
X101870213Y-52964069D02*
X97821213Y-52964069D01*
X107026413Y-46106069D02*
X107026413Y-47807869D01*
X107026413Y-47807869D02*
X101870213Y-52964069D01*
D45*
%TO.N,-Ig2*%
X166708213Y-79742453D02*
X166708213Y-83436069D01*
X128603213Y-92491069D02*
X133653213Y-97541069D01*
X166530981Y-65818069D02*
X173581789Y-72868877D01*
X165820213Y-65818069D02*
X166530981Y-65818069D01*
X158512213Y-61124569D02*
X158512213Y-62108069D01*
X158512213Y-62108069D02*
X162322213Y-65918069D01*
X173581789Y-72868877D02*
X166708213Y-79742453D01*
X129503213Y-70811069D02*
X128603213Y-71711069D01*
X162373013Y-65918069D02*
X165720213Y-65918069D01*
X128603213Y-71711069D02*
X128603213Y-92491069D01*
D43*
%TO.N,+12{slash}24V HV ENABLE*%
X117435213Y-60696069D02*
X115515213Y-62616069D01*
X122698213Y-119032464D02*
X122698213Y-105286069D01*
X110233282Y-71540000D02*
X111850000Y-71540000D01*
X110219713Y-71553569D02*
X110233282Y-71540000D01*
X122496213Y-60696069D02*
X117435213Y-60696069D01*
X122668213Y-105316069D02*
X122698213Y-105286069D01*
X119750213Y-93736069D02*
X122386213Y-93736069D01*
X122638213Y-79660000D02*
X122638213Y-92236069D01*
X122698213Y-105286069D02*
X122698213Y-92296069D01*
X122638213Y-78364069D02*
X122638213Y-79660000D01*
X122698213Y-92296069D02*
X122638213Y-92236069D01*
X122638213Y-60838069D02*
X122496213Y-60696069D01*
X134382213Y-43809433D02*
X134382213Y-48646069D01*
X130487874Y-126822126D02*
X122698213Y-119032464D01*
X134382213Y-48646069D02*
X132000000Y-51028282D01*
X133082349Y-42509569D02*
X134382213Y-43809433D01*
X122638213Y-60838069D02*
X122638213Y-78364069D01*
X117435213Y-60696069D02*
X117110213Y-60371069D01*
X117110213Y-60371069D02*
X117110213Y-58044069D01*
X105978213Y-105316069D02*
X122668213Y-105316069D01*
X130289273Y-42509569D02*
X133082349Y-42509569D01*
X111850000Y-71540000D02*
X122638213Y-79660000D01*
%TO.N,G2 UNREG TX IN*%
X173581789Y-51269645D02*
X173581789Y-52548877D01*
X154161713Y-50964569D02*
X150892213Y-50964569D01*
X157496213Y-47630069D02*
X154161713Y-50964569D01*
X167108213Y-44796069D02*
X161286600Y-44796069D01*
X158452600Y-47630069D02*
X157496213Y-47630069D01*
X161286600Y-44796069D02*
X158452600Y-47630069D01*
X167108213Y-44796069D02*
X173581789Y-51269645D01*
D45*
%TO.N,Net-(C8-Pad1)*%
X149876213Y-101318069D02*
X153653213Y-97541069D01*
D43*
%TO.N,Aux trip in*%
X125500000Y-70101069D02*
X125500000Y-96659856D01*
X137350000Y-126500000D02*
X139208213Y-126500000D01*
X125500000Y-96659856D02*
X136160213Y-107320069D01*
X136160213Y-125310213D02*
X137350000Y-126500000D01*
X139208213Y-126500000D02*
X146828213Y-126500000D01*
X136160213Y-107320069D02*
X136160213Y-125310213D01*
%TO.N,Net-(D15-K)*%
X114570213Y-90810069D02*
X102086254Y-78326110D01*
X114570213Y-92588069D02*
X114570213Y-90810069D01*
%TO.N,Net-(D15-A)*%
X109098213Y-93296069D02*
X101828213Y-86026069D01*
D44*
X98888213Y-107906069D02*
X109948213Y-96846069D01*
D43*
X109948213Y-93296069D02*
X109098213Y-93296069D01*
D44*
X98888213Y-110836069D02*
X98888213Y-107906069D01*
X109948213Y-96846069D02*
X109948213Y-93296069D01*
D43*
%TO.N,Net-(J102-Pin_1)*%
X92439713Y-71553569D02*
X92439713Y-72808569D01*
X92439713Y-72808569D02*
X85360213Y-79888069D01*
%TO.N,Net-(J102-Pin_5)*%
X102599713Y-63933569D02*
X98234213Y-59568069D01*
X98234213Y-59568069D02*
X85360213Y-59568069D01*
%TO.N,Net-(J102-Pin_6)*%
X99504213Y-65918069D02*
X104918213Y-65918069D01*
X99076213Y-57028069D02*
X87900213Y-57028069D01*
X104918213Y-62870069D02*
X99076213Y-57028069D01*
X87900213Y-57028069D02*
X85360213Y-54488069D01*
X97519713Y-63933569D02*
X99504213Y-65918069D01*
X104918213Y-65918069D02*
X104918213Y-62870069D01*
%TO.N,Net-(J103-Pin_1)*%
X103890213Y-100113459D02*
X103890213Y-101489855D01*
X103152823Y-99376069D02*
X103890213Y-100113459D01*
X93618213Y-99376069D02*
X103152823Y-99376069D01*
X92280213Y-100714069D02*
X93618213Y-99376069D01*
X103890213Y-101489855D02*
X91455999Y-113924069D01*
X91455999Y-113924069D02*
X85868213Y-113924069D01*
%TO.N,Net-(J103-Pin_2)*%
X92144213Y-108844069D02*
X100082213Y-100906069D01*
X100082213Y-100906069D02*
X102368213Y-100906069D01*
X85614213Y-108844069D02*
X92144213Y-108844069D01*
%TO.N,Net-(J103-Pin_3)*%
X94400213Y-103764069D02*
X97248213Y-100916069D01*
X85614213Y-103764069D02*
X94400213Y-103764069D01*
%TO.N,Net-(J103-Pin_6)*%
X88408213Y-91318069D02*
X85614213Y-88524069D01*
X91567603Y-94746069D02*
X92768823Y-94746069D01*
X94218823Y-93296069D02*
X97248213Y-93296069D01*
X92768823Y-94746069D02*
X94218823Y-93296069D01*
X88408213Y-91318069D02*
X88408213Y-91586679D01*
X88408213Y-91586679D02*
X91567603Y-94746069D01*
D42*
%TO.N,+24V Unreg in*%
X91786413Y-52009269D02*
X92741213Y-52964069D01*
X91786413Y-46106069D02*
X91786413Y-52009269D01*
%TD*%
%TA.AperFunction,Conductor*%
%TO.N,GNDPWR*%
G36*
X179960488Y-40029754D02*
G01*
X180006243Y-40082558D01*
X180017449Y-40134069D01*
X180017449Y-48268069D01*
X179997764Y-48335108D01*
X179944960Y-48380863D01*
X179893449Y-48392069D01*
X174311575Y-48392069D01*
X174244536Y-48372384D01*
X174223894Y-48355750D01*
X169724532Y-43856388D01*
X169691047Y-43795065D01*
X169688213Y-43768707D01*
X169688213Y-40134069D01*
X169707898Y-40067030D01*
X169760702Y-40021275D01*
X169812213Y-40010069D01*
X179893449Y-40010069D01*
X179960488Y-40029754D01*
G37*
%TD.AperFunction*%
%TD*%
%TA.AperFunction,Conductor*%
%TO.N,GNDPWR*%
G36*
X96859252Y-116945754D02*
G01*
X96905007Y-116998558D01*
X96916213Y-117050069D01*
X96916213Y-139870950D01*
X96896528Y-139937989D01*
X96843724Y-139983744D01*
X96792213Y-139994950D01*
X80150213Y-139994950D01*
X80083174Y-139975265D01*
X80037419Y-139922461D01*
X80026213Y-139870950D01*
X80026213Y-117050069D01*
X80045898Y-116983030D01*
X80098702Y-116937275D01*
X80150213Y-116926069D01*
X96792213Y-116926069D01*
X96859252Y-116945754D01*
G37*
%TD.AperFunction*%
%TD*%
%TA.AperFunction,Conductor*%
%TO.N,GNDPWR*%
G36*
X90097252Y-40029754D02*
G01*
X90143007Y-40082558D01*
X90154213Y-40134069D01*
X90154213Y-52014069D01*
X90134528Y-52081108D01*
X90081724Y-52126863D01*
X90030213Y-52138069D01*
X80150213Y-52138069D01*
X80083174Y-52118384D01*
X80037419Y-52065580D01*
X80026213Y-52014069D01*
X80026213Y-40134069D01*
X80045898Y-40067030D01*
X80098702Y-40021275D01*
X80150213Y-40010069D01*
X90030213Y-40010069D01*
X90097252Y-40029754D01*
G37*
%TD.AperFunction*%
%TD*%
%TA.AperFunction,Conductor*%
%TO.N,GNDPWR*%
G36*
X179883461Y-128862173D02*
G01*
X179929216Y-128914977D01*
X179940422Y-128966488D01*
X179940422Y-139875350D01*
X179920737Y-139942389D01*
X179867933Y-139988144D01*
X179816422Y-139999350D01*
X164811249Y-139999350D01*
X164744210Y-139979665D01*
X164698455Y-139926861D01*
X164687249Y-139875350D01*
X164687249Y-136000002D01*
X172695153Y-136000002D01*
X172714526Y-136357314D01*
X172714527Y-136357331D01*
X172772415Y-136710431D01*
X172772421Y-136710457D01*
X172868147Y-137055232D01*
X172868149Y-137055239D01*
X173000597Y-137387659D01*
X173000606Y-137387677D01*
X173168218Y-137703827D01*
X173369024Y-137999994D01*
X173369035Y-138000008D01*
X173496441Y-138150002D01*
X173496442Y-138150002D01*
X174705747Y-136940697D01*
X174779588Y-137042330D01*
X174957670Y-137220412D01*
X175059300Y-137294251D01*
X173847257Y-138506294D01*
X173860495Y-138518836D01*
X174145367Y-138735388D01*
X174145370Y-138735390D01*
X174451990Y-138919876D01*
X174776739Y-139070122D01*
X174776744Y-139070123D01*
X175115855Y-139184383D01*
X175465339Y-139261311D01*
X175821075Y-139299999D01*
X175821085Y-139300000D01*
X176178915Y-139300000D01*
X176178924Y-139299999D01*
X176534660Y-139261311D01*
X176884144Y-139184383D01*
X177223255Y-139070123D01*
X177223260Y-139070122D01*
X177548009Y-138919876D01*
X177854629Y-138735390D01*
X177854632Y-138735388D01*
X178139509Y-138518831D01*
X178152742Y-138506295D01*
X178152742Y-138506294D01*
X176940699Y-137294251D01*
X177042330Y-137220412D01*
X177220412Y-137042330D01*
X177294252Y-136940698D01*
X178503556Y-138150002D01*
X178630972Y-137999998D01*
X178630975Y-137999994D01*
X178831781Y-137703827D01*
X178999393Y-137387677D01*
X178999402Y-137387659D01*
X179131850Y-137055239D01*
X179131852Y-137055232D01*
X179227578Y-136710457D01*
X179227584Y-136710431D01*
X179285472Y-136357331D01*
X179285473Y-136357314D01*
X179304847Y-136000002D01*
X179304847Y-135999997D01*
X179285473Y-135642685D01*
X179285472Y-135642668D01*
X179227584Y-135289568D01*
X179227578Y-135289542D01*
X179131852Y-134944767D01*
X179131850Y-134944760D01*
X178999402Y-134612340D01*
X178999393Y-134612322D01*
X178831781Y-134296172D01*
X178630975Y-134000005D01*
X178630964Y-133999991D01*
X178503556Y-133849996D01*
X177294251Y-135059300D01*
X177220412Y-134957670D01*
X177042330Y-134779588D01*
X176940698Y-134705748D01*
X178152742Y-133493704D01*
X178139504Y-133481163D01*
X177854632Y-133264611D01*
X177854629Y-133264609D01*
X177548009Y-133080123D01*
X177223260Y-132929877D01*
X177223255Y-132929876D01*
X176884144Y-132815616D01*
X176534660Y-132738688D01*
X176178924Y-132700000D01*
X175821075Y-132700000D01*
X175465339Y-132738688D01*
X175115855Y-132815616D01*
X174776744Y-132929876D01*
X174776739Y-132929877D01*
X174451990Y-133080123D01*
X174145370Y-133264609D01*
X174145367Y-133264611D01*
X173860486Y-133481170D01*
X173860485Y-133481171D01*
X173847257Y-133493702D01*
X173847256Y-133493703D01*
X175059301Y-134705748D01*
X174957670Y-134779588D01*
X174779588Y-134957670D01*
X174705748Y-135059301D01*
X173496442Y-133849995D01*
X173496441Y-133849996D01*
X173369033Y-133999992D01*
X173168218Y-134296172D01*
X173000606Y-134612322D01*
X173000597Y-134612340D01*
X172868149Y-134944760D01*
X172868147Y-134944767D01*
X172772421Y-135289542D01*
X172772415Y-135289568D01*
X172714527Y-135642668D01*
X172714526Y-135642685D01*
X172695153Y-135999997D01*
X172695153Y-136000002D01*
X164687249Y-136000002D01*
X164687249Y-128966488D01*
X164706934Y-128899449D01*
X164759738Y-128853694D01*
X164811249Y-128842488D01*
X179816422Y-128842488D01*
X179883461Y-128862173D01*
G37*
%TD.AperFunction*%
%TD*%
D47*
X80026213Y-40010069D02*
X180017449Y-40010069D01*
X180017449Y-140001305D01*
X80026213Y-140001305D01*
X80026213Y-40010069D01*
M02*
