%TF.GenerationSoftware,KiCad,Pcbnew,8.0.0*%
%TF.CreationDate,2024-02-29T13:53:57+01:00*%
%TF.ProjectId,G2-Control,47322d43-6f6e-4747-926f-6c2e6b696361,rev?*%
%TF.SameCoordinates,Original*%
%TF.FileFunction,Copper,L1,Top*%
%TF.FilePolarity,Positive*%
%FSLAX46Y46*%
G04 Gerber Fmt 4.6, Leading zero omitted, Abs format (unit mm)*
G04 Created by KiCad (PCBNEW 8.0.0) date 2024-02-29 13:53:57*
%MOMM*%
%LPD*%
G01*
G04 APERTURE LIST*
G04 Aperture macros list*
%AMRoundRect*
0 Rectangle with rounded corners*
0 $1 Rounding radius*
0 $2 $3 $4 $5 $6 $7 $8 $9 X,Y pos of 4 corners*
0 Add a 4 corners polygon primitive as box body*
4,1,4,$2,$3,$4,$5,$6,$7,$8,$9,$2,$3,0*
0 Add four circle primitives for the rounded corners*
1,1,$1+$1,$2,$3*
1,1,$1+$1,$4,$5*
1,1,$1+$1,$6,$7*
1,1,$1+$1,$8,$9*
0 Add four rect primitives between the rounded corners*
20,1,$1+$1,$2,$3,$4,$5,0*
20,1,$1+$1,$4,$5,$6,$7,0*
20,1,$1+$1,$6,$7,$8,$9,0*
20,1,$1+$1,$8,$9,$2,$3,0*%
%AMHorizOval*
0 Thick line with rounded ends*
0 $1 width*
0 $2 $3 position (X,Y) of the first rounded end (center of the circle)*
0 $4 $5 position (X,Y) of the second rounded end (center of the circle)*
0 Add line between two ends*
20,1,$1,$2,$3,$4,$5,0*
0 Add two circle primitives to create the rounded ends*
1,1,$1,$2,$3*
1,1,$1,$4,$5*%
%AMRotRect*
0 Rectangle, with rotation*
0 The origin of the aperture is its center*
0 $1 length*
0 $2 width*
0 $3 Rotation angle, in degrees counterclockwise*
0 Add horizontal line*
21,1,$1,$2,0,0,$3*%
%AMFreePoly0*
4,1,9,3.862500,-0.866500,0.737500,-0.866500,0.737500,-0.450000,-0.737500,-0.450000,-0.737500,0.450000,0.737500,0.450000,0.737500,0.866500,3.862500,0.866500,3.862500,-0.866500,3.862500,-0.866500,$1*%
G04 Aperture macros list end*
%TA.AperFunction,ComponentPad*%
%ADD10R,2.600000X2.600000*%
%TD*%
%TA.AperFunction,ComponentPad*%
%ADD11O,2.600000X2.600000*%
%TD*%
%TA.AperFunction,SMDPad,CuDef*%
%ADD12RoundRect,0.250000X-0.312500X-0.625000X0.312500X-0.625000X0.312500X0.625000X-0.312500X0.625000X0*%
%TD*%
%TA.AperFunction,SMDPad,CuDef*%
%ADD13RoundRect,0.112500X0.187500X0.112500X-0.187500X0.112500X-0.187500X-0.112500X0.187500X-0.112500X0*%
%TD*%
%TA.AperFunction,ComponentPad*%
%ADD14R,2.000000X1.905000*%
%TD*%
%TA.AperFunction,ComponentPad*%
%ADD15O,2.000000X1.905000*%
%TD*%
%TA.AperFunction,SMDPad,CuDef*%
%ADD16RoundRect,0.150000X0.825000X0.150000X-0.825000X0.150000X-0.825000X-0.150000X0.825000X-0.150000X0*%
%TD*%
%TA.AperFunction,SMDPad,CuDef*%
%ADD17RoundRect,0.112500X0.112500X-0.187500X0.112500X0.187500X-0.112500X0.187500X-0.112500X-0.187500X0*%
%TD*%
%TA.AperFunction,ComponentPad*%
%ADD18C,1.600000*%
%TD*%
%TA.AperFunction,ComponentPad*%
%ADD19O,1.600000X1.600000*%
%TD*%
%TA.AperFunction,ComponentPad*%
%ADD20C,5.600000*%
%TD*%
%TA.AperFunction,SMDPad,CuDef*%
%ADD21RoundRect,0.250000X0.250000X0.475000X-0.250000X0.475000X-0.250000X-0.475000X0.250000X-0.475000X0*%
%TD*%
%TA.AperFunction,ComponentPad*%
%ADD22R,1.500000X1.500000*%
%TD*%
%TA.AperFunction,ComponentPad*%
%ADD23C,1.500000*%
%TD*%
%TA.AperFunction,ComponentPad*%
%ADD24C,2.400000*%
%TD*%
%TA.AperFunction,ComponentPad*%
%ADD25O,2.400000X2.400000*%
%TD*%
%TA.AperFunction,SMDPad,CuDef*%
%ADD26RoundRect,0.250000X0.625000X-0.312500X0.625000X0.312500X-0.625000X0.312500X-0.625000X-0.312500X0*%
%TD*%
%TA.AperFunction,SMDPad,CuDef*%
%ADD27RoundRect,0.250000X0.650000X-0.325000X0.650000X0.325000X-0.650000X0.325000X-0.650000X-0.325000X0*%
%TD*%
%TA.AperFunction,SMDPad,CuDef*%
%ADD28RoundRect,0.250000X-0.625000X0.312500X-0.625000X-0.312500X0.625000X-0.312500X0.625000X0.312500X0*%
%TD*%
%TA.AperFunction,SMDPad,CuDef*%
%ADD29RoundRect,0.250000X-0.650000X0.325000X-0.650000X-0.325000X0.650000X-0.325000X0.650000X0.325000X0*%
%TD*%
%TA.AperFunction,ComponentPad*%
%ADD30R,2.200000X2.200000*%
%TD*%
%TA.AperFunction,ComponentPad*%
%ADD31O,2.200000X2.200000*%
%TD*%
%TA.AperFunction,ComponentPad*%
%ADD32C,1.800000*%
%TD*%
%TA.AperFunction,SMDPad,CuDef*%
%ADD33RoundRect,0.250000X0.475000X-0.250000X0.475000X0.250000X-0.475000X0.250000X-0.475000X-0.250000X0*%
%TD*%
%TA.AperFunction,ComponentPad*%
%ADD34R,1.400000X1.400000*%
%TD*%
%TA.AperFunction,ComponentPad*%
%ADD35C,1.400000*%
%TD*%
%TA.AperFunction,ComponentPad*%
%ADD36RoundRect,0.249999X-0.790001X-1.550001X0.790001X-1.550001X0.790001X1.550001X-0.790001X1.550001X0*%
%TD*%
%TA.AperFunction,ComponentPad*%
%ADD37O,2.080000X3.600000*%
%TD*%
%TA.AperFunction,SMDPad,CuDef*%
%ADD38RoundRect,0.250000X-0.250000X-0.475000X0.250000X-0.475000X0.250000X0.475000X-0.250000X0.475000X0*%
%TD*%
%TA.AperFunction,SMDPad,CuDef*%
%ADD39RoundRect,0.250000X-1.500000X-0.550000X1.500000X-0.550000X1.500000X0.550000X-1.500000X0.550000X0*%
%TD*%
%TA.AperFunction,ComponentPad*%
%ADD40R,1.300000X1.050000*%
%TD*%
%TA.AperFunction,ComponentPad*%
%ADD41O,1.300000X1.050000*%
%TD*%
%TA.AperFunction,SMDPad,CuDef*%
%ADD42RoundRect,0.250000X0.325000X0.650000X-0.325000X0.650000X-0.325000X-0.650000X0.325000X-0.650000X0*%
%TD*%
%TA.AperFunction,ComponentPad*%
%ADD43RoundRect,0.249999X1.550001X-0.790001X1.550001X0.790001X-1.550001X0.790001X-1.550001X-0.790001X0*%
%TD*%
%TA.AperFunction,ComponentPad*%
%ADD44O,3.600000X2.080000*%
%TD*%
%TA.AperFunction,ComponentPad*%
%ADD45RotRect,2.000000X2.000000X225.000000*%
%TD*%
%TA.AperFunction,ComponentPad*%
%ADD46HorizOval,2.000000X0.000000X0.000000X0.000000X0.000000X0*%
%TD*%
%TA.AperFunction,SMDPad,CuDef*%
%ADD47RoundRect,0.225000X0.425000X0.225000X-0.425000X0.225000X-0.425000X-0.225000X0.425000X-0.225000X0*%
%TD*%
%TA.AperFunction,SMDPad,CuDef*%
%ADD48FreePoly0,180.000000*%
%TD*%
%TA.AperFunction,ComponentPad*%
%ADD49R,1.700000X1.700000*%
%TD*%
%TA.AperFunction,ComponentPad*%
%ADD50O,1.700000X1.700000*%
%TD*%
%TA.AperFunction,ComponentPad*%
%ADD51RoundRect,0.249999X-1.550001X0.790001X-1.550001X-0.790001X1.550001X-0.790001X1.550001X0.790001X0*%
%TD*%
%TA.AperFunction,SMDPad,CuDef*%
%ADD52RoundRect,0.250000X0.312500X0.625000X-0.312500X0.625000X-0.312500X-0.625000X0.312500X-0.625000X0*%
%TD*%
%TA.AperFunction,ComponentPad*%
%ADD53R,1.600000X1.600000*%
%TD*%
%TA.AperFunction,SMDPad,CuDef*%
%ADD54RoundRect,0.150000X0.587500X0.150000X-0.587500X0.150000X-0.587500X-0.150000X0.587500X-0.150000X0*%
%TD*%
%TA.AperFunction,ComponentPad*%
%ADD55C,2.000000*%
%TD*%
%TA.AperFunction,SMDPad,CuDef*%
%ADD56RoundRect,0.250000X-0.550000X1.250000X-0.550000X-1.250000X0.550000X-1.250000X0.550000X1.250000X0*%
%TD*%
%TA.AperFunction,ComponentPad*%
%ADD57C,1.440000*%
%TD*%
%TA.AperFunction,ComponentPad*%
%ADD58R,2.400000X2.400000*%
%TD*%
%TA.AperFunction,SMDPad,CuDef*%
%ADD59RoundRect,0.250000X0.550000X-1.500000X0.550000X1.500000X-0.550000X1.500000X-0.550000X-1.500000X0*%
%TD*%
%TA.AperFunction,SMDPad,CuDef*%
%ADD60RoundRect,0.162500X1.012500X0.162500X-1.012500X0.162500X-1.012500X-0.162500X1.012500X-0.162500X0*%
%TD*%
%TA.AperFunction,ViaPad*%
%ADD61C,0.800000*%
%TD*%
%TA.AperFunction,Conductor*%
%ADD62C,1.000000*%
%TD*%
%TA.AperFunction,Conductor*%
%ADD63C,0.500000*%
%TD*%
%TA.AperFunction,Conductor*%
%ADD64C,1.300000*%
%TD*%
%TA.AperFunction,Conductor*%
%ADD65C,1.500000*%
%TD*%
%TA.AperFunction,Conductor*%
%ADD66C,1.100000*%
%TD*%
%TA.AperFunction,Conductor*%
%ADD67C,1.200000*%
%TD*%
%TA.AperFunction,Profile*%
%ADD68C,0.100000*%
%TD*%
G04 APERTURE END LIST*
D10*
%TO.P,D7,1,K*%
%TO.N,Net-(D7-K)*%
X160828213Y-109876069D03*
D11*
%TO.P,D7,2,A*%
%TO.N,CATHODE*%
X155748213Y-109876069D03*
%TD*%
D12*
%TO.P,R25,1*%
%TO.N,GNDPWR*%
X100026772Y-127307270D03*
%TO.P,R25,2*%
%TO.N,RESET-A*%
X102951772Y-127307270D03*
%TD*%
D13*
%TO.P,D3,1,K*%
%TO.N,Net-(D3-K)*%
X120705713Y-108166069D03*
%TO.P,D3,2,A*%
%TO.N,CATHODE*%
X118605713Y-108166069D03*
%TD*%
D14*
%TO.P,Q1,1,B*%
%TO.N,Net-(D2-A)*%
X174693213Y-116376069D03*
D15*
%TO.P,Q1,2,C*%
%TO.N,/+30V rail*%
X174693213Y-113836069D03*
%TO.P,Q1,3,E*%
%TO.N,CATHODE*%
X174693213Y-111296069D03*
%TD*%
D16*
%TO.P,U5,1,GND*%
%TO.N,GNDPWR*%
X165463213Y-128021069D03*
%TO.P,U5,2,TR*%
%TO.N,Net-(U5-THR)*%
X165463213Y-126751069D03*
%TO.P,U5,3,Q*%
%TO.N,unconnected-(U5-Q-Pad3)*%
X165463213Y-125481069D03*
%TO.P,U5,4,R*%
%TO.N,+12V REG IN*%
X165463213Y-124211069D03*
%TO.P,U5,5,CV*%
%TO.N,unconnected-(U5-CV-Pad5)*%
X160513213Y-124211069D03*
%TO.P,U5,6,THR*%
%TO.N,Net-(U5-THR)*%
X160513213Y-125481069D03*
%TO.P,U5,7,DIS*%
%TO.N,Aux trip in*%
X160513213Y-126751069D03*
%TO.P,U5,8,VCC*%
%TO.N,+12V REG IN*%
X160513213Y-128021069D03*
%TD*%
D17*
%TO.P,D5,1,K*%
%TO.N,Net-(D4-A)*%
X141113213Y-105610069D03*
%TO.P,D5,2,A*%
%TO.N,CATHODE*%
X141113213Y-103510069D03*
%TD*%
D18*
%TO.P,C8,1*%
%TO.N,Net-(C8-Pad1)*%
X153653213Y-97541069D03*
D19*
%TO.P,C8,2*%
%TO.N,-Ig2*%
X133653213Y-97541069D03*
%TD*%
D20*
%TO.P,H1,1,1*%
%TO.N,GNDPWR*%
X176000000Y-44000000D03*
%TD*%
%TO.P,H4,1,1*%
%TO.N,GNDPWR*%
X176000000Y-136000000D03*
%TD*%
D21*
%TO.P,C11,1*%
%TO.N,Net-(D7-K)*%
X159668213Y-104541069D03*
%TO.P,C11,2*%
%TO.N,CATHODE*%
X157768213Y-104541069D03*
%TD*%
D18*
%TO.P,LK3,1,A*%
%TO.N,Net-(LK3-A)*%
X166708213Y-98676069D03*
D19*
%TO.P,LK3,2,B*%
%TO.N,-Ig2*%
X166708213Y-83436069D03*
%TD*%
D22*
%TO.P,Q4,1,C*%
%TO.N,ALARM_LED_ANODE*%
X110252213Y-126466069D03*
D23*
%TO.P,Q4,2,B*%
%TO.N,RESET-A*%
X112792213Y-126466069D03*
%TO.P,Q4,3,E*%
%TO.N,+12V REG IN*%
X115332213Y-126466069D03*
%TD*%
D12*
%TO.P,R3,1*%
%TO.N,CATHODE*%
X166315713Y-115666069D03*
%TO.P,R3,2*%
%TO.N,Net-(D2-A)*%
X169240713Y-115666069D03*
%TD*%
D24*
%TO.P,R10,1*%
%TO.N,Net-(D7-K)*%
X157278213Y-100531069D03*
D25*
%TO.P,R10,2*%
%TO.N,/R12*%
X157278213Y-95451069D03*
%TD*%
D26*
%TO.P,R22,1*%
%TO.N,Aux trip in*%
X157810000Y-126762500D03*
%TO.P,R22,2*%
%TO.N,Net-(Q5-B)*%
X157810000Y-123837500D03*
%TD*%
D27*
%TO.P,C7,1*%
%TO.N,Net-(U2--)*%
X132985213Y-105366069D03*
%TO.P,C7,2*%
%TO.N,CATHODE*%
X132985213Y-102416069D03*
%TD*%
D28*
%TO.P,R2,1*%
%TO.N,CATHODE*%
X118888213Y-110293569D03*
%TO.P,R2,2*%
%TO.N,Net-(U1-ADJ)*%
X118888213Y-113218569D03*
%TD*%
D26*
%TO.P,R20,1*%
%TO.N,Net-(D11-K)*%
X154218213Y-126168569D03*
%TO.P,R20,2*%
%TO.N,+12V REG IN*%
X154218213Y-123243569D03*
%TD*%
D29*
%TO.P,C14,1*%
%TO.N,G1 trip in*%
X102258213Y-117191069D03*
%TO.P,C14,2*%
%TO.N,GNDPWR*%
X102258213Y-120141069D03*
%TD*%
D10*
%TO.P,D1,1,K*%
%TO.N,/+30V rail*%
X144268213Y-114686069D03*
D11*
%TO.P,D1,2,A*%
%TO.N,Net-(D1-A)*%
X149348213Y-114686069D03*
%TD*%
D17*
%TO.P,D4,1,K*%
%TO.N,/+30V rail*%
X141113213Y-111291069D03*
%TO.P,D4,2,A*%
%TO.N,Net-(D4-A)*%
X141113213Y-109191069D03*
%TD*%
D20*
%TO.P,H3,1,1*%
%TO.N,GNDPWR*%
X84000000Y-136000000D03*
%TD*%
D30*
%TO.P,D9,1,K*%
%TO.N,-Ig2*%
X165820213Y-65818069D03*
D31*
%TO.P,D9,2,A*%
%TO.N,+Ig2*%
X165820213Y-75978069D03*
%TD*%
D12*
%TO.P,R27,1*%
%TO.N,Net-(Q6-G)*%
X159195713Y-121156069D03*
%TO.P,R27,2*%
%TO.N,Net-(Q5-C)*%
X162120713Y-121156069D03*
%TD*%
D14*
%TO.P,Q6,1,G*%
%TO.N,Net-(Q6-G)*%
X115515213Y-67696069D03*
D15*
%TO.P,Q6,2,D*%
%TO.N,Net-(D12-K)*%
X115515213Y-65156069D03*
%TO.P,Q6,3,S*%
%TO.N,+12{slash}24V HV ENABLE*%
X115515213Y-62616069D03*
%TD*%
D27*
%TO.P,C13,1*%
%TO.N,+12V REG IN*%
X102298213Y-125206069D03*
%TO.P,C13,2*%
%TO.N,GNDPWR*%
X102298213Y-122256069D03*
%TD*%
D31*
%TO.P,D14,2,A*%
%TO.N,Net-(D14-A)*%
X133830000Y-53750000D03*
D30*
%TO.P,D14,1,K*%
%TO.N,+12{slash}24V HV ENABLE*%
X123670000Y-53750000D03*
%TD*%
D26*
%TO.P,R6,1*%
%TO.N,Net-(U1-VI)*%
X122698213Y-114243569D03*
%TO.P,R6,2*%
%TO.N,Net-(U2--)*%
X122698213Y-111318569D03*
%TD*%
D32*
%TO.P,VDR2,1*%
%TO.N,-Ig2*%
X129503213Y-70811069D03*
%TO.P,VDR2,2*%
%TO.N,CATHODE*%
X132403213Y-63311069D03*
%TD*%
D33*
%TO.P,C4,1*%
%TO.N,/Q2G*%
X136446963Y-121031069D03*
%TO.P,C4,2*%
%TO.N,Net-(D3-K)*%
X136446963Y-119131069D03*
%TD*%
D24*
%TO.P,R15,1*%
%TO.N,Net-(BR1-+)*%
X156403213Y-83686069D03*
D25*
%TO.P,R15,2*%
%TO.N,Net-(BR1--)*%
X151323213Y-83686069D03*
%TD*%
D30*
%TO.P,D13,1,K*%
%TO.N,+12{slash}24V HV ENABLE*%
X105958213Y-105296069D03*
D31*
%TO.P,D13,2,A*%
%TO.N,GNDPWR*%
X105958213Y-115456069D03*
%TD*%
D34*
%TO.P,K1,1*%
%TO.N,Net-(D14-A)*%
X150892213Y-43344569D03*
D35*
%TO.P,K1,4*%
%TO.N,G2 UNREG TX IN*%
X150892213Y-50964569D03*
%TO.P,K1,6*%
%TO.N,unconnected-(K1-Pad6)*%
X150892213Y-56044569D03*
%TO.P,K1,8*%
%TO.N,/R12*%
X150892213Y-61124569D03*
%TO.P,K1,9*%
%TO.N,-Ig2*%
X158512213Y-61124569D03*
%TO.P,K1,11*%
%TO.N,CATHODE*%
X158512213Y-56044569D03*
%TO.P,K1,13*%
%TO.N,G2-REG-OUT*%
X158512213Y-50964569D03*
%TO.P,K1,16*%
%TO.N,+12{slash}24V HV ENABLE*%
X158512213Y-43344569D03*
%TD*%
D17*
%TO.P,D11,1,K*%
%TO.N,Net-(D11-K)*%
X151810000Y-125790000D03*
%TO.P,D11,2,A*%
%TO.N,+12V REG IN*%
X151810000Y-123690000D03*
%TD*%
D30*
%TO.P,D10,1,K*%
%TO.N,+Ig2*%
X162373013Y-76078069D03*
D31*
%TO.P,D10,2,A*%
%TO.N,-Ig2*%
X162373013Y-65918069D03*
%TD*%
D24*
%TO.P,C9,1*%
%TO.N,-Ig2*%
X141748213Y-78131069D03*
%TO.P,C9,2*%
%TO.N,CATHODE*%
X141748213Y-55631069D03*
%TD*%
D28*
%TO.P,R4,1*%
%TO.N,Net-(D3-K)*%
X141621963Y-118933569D03*
%TO.P,R4,2*%
%TO.N,/Q2G*%
X141621963Y-121858569D03*
%TD*%
D36*
%TO.P,J1,1,Pin_1*%
%TO.N,ALARM_LED_CATHODE*%
X105172213Y-133946069D03*
D37*
%TO.P,J1,2,Pin_2*%
%TO.N,ALARM_LED_ANODE*%
X110252213Y-133946069D03*
%TO.P,J1,3,Pin_3*%
%TO.N,RESET-A*%
X115332213Y-133946069D03*
%TO.P,J1,4,Pin_4*%
%TO.N,+12V REG IN*%
X120412213Y-133946069D03*
%TO.P,J1,5,Pin_5*%
%TO.N,PTT_L*%
X125492213Y-133946069D03*
%TO.P,J1,6,Pin_6*%
%TO.N,+12{slash}24V HV ENABLE*%
X130572213Y-133946069D03*
%TD*%
D26*
%TO.P,R7,1*%
%TO.N,Net-(R7-Pad1)*%
X138573213Y-112338569D03*
%TO.P,R7,2*%
%TO.N,Net-(D4-A)*%
X138573213Y-109413569D03*
%TD*%
D38*
%TO.P,C6,1*%
%TO.N,Net-(D4-A)*%
X128733213Y-103891069D03*
%TO.P,C6,2*%
%TO.N,Net-(U2--)*%
X130633213Y-103891069D03*
%TD*%
D12*
%TO.P,R19,1*%
%TO.N,Net-(U5-THR)*%
X162875713Y-130736069D03*
%TO.P,R19,2*%
%TO.N,GNDPWR*%
X165800713Y-130736069D03*
%TD*%
D39*
%TO.P,C16,1*%
%TO.N,Net-(D11-K)*%
X152510213Y-131704069D03*
%TO.P,C16,2*%
%TO.N,Net-(U5-THR)*%
X157910213Y-131704069D03*
%TD*%
D24*
%TO.P,R13,1*%
%TO.N,/R12*%
X165068213Y-52776069D03*
D25*
%TO.P,R13,2*%
%TO.N,G2 UNREG IN*%
X165068213Y-47696069D03*
%TD*%
D40*
%TO.P,Q3,1,K*%
%TO.N,GNDPWR*%
X120558213Y-72046069D03*
D41*
%TO.P,Q3,2,G*%
%TO.N,G1 trip in*%
X120558213Y-69506069D03*
%TO.P,Q3,3,A*%
%TO.N,Aux trip in*%
X120558213Y-66966069D03*
%TD*%
D42*
%TO.P,C12,1*%
%TO.N,+5V*%
X125953213Y-85226069D03*
%TO.P,C12,2*%
%TO.N,GNDPWR*%
X123003213Y-85226069D03*
%TD*%
D28*
%TO.P,R5,1*%
%TO.N,Net-(C5-Pad1)*%
X136287213Y-110048569D03*
%TO.P,R5,2*%
%TO.N,Net-(U2-FC)*%
X136287213Y-112973569D03*
%TD*%
D43*
%TO.P,J2,1,Pin_1*%
%TO.N,/+30V rail*%
X173960713Y-101826069D03*
D44*
%TO.P,J2,2,Pin_2*%
%TO.N,/Q2G*%
X173960713Y-96746069D03*
%TO.P,J2,3,Pin_3*%
%TO.N,/R12*%
X173960713Y-91666069D03*
%TD*%
D36*
%TO.P,J104,1,Pin_1*%
%TO.N,+24V Unreg in*%
X92318213Y-46186069D03*
D37*
%TO.P,J104,2,Pin_2*%
%TO.N,G1 trip in*%
X97398213Y-46186069D03*
%TO.P,J104,3,Pin_3*%
%TO.N,GNDPWR*%
X102478213Y-46186069D03*
%TO.P,J104,4,Pin_4*%
%TO.N,+12V REG IN*%
X107558213Y-46186069D03*
%TO.P,J104,5,Pin_5*%
%TO.N,CATHODE*%
X112638213Y-46186069D03*
%TO.P,J104,6,Pin_6*%
%TO.N,G2 UNREG IN*%
X117718213Y-46186069D03*
%TD*%
D45*
%TO.P,BR1,1,+*%
%TO.N,Net-(BR1-+)*%
X158618747Y-75824069D03*
D46*
%TO.P,BR1,2*%
%TO.N,+Ig2*%
X155083213Y-72288535D03*
%TO.P,BR1,3,-*%
%TO.N,Net-(BR1--)*%
X151547679Y-75824069D03*
%TO.P,BR1,4*%
%TO.N,/R12*%
X155083213Y-79359603D03*
%TD*%
D24*
%TO.P,R21,1*%
%TO.N,Aux trip in*%
X141485000Y-133500000D03*
D25*
%TO.P,R21,2*%
%TO.N,ALARM_LED_CATHODE*%
X136405000Y-133500000D03*
%TD*%
D20*
%TO.P,H2,1,1*%
%TO.N,GNDPWR*%
X84000000Y-44000000D03*
%TD*%
D29*
%TO.P,C3,1*%
%TO.N,/+30V rail*%
X163878213Y-113391069D03*
%TO.P,C3,2*%
%TO.N,CATHODE*%
X163878213Y-116341069D03*
%TD*%
D26*
%TO.P,R23,1*%
%TO.N,Net-(Q5-B)*%
X170040000Y-123302500D03*
%TO.P,R23,2*%
%TO.N,GNDPWR*%
X170040000Y-120377500D03*
%TD*%
%TO.P,R17,1*%
%TO.N,-Ig2*%
X166132213Y-81378569D03*
%TO.P,R17,2*%
%TO.N,+Ig2*%
X166132213Y-78453569D03*
%TD*%
D30*
%TO.P,D12,1,K*%
%TO.N,Net-(D12-K)*%
X106950213Y-58044069D03*
D31*
%TO.P,D12,2,A*%
%TO.N,+12{slash}24V HV ENABLE*%
X117110213Y-58044069D03*
%TD*%
D26*
%TO.P,R11,1*%
%TO.N,/Q2G*%
X167178213Y-104508569D03*
%TO.P,R11,2*%
%TO.N,Net-(D7-K)*%
X167178213Y-101583569D03*
%TD*%
D36*
%TO.P,J4,1,Pin_1*%
%TO.N,+12{slash}24V HV ENABLE*%
X126910000Y-46202500D03*
D37*
%TO.P,J4,2,Pin_2*%
%TO.N,Aux trip in*%
X131990000Y-46202500D03*
%TD*%
D43*
%TO.P,J103,1,Pin_1*%
%TO.N,Net-(J103-Pin_1)*%
X86338213Y-114004069D03*
D44*
%TO.P,J103,2,Pin_2*%
%TO.N,Net-(J103-Pin_2)*%
X86338213Y-108924069D03*
%TO.P,J103,3,Pin_3*%
%TO.N,Net-(J103-Pin_3)*%
X86338213Y-103844069D03*
%TO.P,J103,4,Pin_4*%
%TO.N,Net-(J103-Pin_4)*%
X86338213Y-98764069D03*
%TO.P,J103,5,Pin_5*%
%TO.N,Net-(J103-Pin_5)*%
X86338213Y-93684069D03*
%TO.P,J103,6,Pin_6*%
%TO.N,Net-(J103-Pin_6)*%
X86338213Y-88604069D03*
%TD*%
D10*
%TO.P,D8,1,K*%
%TO.N,Net-(BR1-+)*%
X161888213Y-83821069D03*
D11*
%TO.P,D8,2,A*%
%TO.N,Net-(BR1--)*%
X161888213Y-88901069D03*
%TD*%
D33*
%TO.P,C5,1*%
%TO.N,Net-(C5-Pad1)*%
X136287213Y-107381069D03*
%TO.P,C5,2*%
%TO.N,Net-(C5-Pad2)*%
X136287213Y-105481069D03*
%TD*%
D30*
%TO.P,D15,1,K*%
%TO.N,Net-(D15-K)*%
X110358213Y-74636069D03*
D31*
%TO.P,D15,2,A*%
%TO.N,Net-(D15-A)*%
X120518213Y-74636069D03*
%TD*%
D24*
%TO.P,R28,1*%
%TO.N,+12{slash}24V HV ENABLE*%
X119723213Y-93716069D03*
D25*
%TO.P,R28,2*%
%TO.N,Net-(D15-K)*%
X114643213Y-93716069D03*
%TD*%
D12*
%TO.P,R18,1*%
%TO.N,Net-(R18-Pad1)*%
X119985713Y-88036069D03*
%TO.P,R18,2*%
%TO.N,Net-(R18-Pad2)*%
X122910713Y-88036069D03*
%TD*%
D47*
%TO.P,U1,1,ADJ*%
%TO.N,Net-(U1-ADJ)*%
X128458213Y-121901069D03*
D48*
%TO.P,U1,2,VO*%
%TO.N,/+30V rail*%
X128370713Y-120401069D03*
D47*
%TO.P,U1,3,VI*%
%TO.N,Net-(U1-VI)*%
X128458213Y-118901069D03*
%TD*%
D30*
%TO.P,D16,1,K*%
%TO.N,PTT_L*%
X120430000Y-62750000D03*
D31*
%TO.P,D16,2,A*%
%TO.N,Net-(D14-A)*%
X120430000Y-52590000D03*
%TD*%
D49*
%TO.P,JP101,1,A*%
%TO.N,+24V Unreg in*%
X92741213Y-52964069D03*
D50*
%TO.P,JP101,2,C*%
%TO.N,Net-(D12-K)*%
X95281213Y-52964069D03*
%TO.P,JP101,3,B*%
%TO.N,+12V REG IN*%
X97821213Y-52964069D03*
%TD*%
D51*
%TO.P,J3,1,Pin_1*%
%TO.N,G2 UNREG TX IN*%
X173581789Y-52548877D03*
D44*
%TO.P,J3,2,Pin_2*%
%TO.N,G2 UNREG IN*%
X173581789Y-57628877D03*
%TO.P,J3,3,Pin_3*%
%TO.N,G2-REG-OUT*%
X173581789Y-62708877D03*
%TO.P,J3,4,Pin_4*%
%TO.N,CATHODE*%
X173581789Y-67788877D03*
%TO.P,J3,5,Pin_5*%
%TO.N,-Ig2*%
X173581789Y-72868877D03*
%TO.P,J3,6,Pin_6*%
%TO.N,+Ig2*%
X173581789Y-77948877D03*
%TO.P,J3,7,Pin_7*%
%TO.N,GNDPWR*%
X173581789Y-83028877D03*
%TD*%
D52*
%TO.P,R29,1*%
%TO.N,Net-(R18-Pad1)*%
X116630713Y-88596069D03*
%TO.P,R29,2*%
%TO.N,G1 trip in*%
X113705713Y-88596069D03*
%TD*%
D53*
%TO.P,U2,1,NULL*%
%TO.N,Net-(C5-Pad2)*%
X133483213Y-108346069D03*
D19*
%TO.P,U2,2,-*%
%TO.N,Net-(U2--)*%
X130943213Y-108346069D03*
%TO.P,U2,3,+*%
%TO.N,Net-(D4-A)*%
X128403213Y-108346069D03*
%TO.P,U2,4,V-*%
%TO.N,CATHODE*%
X125863213Y-108346069D03*
%TO.P,U2,5,NULL*%
%TO.N,unconnected-(U2-NULL-Pad5)*%
X125863213Y-115966069D03*
%TO.P,U2,6*%
%TO.N,Net-(D3-K)*%
X128403213Y-115966069D03*
%TO.P,U2,7,V+*%
%TO.N,/+30V rail*%
X130943213Y-115966069D03*
%TO.P,U2,8,FC*%
%TO.N,Net-(U2-FC)*%
X133483213Y-115966069D03*
%TD*%
D34*
%TO.P,K2,1*%
%TO.N,Net-(D14-A)*%
X110219713Y-63933569D03*
D35*
%TO.P,K2,4*%
%TO.N,Net-(J102-Pin_5)*%
X102599713Y-63933569D03*
%TO.P,K2,6*%
%TO.N,Net-(J102-Pin_6)*%
X97519713Y-63933569D03*
%TO.P,K2,8*%
%TO.N,Net-(J102-Pin_4)*%
X92439713Y-63933569D03*
%TO.P,K2,9*%
%TO.N,Net-(J102-Pin_1)*%
X92439713Y-71553569D03*
%TO.P,K2,11*%
%TO.N,Net-(J102-Pin_3)*%
X97519713Y-71553569D03*
%TO.P,K2,13*%
%TO.N,Net-(J102-Pin_2)*%
X102599713Y-71553569D03*
%TO.P,K2,16*%
%TO.N,+12{slash}24V HV ENABLE*%
X110219713Y-71553569D03*
%TD*%
D12*
%TO.P,R26,1*%
%TO.N,+12V REG IN*%
X154415713Y-121116069D03*
%TO.P,R26,2*%
%TO.N,Net-(Q6-G)*%
X157340713Y-121116069D03*
%TD*%
D43*
%TO.P,J102,1,Pin_1*%
%TO.N,Net-(J102-Pin_1)*%
X86348213Y-79946069D03*
D44*
%TO.P,J102,2,Pin_2*%
%TO.N,Net-(J102-Pin_2)*%
X86348213Y-74866069D03*
%TO.P,J102,3,Pin_3*%
%TO.N,Net-(J102-Pin_3)*%
X86348213Y-69786069D03*
%TO.P,J102,4,Pin_4*%
%TO.N,Net-(J102-Pin_4)*%
X86348213Y-64706069D03*
%TO.P,J102,5,Pin_5*%
%TO.N,Net-(J102-Pin_5)*%
X86348213Y-59626069D03*
%TO.P,J102,6,Pin_6*%
%TO.N,Net-(J102-Pin_6)*%
X86348213Y-54546069D03*
%TD*%
D54*
%TO.P,Q5,1,B*%
%TO.N,Net-(Q5-B)*%
X165995713Y-122226069D03*
%TO.P,Q5,2,E*%
%TO.N,GNDPWR*%
X165995713Y-120326069D03*
%TO.P,Q5,3,C*%
%TO.N,Net-(Q5-C)*%
X164120713Y-121276069D03*
%TD*%
D34*
%TO.P,K3,1*%
%TO.N,Net-(D15-A)*%
X109948213Y-93296069D03*
D35*
%TO.P,K3,4*%
%TO.N,Net-(J103-Pin_5)*%
X102328213Y-93296069D03*
%TO.P,K3,6*%
%TO.N,Net-(J103-Pin_6)*%
X97248213Y-93296069D03*
%TO.P,K3,8*%
%TO.N,Net-(J103-Pin_4)*%
X92168213Y-93296069D03*
%TO.P,K3,9*%
%TO.N,Net-(J103-Pin_1)*%
X92168213Y-100916069D03*
%TO.P,K3,11*%
%TO.N,Net-(J103-Pin_3)*%
X97248213Y-100916069D03*
%TO.P,K3,13*%
%TO.N,Net-(J103-Pin_2)*%
X102328213Y-100916069D03*
%TO.P,K3,16*%
%TO.N,Net-(D15-K)*%
X109948213Y-100916069D03*
%TD*%
D55*
%TO.P,C10,1*%
%TO.N,/R12*%
X139783213Y-82936069D03*
%TO.P,C10,2*%
%TO.N,CATHODE*%
X132283213Y-82936069D03*
%TD*%
D26*
%TO.P,R24,1*%
%TO.N,RESET-A*%
X106508213Y-127568569D03*
%TO.P,R24,2*%
%TO.N,+12V REG IN*%
X106508213Y-124643569D03*
%TD*%
D56*
%TO.P,C2,1*%
%TO.N,/+30V rail*%
X168228213Y-107906069D03*
%TO.P,C2,2*%
%TO.N,CATHODE*%
X168228213Y-112306069D03*
%TD*%
D12*
%TO.P,R9,1*%
%TO.N,CATHODE*%
X135580713Y-102631069D03*
%TO.P,R9,2*%
%TO.N,Net-(R9-Pad2)*%
X138505713Y-102631069D03*
%TD*%
D57*
%TO.P,RV1,1,1*%
%TO.N,Net-(R9-Pad2)*%
X144796213Y-106446069D03*
%TO.P,RV1,2,2*%
%TO.N,Net-(R7-Pad1)*%
X147336213Y-108986069D03*
%TO.P,RV1,3,3*%
%TO.N,Net-(C8-Pad1)*%
X149876213Y-106446069D03*
%TD*%
D58*
%TO.P,C17,1*%
%TO.N,Net-(D15-K)*%
X101810000Y-78602220D03*
D24*
%TO.P,C17,2*%
%TO.N,Net-(D15-A)*%
X101810000Y-86102220D03*
%TD*%
D30*
%TO.P,D17,1,K*%
%TO.N,PTT_L*%
X98888213Y-120996069D03*
D31*
%TO.P,D17,2,A*%
%TO.N,Net-(D15-A)*%
X98888213Y-110836069D03*
%TD*%
D12*
%TO.P,R16,1*%
%TO.N,Net-(R16-Pad1)*%
X145619713Y-81666069D03*
%TO.P,R16,2*%
%TO.N,Net-(BR1--)*%
X148544713Y-81666069D03*
%TD*%
D32*
%TO.P,VDR1,1*%
%TO.N,/R12*%
X144114213Y-88282069D03*
%TO.P,VDR1,2*%
%TO.N,CATHODE*%
X151614213Y-91182069D03*
%TD*%
D47*
%TO.P,U4,1,OUT*%
%TO.N,+5V*%
X127248213Y-82716069D03*
D48*
%TO.P,U4,2,GND*%
%TO.N,GNDPWR*%
X127160713Y-81216069D03*
D47*
%TO.P,U4,3,IN*%
%TO.N,+12V REG IN*%
X127248213Y-79716069D03*
%TD*%
D59*
%TO.P,C1,1*%
%TO.N,Net-(U1-ADJ)*%
X114128213Y-114966069D03*
%TO.P,C1,2*%
%TO.N,CATHODE*%
X114128213Y-109566069D03*
%TD*%
D28*
%TO.P,R1,1*%
%TO.N,Net-(U1-VI)*%
X121968213Y-117668569D03*
%TO.P,R1,2*%
%TO.N,Net-(U1-ADJ)*%
X121968213Y-120593569D03*
%TD*%
D57*
%TO.P,RV2,1,1*%
%TO.N,GNDPWR*%
X116658213Y-78866069D03*
%TO.P,RV2,2,2*%
X114118213Y-81406069D03*
%TO.P,RV2,3,3*%
%TO.N,Net-(R18-Pad1)*%
X116658213Y-83946069D03*
%TD*%
D10*
%TO.P,D2,1,K*%
%TO.N,Net-(D1-A)*%
X154663213Y-115896069D03*
D11*
%TO.P,D2,2,A*%
%TO.N,Net-(D2-A)*%
X159743213Y-115896069D03*
%TD*%
D24*
%TO.P,R8,1*%
%TO.N,Net-(C8-Pad1)*%
X162336213Y-100514069D03*
D25*
%TO.P,R8,2*%
%TO.N,Net-(LK3-A)*%
X162336213Y-95434069D03*
%TD*%
D60*
%TO.P,U3,1*%
%TO.N,Net-(BR1-+)*%
X134843213Y-92842069D03*
%TO.P,U3,2*%
%TO.N,Net-(R16-Pad1)*%
X134843213Y-90302069D03*
%TO.P,U3,3,NC*%
%TO.N,unconnected-(U3-NC-Pad3)*%
X134843213Y-87762069D03*
%TO.P,U3,4*%
%TO.N,Net-(R18-Pad2)*%
X125793213Y-87762069D03*
%TO.P,U3,5*%
%TO.N,+5V*%
X125793213Y-90302069D03*
%TO.P,U3,6*%
%TO.N,unconnected-(U3-Pad6)*%
X125793213Y-92842069D03*
%TD*%
D61*
%TO.N,GNDPWR*%
X165243213Y-129291069D03*
%TO.N,PTT_L*%
X114500000Y-120946069D03*
%TO.N,+12{slash}24V HV ENABLE*%
X130487874Y-126822126D03*
%TO.N,Net-(Q6-G)*%
X151400213Y-119258069D03*
%TO.N,Aux trip in*%
X146828213Y-126500000D03*
X123968213Y-69601069D03*
X139208213Y-126500000D03*
%TO.N,/Q2G*%
X138573213Y-121036069D03*
X164608213Y-105796069D03*
%TD*%
D62*
%TO.N,Net-(D7-K)*%
X166781213Y-101539569D02*
X165360431Y-101539569D01*
X165360431Y-101539569D02*
X162358931Y-104541069D01*
X162358931Y-104541069D02*
X159668213Y-104541069D01*
%TO.N,/Q2G*%
X164608213Y-105796069D02*
X165939713Y-104464569D01*
X165939713Y-104464569D02*
X167655431Y-104464569D01*
X167655431Y-104464569D02*
X170140000Y-101980000D01*
X170140000Y-101980000D02*
X170140000Y-100566782D01*
X170140000Y-100566782D02*
X173960713Y-96746069D01*
%TO.N,+12V REG IN*%
X110740000Y-120790000D02*
X106508213Y-124643569D01*
X125500000Y-77792856D02*
X126048213Y-78341069D01*
X110740000Y-105554282D02*
X110740000Y-120790000D01*
X126048213Y-78341069D02*
X126693213Y-78341069D01*
X126693213Y-78341069D02*
X128978213Y-80626069D01*
X128978213Y-93516069D02*
X110740000Y-105554282D01*
X128978213Y-80626069D02*
X128978213Y-93516069D01*
X110740000Y-120790000D02*
X115332213Y-125000000D01*
%TO.N,G1 trip in*%
X111398213Y-88436069D02*
X111398213Y-79911787D01*
X111398213Y-79911787D02*
X113509319Y-77800681D01*
X113509319Y-77800681D02*
X113509319Y-73013675D01*
D63*
X120118213Y-69506069D02*
X116888213Y-72736069D01*
X116888213Y-72736069D02*
X113676069Y-72736069D01*
X113676069Y-72736069D02*
X101500000Y-60560000D01*
X101500000Y-60560000D02*
X101500000Y-50287856D01*
X101500000Y-50287856D02*
X97398213Y-46186069D01*
D64*
%TO.N,+12V REG IN*%
X125500000Y-77792856D02*
X125500000Y-68500000D01*
X116433782Y-70670000D02*
X113988144Y-70670000D01*
X113988144Y-70670000D02*
X104500000Y-61181856D01*
X122176069Y-65176069D02*
X118463213Y-65176069D01*
X118463213Y-65176069D02*
X118463213Y-68640569D01*
X125500000Y-68500000D02*
X122176069Y-65176069D01*
X118463213Y-68640569D02*
X116433782Y-70670000D01*
X104500000Y-61181856D02*
X104500000Y-48632482D01*
X104500000Y-48632482D02*
X106946413Y-46186069D01*
X106946413Y-46186069D02*
X107558213Y-46186069D01*
D65*
%TO.N,G2 UNREG IN*%
X165068213Y-47696069D02*
X169420000Y-52047856D01*
X169420000Y-53920000D02*
X173128877Y-57628877D01*
X169420000Y-52047856D02*
X169420000Y-53920000D01*
%TO.N,/R12*%
X150892213Y-61124569D02*
X154887644Y-65120000D01*
X154887644Y-65120000D02*
X158806930Y-65120000D01*
X158806930Y-65120000D02*
X165068213Y-58858717D01*
X165068213Y-58858717D02*
X165068213Y-52776069D01*
D62*
%TO.N,Net-(D14-A)*%
X129413213Y-57806069D02*
X133830000Y-53750000D01*
D63*
%TO.N,PTT_L*%
X127000000Y-66847856D02*
X127000000Y-73267856D01*
D65*
%TO.N,G2 UNREG IN*%
X132260000Y-49952500D02*
X122830000Y-50000000D01*
X147556616Y-49250000D02*
X132260000Y-49952500D01*
X122830000Y-50000000D02*
X117718213Y-46186069D01*
D63*
%TO.N,PTT_L*%
X127000000Y-66847856D02*
X124180000Y-62860000D01*
X124180000Y-62860000D02*
X120430000Y-62750000D01*
D62*
%TO.N,Net-(D14-A)*%
X124206579Y-57806069D02*
X120490000Y-54490000D01*
X120490000Y-54490000D02*
X120430000Y-52590000D01*
D63*
%TO.N,+5V*%
X127648213Y-85456069D02*
X127468213Y-85276069D01*
X127248213Y-83896069D02*
X127248213Y-82716069D01*
X127468213Y-84116069D02*
X127248213Y-83896069D01*
X127468213Y-85276069D02*
X127468213Y-84116069D01*
X125793213Y-90302069D02*
X127648213Y-88447069D01*
X125953213Y-85226069D02*
X127418213Y-85226069D01*
X127418213Y-85226069D02*
X127468213Y-85276069D01*
X127648213Y-88447069D02*
X127648213Y-85456069D01*
D62*
%TO.N,GNDPWR*%
X105998213Y-115456069D02*
X108498213Y-112956069D01*
D64*
X178648695Y-139351305D02*
X175024074Y-139351305D01*
D62*
X110940000Y-95920000D02*
X113693931Y-91306069D01*
D64*
X102478213Y-46186069D02*
X102478213Y-40670069D01*
X179057678Y-120326069D02*
X179367449Y-120016298D01*
D62*
X121428213Y-86801069D02*
X123003213Y-85226069D01*
D66*
X102298213Y-122256069D02*
X102298213Y-120181069D01*
D64*
X179356918Y-86335411D02*
X179356918Y-83207411D01*
X174970756Y-83099833D02*
X179249340Y-83099833D01*
D66*
X84344213Y-40560069D02*
X84344213Y-44074069D01*
X171762213Y-40560069D02*
X175022213Y-43820069D01*
D64*
X116658213Y-78866069D02*
X114118213Y-81406069D01*
X179249340Y-83099833D02*
X179356918Y-83207411D01*
D62*
X113693931Y-91306069D02*
X119074355Y-91306069D01*
D64*
X179360941Y-138639059D02*
X178648695Y-139351305D01*
X102478213Y-40670069D02*
X102468213Y-40660069D01*
D62*
X108498213Y-112956069D02*
X108190000Y-98820000D01*
D64*
X165243213Y-129291069D02*
X165463213Y-129511069D01*
X178070213Y-40772069D02*
X175022213Y-43820069D01*
X116658213Y-75667641D02*
X116658213Y-78866069D01*
D62*
X105958213Y-116314927D02*
X105958213Y-115456067D01*
D64*
X175024074Y-139351305D02*
X175019231Y-139346462D01*
D62*
X122500000Y-77127056D02*
X122500000Y-72046069D01*
X126113213Y-81216069D02*
X127160713Y-81216069D01*
D64*
X165463213Y-128021069D02*
X165463213Y-129071069D01*
X165463213Y-129511069D02*
X165463213Y-130398569D01*
X165463213Y-130398569D02*
X165800713Y-130736069D01*
D62*
X123003213Y-85226069D02*
X123003213Y-84326069D01*
X108190000Y-98820000D02*
X110940000Y-95920000D01*
D64*
X178070213Y-40772069D02*
X179367449Y-42069305D01*
D62*
X123003213Y-84326069D02*
X126113213Y-81216069D01*
D64*
X165463213Y-129071069D02*
X165243213Y-129291069D01*
D62*
X127160713Y-81216069D02*
X126589013Y-81216069D01*
X126589013Y-81216069D02*
X122500000Y-77127056D01*
D66*
X99584213Y-138762249D02*
X99000000Y-139346462D01*
D64*
X120279785Y-72046069D02*
X116658213Y-75667641D01*
D66*
X84344213Y-40560069D02*
X171762213Y-40560069D01*
D62*
X119074355Y-91306069D02*
X121428213Y-88952211D01*
D64*
X179360941Y-86520392D02*
X179360941Y-138639059D01*
D66*
X99584213Y-124970069D02*
X99584213Y-138762249D01*
D64*
X175019231Y-139346462D02*
X99000000Y-139346462D01*
D62*
X121428213Y-88952211D02*
X121428213Y-86801069D01*
D66*
X80576213Y-40560069D02*
X84344213Y-40560069D01*
X84344213Y-138308069D02*
X84344213Y-135006069D01*
D62*
X105958213Y-116441069D02*
X105958213Y-115456069D01*
D66*
X80576213Y-137588069D02*
X80576213Y-40560069D01*
D64*
X120558213Y-72046069D02*
X122500000Y-72046069D01*
D66*
X82334606Y-139346462D02*
X80576213Y-137588069D01*
D64*
X120558213Y-72046069D02*
X120279785Y-72046069D01*
X165995713Y-120326069D02*
X179057678Y-120326069D01*
D66*
X81296213Y-138308069D02*
X80576213Y-137588069D01*
X102298213Y-122256069D02*
X99584213Y-124970069D01*
D64*
X178436213Y-40772069D02*
X178070213Y-40772069D01*
D66*
X84344213Y-138308069D02*
X81296213Y-138308069D01*
D64*
X179367449Y-120016298D02*
X179367449Y-121000000D01*
X179367449Y-42069305D02*
X179367449Y-82500000D01*
D62*
X102258213Y-120141069D02*
X105958213Y-116441069D01*
D66*
X99000000Y-139346462D02*
X82334606Y-139346462D01*
D65*
%TO.N,Net-(BR1-+)*%
X145923704Y-92842069D02*
X140224213Y-92842069D01*
D62*
X134843213Y-92842069D02*
X136414213Y-92842069D01*
D67*
X136414213Y-92842069D02*
X140224213Y-92842069D01*
D65*
X153821213Y-86848069D02*
X153821213Y-86594069D01*
X151917704Y-86848069D02*
X145923704Y-92842069D01*
X153821213Y-86848069D02*
X151917704Y-86848069D01*
X153821213Y-86594069D02*
X156717213Y-83698069D01*
X162322213Y-83805069D02*
X157078213Y-83805069D01*
D62*
X158618747Y-82050535D02*
X158618747Y-75824069D01*
X158618747Y-82050535D02*
X158364747Y-82050535D01*
X158364747Y-82050535D02*
X156717213Y-83698069D01*
D63*
%TO.N,Net-(D11-K)*%
X152550000Y-125862069D02*
X153911713Y-125862069D01*
X151810000Y-125790000D02*
X152477931Y-125790000D01*
X152477931Y-125790000D02*
X152550000Y-125862069D01*
X152510213Y-131704069D02*
X152510213Y-125901856D01*
X152510213Y-125901856D02*
X152550000Y-125862069D01*
D62*
%TO.N,+Ig2*%
X165820213Y-78141569D02*
X166132213Y-78453569D01*
D65*
X161132679Y-72288535D02*
X155083213Y-72288535D01*
X162322213Y-76078069D02*
X162322213Y-73478069D01*
X162322213Y-73478069D02*
X161132679Y-72288535D01*
D62*
X165820213Y-75978069D02*
X165820213Y-78141569D01*
D65*
X162373013Y-76078069D02*
X165720213Y-76078069D01*
D62*
X170019833Y-78019833D02*
X174970756Y-78019833D01*
X165820213Y-75978069D02*
X167978069Y-75978069D01*
X167978069Y-75978069D02*
X170019833Y-78019833D01*
D65*
%TO.N,Net-(BR1--)*%
X151637213Y-81412069D02*
X151637213Y-75913603D01*
X151637213Y-83698069D02*
X151637213Y-81412069D01*
X148544713Y-81666069D02*
X151383213Y-81666069D01*
X151383213Y-81666069D02*
X151637213Y-81412069D01*
D63*
%TO.N,Net-(U1-ADJ)*%
X118888213Y-113218569D02*
X118888213Y-117513569D01*
X118888213Y-113218569D02*
X114128213Y-114966069D01*
X123275713Y-121901069D02*
X128458213Y-121901069D01*
X121968213Y-120593569D02*
X123275713Y-121901069D01*
X118888213Y-117513569D02*
X121968213Y-120593569D01*
D62*
%TO.N,Net-(D14-A)*%
X124206579Y-57806069D02*
X129413213Y-57806069D01*
D63*
%TO.N,PTT_L*%
X112320000Y-107334282D02*
X130260213Y-94564069D01*
X130260213Y-76528069D02*
X130260213Y-94564069D01*
X112320000Y-118766069D02*
X114500000Y-120946069D01*
X112320000Y-107334282D02*
X112320000Y-118766069D01*
X127000000Y-73267856D02*
X130260213Y-76528069D01*
D62*
%TO.N,ALARM_LED_CATHODE*%
X135428213Y-137230000D02*
X136405000Y-136253213D01*
X105172213Y-133946069D02*
X108456144Y-137230000D01*
X136405000Y-136253213D02*
X136405000Y-133500000D01*
X108456144Y-137230000D02*
X135428213Y-137230000D01*
%TO.N,CATHODE*%
X135580713Y-102631069D02*
X135580713Y-100279569D01*
D64*
X142588213Y-100208069D02*
X144200213Y-98596069D01*
X132858213Y-100208069D02*
X135652213Y-100208069D01*
X144200213Y-98596069D02*
X151614213Y-91182069D01*
D62*
X135580713Y-100279569D02*
X135652213Y-100208069D01*
D64*
X163878213Y-116341069D02*
X165640713Y-116341069D01*
X157768213Y-104541069D02*
X144200213Y-98596069D01*
X158780213Y-112908069D02*
X155748213Y-109876069D01*
X168228213Y-112306069D02*
X168228213Y-113753569D01*
X117968369Y-107018369D02*
X114128213Y-109566069D01*
X123287439Y-60076069D02*
X112638213Y-49426843D01*
X169238213Y-111296069D02*
X168228213Y-112306069D01*
X163878213Y-116341069D02*
X160445213Y-112908069D01*
D62*
X141113213Y-100589069D02*
X140732213Y-100208069D01*
D64*
X135652213Y-100208069D02*
X140732213Y-100208069D01*
X128233554Y-100208069D02*
X117968369Y-107018369D01*
X132403213Y-63311069D02*
X129168213Y-60076069D01*
X112638213Y-49426843D02*
X112638213Y-46186069D01*
D62*
X132985213Y-100335069D02*
X132858213Y-100208069D01*
D64*
X168228213Y-113753569D02*
X166315713Y-115666069D01*
X129168213Y-60076069D02*
X123287439Y-60076069D01*
X160445213Y-112908069D02*
X158780213Y-112908069D01*
D62*
X132985213Y-102416069D02*
X132985213Y-100335069D01*
D64*
X140732213Y-100208069D02*
X142588213Y-100208069D01*
D62*
X141113213Y-103510069D02*
X141113213Y-100589069D01*
D64*
X155748213Y-106561069D02*
X157768213Y-104541069D01*
D63*
X118605713Y-108166069D02*
X117968369Y-107018369D01*
D64*
X128233554Y-100208069D02*
X132858213Y-100208069D01*
X155748213Y-109876069D02*
X155748213Y-106561069D01*
X174693213Y-111296069D02*
X169238213Y-111296069D01*
X165640713Y-116341069D02*
X166315713Y-115666069D01*
X114128213Y-109566069D02*
X118888213Y-110293569D01*
D62*
X125863213Y-102377723D02*
X125863213Y-108346069D01*
D63*
%TO.N,Net-(Q5-B)*%
X165407713Y-122814069D02*
X165995713Y-122226069D01*
X165995713Y-122226069D02*
X170040000Y-123302500D01*
X158512213Y-122814069D02*
X157810000Y-123837500D01*
X158512213Y-122814069D02*
X165407713Y-122814069D01*
%TO.N,Net-(Q5-C)*%
X162120713Y-121156069D02*
X164000713Y-121156069D01*
X164000713Y-121156069D02*
X164120713Y-121276069D01*
%TO.N,Net-(R18-Pad1)*%
X119985713Y-88036069D02*
X117190713Y-88036069D01*
X116658213Y-87658213D02*
X117000000Y-88000000D01*
X116658213Y-83946069D02*
X119985713Y-87273569D01*
X116658213Y-83946069D02*
X116658213Y-87658213D01*
X119985713Y-87273569D02*
X119985713Y-88036069D01*
X117190713Y-88036069D02*
X116630713Y-88596069D01*
%TO.N,Net-(R18-Pad2)*%
X122910713Y-88036069D02*
X125519213Y-88036069D01*
X125519213Y-88036069D02*
X125793213Y-87762069D01*
D64*
%TO.N,/+30V rail*%
X130078213Y-120481069D02*
X129169239Y-120481069D01*
X144796213Y-118242069D02*
X144796213Y-122052069D01*
X143457213Y-123391069D02*
X132988213Y-123391069D01*
X142759231Y-117401069D02*
X143955213Y-117401069D01*
X142759231Y-116195051D02*
X144268213Y-114686069D01*
X175618213Y-113836069D02*
X174693213Y-113836069D01*
X144796213Y-122052069D02*
X143457213Y-123391069D01*
X130943213Y-115966069D02*
X133210713Y-118233569D01*
X176673213Y-112781069D02*
X175618213Y-113836069D01*
X133210713Y-118233569D02*
X134125481Y-118233569D01*
X168228213Y-107906069D02*
X174069539Y-107906069D01*
X134125481Y-118233569D02*
X134957981Y-117401069D01*
X173960713Y-101826069D02*
X173960713Y-107797243D01*
X174069539Y-107906069D02*
X176673213Y-110509743D01*
X142759231Y-117401069D02*
X142759231Y-116195051D01*
X134957981Y-117401069D02*
X142759231Y-117401069D01*
X141285481Y-111291069D02*
X144268213Y-114273801D01*
X143955213Y-117401069D02*
X144796213Y-118242069D01*
X132988213Y-123391069D02*
X130078213Y-120481069D01*
X176673213Y-110509743D02*
X176673213Y-112781069D01*
X168228213Y-107906069D02*
X163878213Y-112256069D01*
X163878213Y-112256069D02*
X163878213Y-113391069D01*
X173960713Y-107797243D02*
X174069539Y-107906069D01*
D63*
%TO.N,Net-(D3-K)*%
X128403213Y-115966069D02*
X125218213Y-112781069D01*
X121721069Y-112781069D02*
X120705713Y-111765713D01*
X128403213Y-115966069D02*
X132400713Y-119963569D01*
X138356963Y-118933569D02*
X141621963Y-118933569D01*
X136446963Y-119131069D02*
X138159463Y-119131069D01*
X138159463Y-119131069D02*
X138356963Y-118933569D01*
X135614463Y-119963569D02*
X136446963Y-119131069D01*
X132400713Y-119963569D02*
X135614463Y-119963569D01*
X120705713Y-111765713D02*
X120705713Y-108166069D01*
X125218213Y-112781069D02*
X121721069Y-112781069D01*
%TO.N,Net-(C5-Pad1)*%
X136287213Y-107381069D02*
X136287213Y-110048569D01*
%TO.N,Net-(C5-Pad2)*%
X135808213Y-105542069D02*
X133004213Y-108346069D01*
%TO.N,Net-(D4-A)*%
X139208213Y-105796069D02*
X139208213Y-107481069D01*
X131633213Y-103098481D02*
X132150000Y-103790000D01*
X129130213Y-102666069D02*
X131200801Y-102666069D01*
X128403213Y-108346069D02*
X128403213Y-104221069D01*
X140986213Y-107481069D02*
X139208213Y-107481069D01*
X128403213Y-103393069D02*
X129130213Y-102666069D01*
X138573213Y-109413569D02*
X138573213Y-107481069D01*
X141113213Y-109191069D02*
X141113213Y-107481069D01*
X134240000Y-104180000D02*
X137876072Y-104463928D01*
X128403213Y-108346069D02*
X128403213Y-103393069D01*
X138573213Y-107481069D02*
X139208213Y-107481069D01*
X132150000Y-103790000D02*
X134240000Y-104180000D01*
X141113213Y-107354069D02*
X140986213Y-107481069D01*
X128403213Y-104221069D02*
X128733213Y-103891069D01*
X139208213Y-105796069D02*
X137876072Y-104463928D01*
X141113213Y-105610069D02*
X141113213Y-107354069D01*
X141113213Y-107481069D02*
X140986213Y-107481069D01*
X131200801Y-102666069D02*
X131633213Y-103098481D01*
%TO.N,Net-(U2--)*%
X130943213Y-107408069D02*
X132985213Y-105366069D01*
X130943213Y-108346069D02*
X129510000Y-110380000D01*
X130633213Y-103891069D02*
X132985213Y-105366069D01*
X129510000Y-110380000D02*
X122698213Y-111318569D01*
X130943213Y-108346069D02*
X130943213Y-107408069D01*
D62*
%TO.N,Net-(D7-K)*%
X159668213Y-102866069D02*
X157518213Y-100716069D01*
D63*
X161052213Y-105925069D02*
X160828213Y-105701069D01*
X160828213Y-105701069D02*
X161248377Y-105701069D01*
D62*
X160828213Y-105701069D02*
X159668213Y-104541069D01*
X159668213Y-104541069D02*
X159668213Y-102866069D01*
X161052213Y-109652069D02*
X161052213Y-105925069D01*
%TO.N,+12V REG IN*%
X115332213Y-126466069D02*
X115332213Y-125000000D01*
D63*
X155210000Y-130500000D02*
X155210000Y-133474069D01*
D64*
X147804069Y-133474069D02*
X155210000Y-133474069D01*
X144880000Y-130550000D02*
X147804069Y-133474069D01*
D63*
X160213213Y-128321069D02*
X157388931Y-128321069D01*
D62*
X106488213Y-125013569D02*
X102490713Y-125013569D01*
D64*
X147756431Y-123243569D02*
X144880000Y-126120000D01*
X155210000Y-133474069D02*
X166902213Y-133474069D01*
D62*
X143440261Y-125000000D02*
X115332213Y-125000000D01*
D64*
X120412213Y-133946069D02*
X115332213Y-126466069D01*
D63*
X154218213Y-123243569D02*
X154218213Y-121313569D01*
D64*
X144880000Y-126120000D02*
X144880000Y-130550000D01*
X154218213Y-123243569D02*
X147756431Y-123243569D01*
D62*
X165463213Y-124211069D02*
X166983679Y-124211069D01*
D64*
X168000000Y-125227390D02*
X168000000Y-132376282D01*
D62*
X144556330Y-126116069D02*
X143440261Y-125000000D01*
D63*
X157388931Y-128321069D02*
X155210000Y-130500000D01*
X160513213Y-128021069D02*
X160213213Y-128321069D01*
D64*
X166902213Y-133474069D02*
X168000000Y-132376282D01*
X166983679Y-124211069D02*
X168000000Y-125227390D01*
D63*
%TO.N,G1 trip in*%
X111558213Y-88596069D02*
X111398213Y-88436069D01*
D62*
X102238213Y-117171069D02*
X102238213Y-104186069D01*
X105418213Y-101006069D02*
X105418213Y-94416069D01*
X102238213Y-104186069D02*
X105418213Y-101006069D01*
D63*
X113705713Y-88596069D02*
X111558213Y-88596069D01*
D62*
X105418213Y-94416069D02*
X111398213Y-88436069D01*
D63*
%TO.N,Net-(U5-THR)*%
X162510603Y-125481069D02*
X160513213Y-125481069D01*
X165463213Y-126751069D02*
X163780603Y-126751069D01*
X162875713Y-127655959D02*
X162875713Y-130736069D01*
X163780603Y-126751069D02*
X162510603Y-125481069D01*
X162875713Y-130736069D02*
X161907713Y-131704069D01*
X163780603Y-126751069D02*
X162875713Y-127655959D01*
X161907713Y-131704069D02*
X157910213Y-131704069D01*
D65*
%TO.N,-Ig2*%
X159960000Y-68300000D02*
X161765713Y-66494287D01*
X166132213Y-81378569D02*
X166132213Y-82860069D01*
X129503213Y-70811069D02*
X141748213Y-78131069D01*
X151579282Y-68300000D02*
X159960000Y-68300000D01*
X141748213Y-78131069D02*
X151579282Y-68300000D01*
X161765713Y-66474569D02*
X162322213Y-65918069D01*
X166132213Y-82860069D02*
X166708213Y-83436069D01*
X162373013Y-65918069D02*
X165720213Y-65918069D01*
X161765713Y-66494287D02*
X161765713Y-66474569D01*
D62*
%TO.N,+12{slash}24V HV ENABLE*%
X130487874Y-126822126D02*
X130572213Y-126906465D01*
X130572213Y-126906465D02*
X130572213Y-133946069D01*
D65*
%TO.N,G2 UNREG IN*%
X163868213Y-46496069D02*
X150310547Y-46496069D01*
X150310547Y-46496069D02*
X147556616Y-49250000D01*
X165068213Y-47696069D02*
X163868213Y-46496069D01*
D63*
%TO.N,Net-(D2-A)*%
X166410713Y-118496069D02*
X169240713Y-115666069D01*
X169950713Y-116376069D02*
X174693213Y-116376069D01*
X159743213Y-115896069D02*
X162343213Y-118496069D01*
X169240713Y-115666069D02*
X169950713Y-116376069D01*
X162343213Y-118496069D02*
X166410713Y-118496069D01*
%TO.N,Net-(Q6-G)*%
X157340713Y-121116069D02*
X155482713Y-119258069D01*
X155482713Y-119258069D02*
X151400213Y-119258069D01*
X157340713Y-121116069D02*
X159155713Y-121116069D01*
D64*
%TO.N,Net-(U1-VI)*%
X121968213Y-114973569D02*
X122698213Y-114243569D01*
X121968213Y-117668569D02*
X122864213Y-118564569D01*
X121968213Y-117668569D02*
X121968213Y-114973569D01*
X122864213Y-118564569D02*
X128458213Y-118564569D01*
D63*
%TO.N,Net-(U2-FC)*%
X133483213Y-115777569D02*
X136287213Y-112973569D01*
%TO.N,Net-(R7-Pad1)*%
X140278213Y-110071069D02*
X146251213Y-110071069D01*
X146251213Y-110071069D02*
X147336213Y-108986069D01*
X138573213Y-112338569D02*
X138573213Y-111731069D01*
X138573213Y-112338569D02*
X138573213Y-111776069D01*
X138573213Y-111776069D02*
X140278213Y-110071069D01*
D62*
%TO.N,Net-(LK3-A)*%
X165641213Y-98684069D02*
X162576213Y-95619069D01*
X165641213Y-98684069D02*
X166700213Y-98684069D01*
D63*
%TO.N,Net-(R9-Pad2)*%
X144711213Y-106531069D02*
X142706213Y-104526069D01*
X140400713Y-104526069D02*
X138505713Y-102631069D01*
X140400713Y-104526069D02*
X142706213Y-104526069D01*
D65*
%TO.N,Net-(R16-Pad1)*%
X138073704Y-90292069D02*
X145619713Y-82746060D01*
X134853213Y-90292069D02*
X138073704Y-90292069D01*
X145619713Y-82746060D02*
X145619713Y-81666069D01*
X134843213Y-90302069D02*
X134853213Y-90292069D01*
D63*
%TO.N,Aux trip in*%
X157810000Y-126762500D02*
X155607500Y-124560000D01*
X148768213Y-124560000D02*
X146828213Y-126500000D01*
D62*
X141485000Y-133500000D02*
X139190000Y-131205000D01*
X139190000Y-131205000D02*
X139190000Y-126518213D01*
D63*
X123968213Y-69601069D02*
X123193213Y-69601069D01*
X123193213Y-69601069D02*
X120558213Y-66966069D01*
D62*
X139190000Y-126518213D02*
X139208213Y-126500000D01*
D63*
X158713554Y-126751069D02*
X160513213Y-126751069D01*
X155607500Y-124560000D02*
X148768213Y-124560000D01*
D64*
%TO.N,Net-(D1-A)*%
X149348213Y-114686069D02*
X153453213Y-114686069D01*
X153453213Y-114686069D02*
X154663213Y-115896069D01*
D62*
%TO.N,RESET-A*%
X112792213Y-126926069D02*
X112792213Y-126466069D01*
X106508213Y-127568569D02*
X107439644Y-128500000D01*
X112792213Y-126466069D02*
X115332213Y-133946069D01*
X102962500Y-127500000D02*
X106439644Y-127500000D01*
X106439644Y-127500000D02*
X106508213Y-127568569D01*
X111218282Y-128500000D02*
X112792213Y-126926069D01*
X107439644Y-128500000D02*
X111218282Y-128500000D01*
D63*
%TO.N,Net-(D15-K)*%
X114643213Y-96221069D02*
X114643213Y-93716069D01*
X109948213Y-100916069D02*
X114643213Y-96221069D01*
D64*
X101828213Y-78526069D02*
X110358213Y-74636069D01*
D63*
%TO.N,Net-(D15-A)*%
X109948213Y-93296069D02*
X113273213Y-89971069D01*
X115398213Y-83006069D02*
X120518213Y-77886069D01*
X115398213Y-89101787D02*
X115398213Y-83006069D01*
X114528931Y-89971069D02*
X115398213Y-89101787D01*
X113273213Y-89971069D02*
X114528931Y-89971069D01*
X120518213Y-77886069D02*
X120518213Y-74636069D01*
%TO.N,/Q2G*%
X136446963Y-121031069D02*
X138568213Y-121031069D01*
X138568213Y-121031069D02*
X138573213Y-121036069D01*
X138573213Y-121036069D02*
X138578213Y-121031069D01*
X138578213Y-121031069D02*
X140794463Y-121031069D01*
X140794463Y-121031069D02*
X141621963Y-121858569D01*
D62*
%TO.N,Net-(D12-K)*%
X114062213Y-65156069D02*
X115515213Y-65156069D01*
X106950213Y-58044069D02*
X114062213Y-65156069D01*
%TD*%
%TA.AperFunction,Conductor*%
%TO.N,GNDPWR*%
G36*
X88097252Y-40029754D02*
G01*
X88143007Y-40082558D01*
X88154213Y-40134069D01*
X88154213Y-48014069D01*
X88134528Y-48081108D01*
X88081724Y-48126863D01*
X88030213Y-48138069D01*
X80331575Y-48138069D01*
X80264536Y-48118384D01*
X80243894Y-48101750D01*
X80062532Y-47920388D01*
X80029047Y-47859065D01*
X80026213Y-47832707D01*
X80026213Y-40134069D01*
X80045898Y-40067030D01*
X80098702Y-40021275D01*
X80150213Y-40010069D01*
X88030213Y-40010069D01*
X88097252Y-40029754D01*
G37*
%TD.AperFunction*%
%TD*%
%TA.AperFunction,Conductor*%
%TO.N,GNDPWR*%
G36*
X88859252Y-131146326D02*
G01*
X88905007Y-131199130D01*
X88916213Y-131250641D01*
X88916213Y-139877305D01*
X88896528Y-139944344D01*
X88843724Y-139990099D01*
X88792213Y-140001305D01*
X80150213Y-140001305D01*
X80083174Y-139981620D01*
X80037419Y-139928816D01*
X80026213Y-139877305D01*
X80026213Y-131250641D01*
X80045898Y-131183602D01*
X80098702Y-131137847D01*
X80150213Y-131126641D01*
X88792213Y-131126641D01*
X88859252Y-131146326D01*
G37*
%TD.AperFunction*%
%TD*%
%TA.AperFunction,Conductor*%
%TO.N,GNDPWR*%
G36*
X179029252Y-40029754D02*
G01*
X179075007Y-40082558D01*
X179086213Y-40134069D01*
X179086213Y-48268069D01*
X179066528Y-48335108D01*
X179013724Y-48380863D01*
X178962213Y-48392069D01*
X173052235Y-48392069D01*
X172985196Y-48372384D01*
X172963510Y-48354694D01*
X169723488Y-45036130D01*
X169690740Y-44974410D01*
X169688213Y-44949505D01*
X169688213Y-40134069D01*
X169707898Y-40067030D01*
X169760702Y-40021275D01*
X169812213Y-40010069D01*
X178962213Y-40010069D01*
X179029252Y-40029754D01*
G37*
%TD.AperFunction*%
%TD*%
%TA.AperFunction,Conductor*%
%TO.N,GNDPWR*%
G36*
X179960488Y-130453754D02*
G01*
X180006243Y-130506558D01*
X180017449Y-130558069D01*
X180017449Y-139877305D01*
X179997764Y-139944344D01*
X179944960Y-139990099D01*
X179893449Y-140001305D01*
X171590213Y-140001305D01*
X171523174Y-139981620D01*
X171477419Y-139928816D01*
X171466213Y-139877305D01*
X171466213Y-136000002D01*
X172695153Y-136000002D01*
X172714526Y-136357314D01*
X172714527Y-136357331D01*
X172772415Y-136710431D01*
X172772421Y-136710457D01*
X172868147Y-137055232D01*
X172868149Y-137055239D01*
X173000597Y-137387659D01*
X173000606Y-137387677D01*
X173168218Y-137703827D01*
X173369024Y-137999994D01*
X173369035Y-138000008D01*
X173496441Y-138150002D01*
X173496442Y-138150002D01*
X174705747Y-136940697D01*
X174779588Y-137042330D01*
X174957670Y-137220412D01*
X175059300Y-137294251D01*
X173847257Y-138506294D01*
X173860495Y-138518836D01*
X174145367Y-138735388D01*
X174145370Y-138735390D01*
X174451990Y-138919876D01*
X174776739Y-139070122D01*
X174776744Y-139070123D01*
X175115855Y-139184383D01*
X175465339Y-139261311D01*
X175821075Y-139299999D01*
X175821085Y-139300000D01*
X176178915Y-139300000D01*
X176178924Y-139299999D01*
X176534660Y-139261311D01*
X176884144Y-139184383D01*
X177223255Y-139070123D01*
X177223260Y-139070122D01*
X177548009Y-138919876D01*
X177854629Y-138735390D01*
X177854632Y-138735388D01*
X178139509Y-138518831D01*
X178152742Y-138506295D01*
X178152742Y-138506294D01*
X176940699Y-137294251D01*
X177042330Y-137220412D01*
X177220412Y-137042330D01*
X177294252Y-136940698D01*
X178503556Y-138150002D01*
X178630972Y-137999998D01*
X178630975Y-137999994D01*
X178831781Y-137703827D01*
X178999393Y-137387677D01*
X178999402Y-137387659D01*
X179131850Y-137055239D01*
X179131852Y-137055232D01*
X179227578Y-136710457D01*
X179227584Y-136710431D01*
X179285472Y-136357331D01*
X179285473Y-136357314D01*
X179304847Y-136000002D01*
X179304847Y-135999997D01*
X179285473Y-135642685D01*
X179285472Y-135642668D01*
X179227584Y-135289568D01*
X179227578Y-135289542D01*
X179131852Y-134944767D01*
X179131850Y-134944760D01*
X178999402Y-134612340D01*
X178999393Y-134612322D01*
X178831781Y-134296172D01*
X178630975Y-134000005D01*
X178630964Y-133999991D01*
X178503556Y-133849996D01*
X177294251Y-135059300D01*
X177220412Y-134957670D01*
X177042330Y-134779588D01*
X176940698Y-134705748D01*
X178152742Y-133493704D01*
X178139504Y-133481163D01*
X177854632Y-133264611D01*
X177854629Y-133264609D01*
X177548009Y-133080123D01*
X177223260Y-132929877D01*
X177223255Y-132929876D01*
X176884144Y-132815616D01*
X176534660Y-132738688D01*
X176178924Y-132700000D01*
X175821075Y-132700000D01*
X175465339Y-132738688D01*
X175115855Y-132815616D01*
X174776744Y-132929876D01*
X174776739Y-132929877D01*
X174451990Y-133080123D01*
X174145370Y-133264609D01*
X174145367Y-133264611D01*
X173860486Y-133481170D01*
X173860485Y-133481171D01*
X173847257Y-133493702D01*
X173847256Y-133493703D01*
X175059301Y-134705748D01*
X174957670Y-134779588D01*
X174779588Y-134957670D01*
X174705748Y-135059301D01*
X173496442Y-133849995D01*
X173496441Y-133849996D01*
X173369033Y-133999992D01*
X173168218Y-134296172D01*
X173000606Y-134612322D01*
X173000597Y-134612340D01*
X172868149Y-134944760D01*
X172868147Y-134944767D01*
X172772421Y-135289542D01*
X172772415Y-135289568D01*
X172714527Y-135642668D01*
X172714526Y-135642685D01*
X172695153Y-135999997D01*
X172695153Y-136000002D01*
X171466213Y-136000002D01*
X171466213Y-130558069D01*
X171485898Y-130491030D01*
X171538702Y-130445275D01*
X171590213Y-130434069D01*
X179893449Y-130434069D01*
X179960488Y-130453754D01*
G37*
%TD.AperFunction*%
%TD*%
D68*
X80026213Y-40010069D02*
X180017449Y-40010069D01*
X180017449Y-140001305D01*
X80026213Y-140001305D01*
X80026213Y-40010069D01*
M02*
