%TF.GenerationSoftware,KiCad,Pcbnew,8.0.0*%
%TF.CreationDate,2024-02-29T13:53:57+01:00*%
%TF.ProjectId,G2-Control,47322d43-6f6e-4747-926f-6c2e6b696361,rev?*%
%TF.SameCoordinates,Original*%
%TF.FileFunction,Soldermask,Bot*%
%TF.FilePolarity,Negative*%
%FSLAX46Y46*%
G04 Gerber Fmt 4.6, Leading zero omitted, Abs format (unit mm)*
G04 Created by KiCad (PCBNEW 8.0.0) date 2024-02-29 13:53:57*
%MOMM*%
%LPD*%
G01*
G04 APERTURE LIST*
G04 Aperture macros list*
%AMRoundRect*
0 Rectangle with rounded corners*
0 $1 Rounding radius*
0 $2 $3 $4 $5 $6 $7 $8 $9 X,Y pos of 4 corners*
0 Add a 4 corners polygon primitive as box body*
4,1,4,$2,$3,$4,$5,$6,$7,$8,$9,$2,$3,0*
0 Add four circle primitives for the rounded corners*
1,1,$1+$1,$2,$3*
1,1,$1+$1,$4,$5*
1,1,$1+$1,$6,$7*
1,1,$1+$1,$8,$9*
0 Add four rect primitives between the rounded corners*
20,1,$1+$1,$2,$3,$4,$5,0*
20,1,$1+$1,$4,$5,$6,$7,0*
20,1,$1+$1,$6,$7,$8,$9,0*
20,1,$1+$1,$8,$9,$2,$3,0*%
%AMHorizOval*
0 Thick line with rounded ends*
0 $1 width*
0 $2 $3 position (X,Y) of the first rounded end (center of the circle)*
0 $4 $5 position (X,Y) of the second rounded end (center of the circle)*
0 Add line between two ends*
20,1,$1,$2,$3,$4,$5,0*
0 Add two circle primitives to create the rounded ends*
1,1,$1,$2,$3*
1,1,$1,$4,$5*%
%AMRotRect*
0 Rectangle, with rotation*
0 The origin of the aperture is its center*
0 $1 length*
0 $2 width*
0 $3 Rotation angle, in degrees counterclockwise*
0 Add horizontal line*
21,1,$1,$2,0,0,$3*%
G04 Aperture macros list end*
%ADD10C,1.200000*%
%ADD11R,2.600000X2.600000*%
%ADD12O,2.600000X2.600000*%
%ADD13R,2.000000X1.905000*%
%ADD14O,2.000000X1.905000*%
%ADD15C,1.600000*%
%ADD16O,1.600000X1.600000*%
%ADD17C,5.600000*%
%ADD18R,1.500000X1.500000*%
%ADD19C,1.500000*%
%ADD20C,2.400000*%
%ADD21O,2.400000X2.400000*%
%ADD22R,2.200000X2.200000*%
%ADD23O,2.200000X2.200000*%
%ADD24C,1.800000*%
%ADD25R,1.400000X1.400000*%
%ADD26C,1.400000*%
%ADD27RoundRect,0.249999X-0.790001X-1.550001X0.790001X-1.550001X0.790001X1.550001X-0.790001X1.550001X0*%
%ADD28O,2.080000X3.600000*%
%ADD29R,1.300000X1.050000*%
%ADD30O,1.300000X1.050000*%
%ADD31RoundRect,0.249999X1.550001X-0.790001X1.550001X0.790001X-1.550001X0.790001X-1.550001X-0.790001X0*%
%ADD32O,3.600000X2.080000*%
%ADD33RotRect,2.000000X2.000000X225.000000*%
%ADD34HorizOval,2.000000X0.000000X0.000000X0.000000X0.000000X0*%
%ADD35R,1.700000X1.700000*%
%ADD36O,1.700000X1.700000*%
%ADD37RoundRect,0.249999X-1.550001X0.790001X-1.550001X-0.790001X1.550001X-0.790001X1.550001X0.790001X0*%
%ADD38R,1.600000X1.600000*%
%ADD39C,2.000000*%
%ADD40C,1.440000*%
%ADD41R,2.400000X2.400000*%
%TA.AperFunction,Profile*%
%ADD42C,0.100000*%
%TD*%
G04 APERTURE END LIST*
D10*
X80534213Y-40518069D02*
X80534213Y-138562069D01*
X81367131Y-139418112D02*
X179411131Y-139418112D01*
X179392624Y-40588276D02*
X179392624Y-138632276D01*
X178578213Y-40518069D02*
X80534213Y-40518069D01*
D11*
%TO.C,D7*%
X160828213Y-109876069D03*
D12*
X155748213Y-109876069D03*
%TD*%
D13*
%TO.C,Q1*%
X174693213Y-116376069D03*
D14*
X174693213Y-113836069D03*
X174693213Y-111296069D03*
%TD*%
D15*
%TO.C,C8*%
X153653213Y-97541069D03*
D16*
X133653213Y-97541069D03*
%TD*%
D17*
%TO.C,H1*%
X176000000Y-44000000D03*
%TD*%
%TO.C,H4*%
X176000000Y-136000000D03*
%TD*%
D15*
%TO.C,LK3*%
X166708213Y-98676069D03*
D16*
X166708213Y-83436069D03*
%TD*%
D18*
%TO.C,Q4*%
X110252213Y-126466069D03*
D19*
X112792213Y-126466069D03*
X115332213Y-126466069D03*
%TD*%
D20*
%TO.C,R10*%
X157278213Y-100531069D03*
D21*
X157278213Y-95451069D03*
%TD*%
D11*
%TO.C,D1*%
X144268213Y-114686069D03*
D12*
X149348213Y-114686069D03*
%TD*%
D17*
%TO.C,H3*%
X84000000Y-136000000D03*
%TD*%
D22*
%TO.C,D9*%
X165820213Y-65818069D03*
D23*
X165820213Y-75978069D03*
%TD*%
D13*
%TO.C,Q6*%
X115515213Y-67696069D03*
D14*
X115515213Y-65156069D03*
X115515213Y-62616069D03*
%TD*%
D23*
%TO.C,D14*%
X133830000Y-53750000D03*
D22*
X123670000Y-53750000D03*
%TD*%
D24*
%TO.C,VDR2*%
X129503213Y-70811069D03*
X132403213Y-63311069D03*
%TD*%
D20*
%TO.C,R15*%
X156403213Y-83686069D03*
D21*
X151323213Y-83686069D03*
%TD*%
D22*
%TO.C,D13*%
X105958213Y-105296069D03*
D23*
X105958213Y-115456069D03*
%TD*%
D25*
%TO.C,K1*%
X150892213Y-43344569D03*
D26*
X150892213Y-50964569D03*
X150892213Y-56044569D03*
X150892213Y-61124569D03*
X158512213Y-61124569D03*
X158512213Y-56044569D03*
X158512213Y-50964569D03*
X158512213Y-43344569D03*
%TD*%
D22*
%TO.C,D10*%
X162373013Y-76078069D03*
D23*
X162373013Y-65918069D03*
%TD*%
D20*
%TO.C,C9*%
X141748213Y-78131069D03*
X141748213Y-55631069D03*
%TD*%
D27*
%TO.C,J1*%
X105172213Y-133946069D03*
D28*
X110252213Y-133946069D03*
X115332213Y-133946069D03*
X120412213Y-133946069D03*
X125492213Y-133946069D03*
X130572213Y-133946069D03*
%TD*%
D20*
%TO.C,R13*%
X165068213Y-52776069D03*
D21*
X165068213Y-47696069D03*
%TD*%
D29*
%TO.C,Q3*%
X120558213Y-72046069D03*
D30*
X120558213Y-69506069D03*
X120558213Y-66966069D03*
%TD*%
D31*
%TO.C,J2*%
X173960713Y-101826069D03*
D32*
X173960713Y-96746069D03*
X173960713Y-91666069D03*
%TD*%
D27*
%TO.C,J104*%
X92318213Y-46186069D03*
D28*
X97398213Y-46186069D03*
X102478213Y-46186069D03*
X107558213Y-46186069D03*
X112638213Y-46186069D03*
X117718213Y-46186069D03*
%TD*%
D33*
%TO.C,BR1*%
X158618747Y-75824069D03*
D34*
X155083213Y-72288535D03*
X151547679Y-75824069D03*
X155083213Y-79359603D03*
%TD*%
D20*
%TO.C,R21*%
X141485000Y-133500000D03*
D21*
X136405000Y-133500000D03*
%TD*%
D17*
%TO.C,H2*%
X84000000Y-44000000D03*
%TD*%
D22*
%TO.C,D12*%
X106950213Y-58044069D03*
D23*
X117110213Y-58044069D03*
%TD*%
D27*
%TO.C,J4*%
X126910000Y-46202500D03*
D28*
X131990000Y-46202500D03*
%TD*%
D31*
%TO.C,J103*%
X86338213Y-114004069D03*
D32*
X86338213Y-108924069D03*
X86338213Y-103844069D03*
X86338213Y-98764069D03*
X86338213Y-93684069D03*
X86338213Y-88604069D03*
%TD*%
D11*
%TO.C,D8*%
X161888213Y-83821069D03*
D12*
X161888213Y-88901069D03*
%TD*%
D22*
%TO.C,D15*%
X110358213Y-74636069D03*
D23*
X120518213Y-74636069D03*
%TD*%
D20*
%TO.C,R28*%
X119723213Y-93716069D03*
D21*
X114643213Y-93716069D03*
%TD*%
D22*
%TO.C,D16*%
X120430000Y-62750000D03*
D23*
X120430000Y-52590000D03*
%TD*%
D35*
%TO.C,JP101*%
X92741213Y-52964069D03*
D36*
X95281213Y-52964069D03*
X97821213Y-52964069D03*
%TD*%
D37*
%TO.C,J3*%
X173581789Y-52548877D03*
D32*
X173581789Y-57628877D03*
X173581789Y-62708877D03*
X173581789Y-67788877D03*
X173581789Y-72868877D03*
X173581789Y-77948877D03*
X173581789Y-83028877D03*
%TD*%
D38*
%TO.C,U2*%
X133483213Y-108346069D03*
D16*
X130943213Y-108346069D03*
X128403213Y-108346069D03*
X125863213Y-108346069D03*
X125863213Y-115966069D03*
X128403213Y-115966069D03*
X130943213Y-115966069D03*
X133483213Y-115966069D03*
%TD*%
D25*
%TO.C,K2*%
X110219713Y-63933569D03*
D26*
X102599713Y-63933569D03*
X97519713Y-63933569D03*
X92439713Y-63933569D03*
X92439713Y-71553569D03*
X97519713Y-71553569D03*
X102599713Y-71553569D03*
X110219713Y-71553569D03*
%TD*%
D31*
%TO.C,J102*%
X86348213Y-79946069D03*
D32*
X86348213Y-74866069D03*
X86348213Y-69786069D03*
X86348213Y-64706069D03*
X86348213Y-59626069D03*
X86348213Y-54546069D03*
%TD*%
D25*
%TO.C,K3*%
X109948213Y-93296069D03*
D26*
X102328213Y-93296069D03*
X97248213Y-93296069D03*
X92168213Y-93296069D03*
X92168213Y-100916069D03*
X97248213Y-100916069D03*
X102328213Y-100916069D03*
X109948213Y-100916069D03*
%TD*%
D39*
%TO.C,C10*%
X139783213Y-82936069D03*
X132283213Y-82936069D03*
%TD*%
D40*
%TO.C,RV1*%
X144796213Y-106446069D03*
X147336213Y-108986069D03*
X149876213Y-106446069D03*
%TD*%
D41*
%TO.C,C17*%
X101810000Y-78602220D03*
D20*
X101810000Y-86102220D03*
%TD*%
D22*
%TO.C,D17*%
X98888213Y-120996069D03*
D23*
X98888213Y-110836069D03*
%TD*%
D24*
%TO.C,VDR1*%
X144114213Y-88282069D03*
X151614213Y-91182069D03*
%TD*%
D40*
%TO.C,RV2*%
X116658213Y-78866069D03*
X114118213Y-81406069D03*
X116658213Y-83946069D03*
%TD*%
D11*
%TO.C,D2*%
X154663213Y-115896069D03*
D12*
X159743213Y-115896069D03*
%TD*%
D20*
%TO.C,R8*%
X162336213Y-100514069D03*
D21*
X162336213Y-95434069D03*
%TD*%
D42*
X80026213Y-40010069D02*
X180017449Y-40010069D01*
X180017449Y-140001305D01*
X80026213Y-140001305D01*
X80026213Y-40010069D01*
M02*
