M48
; DRILL file {KiCad 8.0.0} date 2024-02-29T13:40:42+0100
; FORMAT={-:-/ absolute / metric / decimal}
; #@! TF.CreationDate,2024-02-29T13:40:42+01:00
; #@! TF.GenerationSoftware,Kicad,Pcbnew,8.0.0
; #@! TF.FileFunction,Plated,1,2,PTH
FMAT,2
METRIC
; #@! TA.AperFunction,Plated,PTH,ViaDrill
T1C0.400
; #@! TA.AperFunction,Plated,PTH,ComponentDrill
T2C0.700
; #@! TA.AperFunction,Plated,PTH,ComponentDrill
T3C0.750
; #@! TA.AperFunction,Plated,PTH,ComponentDrill
T4C0.800
; #@! TA.AperFunction,Plated,PTH,ComponentDrill
T5C1.000
; #@! TA.AperFunction,Plated,PTH,ComponentDrill
T6C1.100
; #@! TA.AperFunction,Plated,PTH,ComponentDrill
T7C1.200
; #@! TA.AperFunction,Plated,PTH,ComponentDrill
T8C1.300
; #@! TA.AperFunction,Plated,PTH,ComponentDrill
T9C1.400
; #@! TA.AperFunction,Plated,PTH,ComponentDrill
T10C3.200
%
G90
G05
T1
X114.5Y-120.946
X123.968Y-69.601
X130.488Y-126.822
X138.573Y-121.036
X139.208Y-126.5
X146.828Y-126.5
X151.4Y-119.258
X164.608Y-105.796
X165.243Y-129.291
T2
X92.168Y-93.296
X92.168Y-100.916
X92.44Y-63.934
X92.44Y-71.554
X97.248Y-93.296
X97.248Y-100.916
X97.52Y-63.934
X97.52Y-71.554
X102.328Y-93.296
X102.328Y-100.916
X102.6Y-63.934
X102.6Y-71.554
X109.948Y-93.296
X109.948Y-100.916
X110.22Y-63.934
X110.22Y-71.554
X150.892Y-43.345
X150.892Y-50.965
X150.892Y-56.045
X150.892Y-61.125
X158.512Y-43.345
X158.512Y-50.965
X158.512Y-56.045
X158.512Y-61.125
T3
X120.558Y-66.966
X120.558Y-69.506
X120.558Y-72.046
T4
X110.252Y-126.466
X112.792Y-126.466
X114.118Y-81.406
X115.332Y-126.466
X116.658Y-78.866
X116.658Y-83.946
X125.863Y-108.346
X125.863Y-115.966
X128.403Y-108.346
X128.403Y-115.966
X129.503Y-70.811
X130.943Y-108.346
X130.943Y-115.966
X132.403Y-63.311
X133.483Y-108.346
X133.483Y-115.966
X133.653Y-97.541
X144.114Y-88.282
X144.796Y-106.446
X147.336Y-108.986
X149.876Y-106.446
X151.614Y-91.182
X153.653Y-97.541
X166.708Y-83.436
X166.708Y-98.676
T5
X92.741Y-52.964
X95.281Y-52.964
X97.821Y-52.964
X132.283Y-82.936
X139.783Y-82.936
X151.548Y-75.824
X155.083Y-72.289
X155.083Y-79.36
X158.619Y-75.824
T6
X98.888Y-110.836
X98.888Y-120.996
X105.958Y-105.296
X105.958Y-115.456
X106.95Y-58.044
X110.358Y-74.636
X115.515Y-62.616
X115.515Y-65.156
X115.515Y-67.696
X117.11Y-58.044
X120.43Y-52.59
X120.43Y-62.75
X120.518Y-74.636
X123.67Y-53.75
X133.83Y-53.75
X162.373Y-65.918
X162.373Y-76.078
X165.82Y-65.818
X165.82Y-75.978
X174.693Y-111.296
X174.693Y-113.836
X174.693Y-116.376
T7
X101.81Y-78.602
X101.81Y-86.102
X114.643Y-93.716
X119.723Y-93.716
X136.405Y-133.5
X141.485Y-133.5
X141.748Y-55.631
X141.748Y-78.131
X151.323Y-83.686
X156.403Y-83.686
X157.278Y-95.451
X157.278Y-100.531
X162.336Y-95.434
X162.336Y-100.514
X165.068Y-47.696
X165.068Y-52.776
T8
X144.268Y-114.686
X149.348Y-114.686
X154.663Y-115.896
X155.748Y-109.876
X159.743Y-115.896
X160.828Y-109.876
X161.888Y-83.821
X161.888Y-88.901
T9
X86.338Y-88.604
X86.338Y-93.684
X86.338Y-98.764
X86.338Y-103.844
X86.338Y-108.924
X86.338Y-114.004
X86.348Y-54.546
X86.348Y-59.626
X86.348Y-64.706
X86.348Y-69.786
X86.348Y-74.866
X86.348Y-79.946
X92.318Y-46.186
X97.398Y-46.186
X102.478Y-46.186
X105.172Y-133.946
X107.558Y-46.186
X110.252Y-133.946
X112.638Y-46.186
X115.332Y-133.946
X117.718Y-46.186
X120.412Y-133.946
X125.492Y-133.946
X126.91Y-46.203
X130.572Y-133.946
X131.99Y-46.203
X173.582Y-52.549
X173.582Y-57.629
X173.582Y-62.709
X173.582Y-67.789
X173.582Y-72.869
X173.582Y-77.949
X173.582Y-83.029
X173.961Y-91.666
X173.961Y-96.746
X173.961Y-101.826
T10
X84.0Y-44.0
X84.0Y-136.0
X176.0Y-44.0
X176.0Y-136.0
M30
