%TF.GenerationSoftware,KiCad,Pcbnew,8.0.0*%
%TF.CreationDate,2024-02-29T13:53:57+01:00*%
%TF.ProjectId,G2-Control,47322d43-6f6e-4747-926f-6c2e6b696361,rev?*%
%TF.SameCoordinates,Original*%
%TF.FileFunction,Legend,Bot*%
%TF.FilePolarity,Positive*%
%FSLAX46Y46*%
G04 Gerber Fmt 4.6, Leading zero omitted, Abs format (unit mm)*
G04 Created by KiCad (PCBNEW 8.0.0) date 2024-02-29 13:53:57*
%MOMM*%
%LPD*%
G01*
G04 APERTURE LIST*
%ADD10C,0.150000*%
%TA.AperFunction,Profile*%
%ADD11C,0.100000*%
%TD*%
G04 APERTURE END LIST*
D10*
X169611433Y-73044935D02*
X168849529Y-73044935D01*
X168373338Y-73425888D02*
X168373338Y-72425888D01*
X167468577Y-72759221D02*
X167468577Y-73568745D01*
X167468577Y-73568745D02*
X167516196Y-73663983D01*
X167516196Y-73663983D02*
X167563815Y-73711602D01*
X167563815Y-73711602D02*
X167659053Y-73759221D01*
X167659053Y-73759221D02*
X167801910Y-73759221D01*
X167801910Y-73759221D02*
X167897148Y-73711602D01*
X167468577Y-73378269D02*
X167563815Y-73425888D01*
X167563815Y-73425888D02*
X167754291Y-73425888D01*
X167754291Y-73425888D02*
X167849529Y-73378269D01*
X167849529Y-73378269D02*
X167897148Y-73330649D01*
X167897148Y-73330649D02*
X167944767Y-73235411D01*
X167944767Y-73235411D02*
X167944767Y-72949697D01*
X167944767Y-72949697D02*
X167897148Y-72854459D01*
X167897148Y-72854459D02*
X167849529Y-72806840D01*
X167849529Y-72806840D02*
X167754291Y-72759221D01*
X167754291Y-72759221D02*
X167563815Y-72759221D01*
X167563815Y-72759221D02*
X167468577Y-72806840D01*
X167040005Y-72521126D02*
X166992386Y-72473507D01*
X166992386Y-72473507D02*
X166897148Y-72425888D01*
X166897148Y-72425888D02*
X166659053Y-72425888D01*
X166659053Y-72425888D02*
X166563815Y-72473507D01*
X166563815Y-72473507D02*
X166516196Y-72521126D01*
X166516196Y-72521126D02*
X166468577Y-72616364D01*
X166468577Y-72616364D02*
X166468577Y-72711602D01*
X166468577Y-72711602D02*
X166516196Y-72854459D01*
X166516196Y-72854459D02*
X167087624Y-73425888D01*
X167087624Y-73425888D02*
X166468577Y-73425888D01*
X169954767Y-102411126D02*
X170050005Y-102363507D01*
X170050005Y-102363507D02*
X170145243Y-102268269D01*
X170145243Y-102268269D02*
X170288100Y-102125411D01*
X170288100Y-102125411D02*
X170383338Y-102077792D01*
X170383338Y-102077792D02*
X170478576Y-102077792D01*
X170430957Y-102315888D02*
X170526195Y-102268269D01*
X170526195Y-102268269D02*
X170621433Y-102173030D01*
X170621433Y-102173030D02*
X170669052Y-101982554D01*
X170669052Y-101982554D02*
X170669052Y-101649221D01*
X170669052Y-101649221D02*
X170621433Y-101458745D01*
X170621433Y-101458745D02*
X170526195Y-101363507D01*
X170526195Y-101363507D02*
X170430957Y-101315888D01*
X170430957Y-101315888D02*
X170240481Y-101315888D01*
X170240481Y-101315888D02*
X170145243Y-101363507D01*
X170145243Y-101363507D02*
X170050005Y-101458745D01*
X170050005Y-101458745D02*
X170002386Y-101649221D01*
X170002386Y-101649221D02*
X170002386Y-101982554D01*
X170002386Y-101982554D02*
X170050005Y-102173030D01*
X170050005Y-102173030D02*
X170145243Y-102268269D01*
X170145243Y-102268269D02*
X170240481Y-102315888D01*
X170240481Y-102315888D02*
X170430957Y-102315888D01*
X169621433Y-101411126D02*
X169573814Y-101363507D01*
X169573814Y-101363507D02*
X169478576Y-101315888D01*
X169478576Y-101315888D02*
X169240481Y-101315888D01*
X169240481Y-101315888D02*
X169145243Y-101363507D01*
X169145243Y-101363507D02*
X169097624Y-101411126D01*
X169097624Y-101411126D02*
X169050005Y-101506364D01*
X169050005Y-101506364D02*
X169050005Y-101601602D01*
X169050005Y-101601602D02*
X169097624Y-101744459D01*
X169097624Y-101744459D02*
X169669052Y-102315888D01*
X169669052Y-102315888D02*
X169050005Y-102315888D01*
X167907147Y-102268269D02*
X167764290Y-102315888D01*
X167764290Y-102315888D02*
X167526195Y-102315888D01*
X167526195Y-102315888D02*
X167430957Y-102268269D01*
X167430957Y-102268269D02*
X167383338Y-102220649D01*
X167383338Y-102220649D02*
X167335719Y-102125411D01*
X167335719Y-102125411D02*
X167335719Y-102030173D01*
X167335719Y-102030173D02*
X167383338Y-101934935D01*
X167383338Y-101934935D02*
X167430957Y-101887316D01*
X167430957Y-101887316D02*
X167526195Y-101839697D01*
X167526195Y-101839697D02*
X167716671Y-101792078D01*
X167716671Y-101792078D02*
X167811909Y-101744459D01*
X167811909Y-101744459D02*
X167859528Y-101696840D01*
X167859528Y-101696840D02*
X167907147Y-101601602D01*
X167907147Y-101601602D02*
X167907147Y-101506364D01*
X167907147Y-101506364D02*
X167859528Y-101411126D01*
X167859528Y-101411126D02*
X167811909Y-101363507D01*
X167811909Y-101363507D02*
X167716671Y-101315888D01*
X167716671Y-101315888D02*
X167478576Y-101315888D01*
X167478576Y-101315888D02*
X167335719Y-101363507D01*
X166764290Y-102315888D02*
X166859528Y-102268269D01*
X166859528Y-102268269D02*
X166907147Y-102220649D01*
X166907147Y-102220649D02*
X166954766Y-102125411D01*
X166954766Y-102125411D02*
X166954766Y-101839697D01*
X166954766Y-101839697D02*
X166907147Y-101744459D01*
X166907147Y-101744459D02*
X166859528Y-101696840D01*
X166859528Y-101696840D02*
X166764290Y-101649221D01*
X166764290Y-101649221D02*
X166621433Y-101649221D01*
X166621433Y-101649221D02*
X166526195Y-101696840D01*
X166526195Y-101696840D02*
X166478576Y-101744459D01*
X166478576Y-101744459D02*
X166430957Y-101839697D01*
X166430957Y-101839697D02*
X166430957Y-102125411D01*
X166430957Y-102125411D02*
X166478576Y-102220649D01*
X166478576Y-102220649D02*
X166526195Y-102268269D01*
X166526195Y-102268269D02*
X166621433Y-102315888D01*
X166621433Y-102315888D02*
X166764290Y-102315888D01*
X165573814Y-101649221D02*
X165573814Y-102315888D01*
X166002385Y-101649221D02*
X166002385Y-102173030D01*
X166002385Y-102173030D02*
X165954766Y-102268269D01*
X165954766Y-102268269D02*
X165859528Y-102315888D01*
X165859528Y-102315888D02*
X165716671Y-102315888D01*
X165716671Y-102315888D02*
X165621433Y-102268269D01*
X165621433Y-102268269D02*
X165573814Y-102220649D01*
X165097623Y-102315888D02*
X165097623Y-101649221D01*
X165097623Y-101839697D02*
X165050004Y-101744459D01*
X165050004Y-101744459D02*
X165002385Y-101696840D01*
X165002385Y-101696840D02*
X164907147Y-101649221D01*
X164907147Y-101649221D02*
X164811909Y-101649221D01*
X164050004Y-102268269D02*
X164145242Y-102315888D01*
X164145242Y-102315888D02*
X164335718Y-102315888D01*
X164335718Y-102315888D02*
X164430956Y-102268269D01*
X164430956Y-102268269D02*
X164478575Y-102220649D01*
X164478575Y-102220649D02*
X164526194Y-102125411D01*
X164526194Y-102125411D02*
X164526194Y-101839697D01*
X164526194Y-101839697D02*
X164478575Y-101744459D01*
X164478575Y-101744459D02*
X164430956Y-101696840D01*
X164430956Y-101696840D02*
X164335718Y-101649221D01*
X164335718Y-101649221D02*
X164145242Y-101649221D01*
X164145242Y-101649221D02*
X164050004Y-101696840D01*
X163240480Y-102268269D02*
X163335718Y-102315888D01*
X163335718Y-102315888D02*
X163526194Y-102315888D01*
X163526194Y-102315888D02*
X163621432Y-102268269D01*
X163621432Y-102268269D02*
X163669051Y-102173030D01*
X163669051Y-102173030D02*
X163669051Y-101792078D01*
X163669051Y-101792078D02*
X163621432Y-101696840D01*
X163621432Y-101696840D02*
X163526194Y-101649221D01*
X163526194Y-101649221D02*
X163335718Y-101649221D01*
X163335718Y-101649221D02*
X163240480Y-101696840D01*
X163240480Y-101696840D02*
X163192861Y-101792078D01*
X163192861Y-101792078D02*
X163192861Y-101887316D01*
X163192861Y-101887316D02*
X163669051Y-101982554D01*
X169974767Y-97421126D02*
X170070005Y-97373507D01*
X170070005Y-97373507D02*
X170165243Y-97278269D01*
X170165243Y-97278269D02*
X170308100Y-97135411D01*
X170308100Y-97135411D02*
X170403338Y-97087792D01*
X170403338Y-97087792D02*
X170498576Y-97087792D01*
X170450957Y-97325888D02*
X170546195Y-97278269D01*
X170546195Y-97278269D02*
X170641433Y-97183030D01*
X170641433Y-97183030D02*
X170689052Y-96992554D01*
X170689052Y-96992554D02*
X170689052Y-96659221D01*
X170689052Y-96659221D02*
X170641433Y-96468745D01*
X170641433Y-96468745D02*
X170546195Y-96373507D01*
X170546195Y-96373507D02*
X170450957Y-96325888D01*
X170450957Y-96325888D02*
X170260481Y-96325888D01*
X170260481Y-96325888D02*
X170165243Y-96373507D01*
X170165243Y-96373507D02*
X170070005Y-96468745D01*
X170070005Y-96468745D02*
X170022386Y-96659221D01*
X170022386Y-96659221D02*
X170022386Y-96992554D01*
X170022386Y-96992554D02*
X170070005Y-97183030D01*
X170070005Y-97183030D02*
X170165243Y-97278269D01*
X170165243Y-97278269D02*
X170260481Y-97325888D01*
X170260481Y-97325888D02*
X170450957Y-97325888D01*
X169641433Y-96421126D02*
X169593814Y-96373507D01*
X169593814Y-96373507D02*
X169498576Y-96325888D01*
X169498576Y-96325888D02*
X169260481Y-96325888D01*
X169260481Y-96325888D02*
X169165243Y-96373507D01*
X169165243Y-96373507D02*
X169117624Y-96421126D01*
X169117624Y-96421126D02*
X169070005Y-96516364D01*
X169070005Y-96516364D02*
X169070005Y-96611602D01*
X169070005Y-96611602D02*
X169117624Y-96754459D01*
X169117624Y-96754459D02*
X169689052Y-97325888D01*
X169689052Y-97325888D02*
X169070005Y-97325888D01*
X167355719Y-96373507D02*
X167450957Y-96325888D01*
X167450957Y-96325888D02*
X167593814Y-96325888D01*
X167593814Y-96325888D02*
X167736671Y-96373507D01*
X167736671Y-96373507D02*
X167831909Y-96468745D01*
X167831909Y-96468745D02*
X167879528Y-96563983D01*
X167879528Y-96563983D02*
X167927147Y-96754459D01*
X167927147Y-96754459D02*
X167927147Y-96897316D01*
X167927147Y-96897316D02*
X167879528Y-97087792D01*
X167879528Y-97087792D02*
X167831909Y-97183030D01*
X167831909Y-97183030D02*
X167736671Y-97278269D01*
X167736671Y-97278269D02*
X167593814Y-97325888D01*
X167593814Y-97325888D02*
X167498576Y-97325888D01*
X167498576Y-97325888D02*
X167355719Y-97278269D01*
X167355719Y-97278269D02*
X167308100Y-97230649D01*
X167308100Y-97230649D02*
X167308100Y-96897316D01*
X167308100Y-96897316D02*
X167498576Y-96897316D01*
X166450957Y-97325888D02*
X166450957Y-96802078D01*
X166450957Y-96802078D02*
X166498576Y-96706840D01*
X166498576Y-96706840D02*
X166593814Y-96659221D01*
X166593814Y-96659221D02*
X166784290Y-96659221D01*
X166784290Y-96659221D02*
X166879528Y-96706840D01*
X166450957Y-97278269D02*
X166546195Y-97325888D01*
X166546195Y-97325888D02*
X166784290Y-97325888D01*
X166784290Y-97325888D02*
X166879528Y-97278269D01*
X166879528Y-97278269D02*
X166927147Y-97183030D01*
X166927147Y-97183030D02*
X166927147Y-97087792D01*
X166927147Y-97087792D02*
X166879528Y-96992554D01*
X166879528Y-96992554D02*
X166784290Y-96944935D01*
X166784290Y-96944935D02*
X166546195Y-96944935D01*
X166546195Y-96944935D02*
X166450957Y-96897316D01*
X166117623Y-96659221D02*
X165736671Y-96659221D01*
X165974766Y-96325888D02*
X165974766Y-97183030D01*
X165974766Y-97183030D02*
X165927147Y-97278269D01*
X165927147Y-97278269D02*
X165831909Y-97325888D01*
X165831909Y-97325888D02*
X165736671Y-97325888D01*
X165022385Y-97278269D02*
X165117623Y-97325888D01*
X165117623Y-97325888D02*
X165308099Y-97325888D01*
X165308099Y-97325888D02*
X165403337Y-97278269D01*
X165403337Y-97278269D02*
X165450956Y-97183030D01*
X165450956Y-97183030D02*
X165450956Y-96802078D01*
X165450956Y-96802078D02*
X165403337Y-96706840D01*
X165403337Y-96706840D02*
X165308099Y-96659221D01*
X165308099Y-96659221D02*
X165117623Y-96659221D01*
X165117623Y-96659221D02*
X165022385Y-96706840D01*
X165022385Y-96706840D02*
X164974766Y-96802078D01*
X164974766Y-96802078D02*
X164974766Y-96897316D01*
X164974766Y-96897316D02*
X165450956Y-96992554D01*
X130808032Y-124252848D02*
X129808032Y-124252848D01*
X130284222Y-124252848D02*
X130284222Y-124824276D01*
X130808032Y-124824276D02*
X129808032Y-124824276D01*
X129808032Y-125157610D02*
X130808032Y-125490943D01*
X130808032Y-125490943D02*
X129808032Y-125824276D01*
X130284222Y-126919515D02*
X130284222Y-127252848D01*
X130808032Y-127395705D02*
X130808032Y-126919515D01*
X130808032Y-126919515D02*
X129808032Y-126919515D01*
X129808032Y-126919515D02*
X129808032Y-127395705D01*
X130141365Y-127824277D02*
X130808032Y-127824277D01*
X130236603Y-127824277D02*
X130188984Y-127871896D01*
X130188984Y-127871896D02*
X130141365Y-127967134D01*
X130141365Y-127967134D02*
X130141365Y-128109991D01*
X130141365Y-128109991D02*
X130188984Y-128205229D01*
X130188984Y-128205229D02*
X130284222Y-128252848D01*
X130284222Y-128252848D02*
X130808032Y-128252848D01*
X130808032Y-129157610D02*
X130284222Y-129157610D01*
X130284222Y-129157610D02*
X130188984Y-129109991D01*
X130188984Y-129109991D02*
X130141365Y-129014753D01*
X130141365Y-129014753D02*
X130141365Y-128824277D01*
X130141365Y-128824277D02*
X130188984Y-128729039D01*
X130760413Y-129157610D02*
X130808032Y-129062372D01*
X130808032Y-129062372D02*
X130808032Y-128824277D01*
X130808032Y-128824277D02*
X130760413Y-128729039D01*
X130760413Y-128729039D02*
X130665174Y-128681420D01*
X130665174Y-128681420D02*
X130569936Y-128681420D01*
X130569936Y-128681420D02*
X130474698Y-128729039D01*
X130474698Y-128729039D02*
X130427079Y-128824277D01*
X130427079Y-128824277D02*
X130427079Y-129062372D01*
X130427079Y-129062372D02*
X130379460Y-129157610D01*
X130808032Y-129633801D02*
X129808032Y-129633801D01*
X130188984Y-129633801D02*
X130141365Y-129729039D01*
X130141365Y-129729039D02*
X130141365Y-129919515D01*
X130141365Y-129919515D02*
X130188984Y-130014753D01*
X130188984Y-130014753D02*
X130236603Y-130062372D01*
X130236603Y-130062372D02*
X130331841Y-130109991D01*
X130331841Y-130109991D02*
X130617555Y-130109991D01*
X130617555Y-130109991D02*
X130712793Y-130062372D01*
X130712793Y-130062372D02*
X130760413Y-130014753D01*
X130760413Y-130014753D02*
X130808032Y-129919515D01*
X130808032Y-129919515D02*
X130808032Y-129729039D01*
X130808032Y-129729039D02*
X130760413Y-129633801D01*
X130808032Y-130681420D02*
X130760413Y-130586182D01*
X130760413Y-130586182D02*
X130665174Y-130538563D01*
X130665174Y-130538563D02*
X129808032Y-130538563D01*
X130760413Y-131443325D02*
X130808032Y-131348087D01*
X130808032Y-131348087D02*
X130808032Y-131157611D01*
X130808032Y-131157611D02*
X130760413Y-131062373D01*
X130760413Y-131062373D02*
X130665174Y-131014754D01*
X130665174Y-131014754D02*
X130284222Y-131014754D01*
X130284222Y-131014754D02*
X130188984Y-131062373D01*
X130188984Y-131062373D02*
X130141365Y-131157611D01*
X130141365Y-131157611D02*
X130141365Y-131348087D01*
X130141365Y-131348087D02*
X130188984Y-131443325D01*
X130188984Y-131443325D02*
X130284222Y-131490944D01*
X130284222Y-131490944D02*
X130379460Y-131490944D01*
X130379460Y-131490944D02*
X130474698Y-131014754D01*
X120507079Y-122232848D02*
X120507079Y-122994753D01*
X120888032Y-122613800D02*
X120126127Y-122613800D01*
X120888032Y-123994752D02*
X120888032Y-123423324D01*
X120888032Y-123709038D02*
X119888032Y-123709038D01*
X119888032Y-123709038D02*
X120030889Y-123613800D01*
X120030889Y-123613800D02*
X120126127Y-123518562D01*
X120126127Y-123518562D02*
X120173746Y-123423324D01*
X119983270Y-124375705D02*
X119935651Y-124423324D01*
X119935651Y-124423324D02*
X119888032Y-124518562D01*
X119888032Y-124518562D02*
X119888032Y-124756657D01*
X119888032Y-124756657D02*
X119935651Y-124851895D01*
X119935651Y-124851895D02*
X119983270Y-124899514D01*
X119983270Y-124899514D02*
X120078508Y-124947133D01*
X120078508Y-124947133D02*
X120173746Y-124947133D01*
X120173746Y-124947133D02*
X120316603Y-124899514D01*
X120316603Y-124899514D02*
X120888032Y-124328086D01*
X120888032Y-124328086D02*
X120888032Y-124947133D01*
X119888032Y-125232848D02*
X120888032Y-125566181D01*
X120888032Y-125566181D02*
X119888032Y-125899514D01*
X120888032Y-127566181D02*
X120411841Y-127232848D01*
X120888032Y-126994753D02*
X119888032Y-126994753D01*
X119888032Y-126994753D02*
X119888032Y-127375705D01*
X119888032Y-127375705D02*
X119935651Y-127470943D01*
X119935651Y-127470943D02*
X119983270Y-127518562D01*
X119983270Y-127518562D02*
X120078508Y-127566181D01*
X120078508Y-127566181D02*
X120221365Y-127566181D01*
X120221365Y-127566181D02*
X120316603Y-127518562D01*
X120316603Y-127518562D02*
X120364222Y-127470943D01*
X120364222Y-127470943D02*
X120411841Y-127375705D01*
X120411841Y-127375705D02*
X120411841Y-126994753D01*
X120840413Y-128375705D02*
X120888032Y-128280467D01*
X120888032Y-128280467D02*
X120888032Y-128089991D01*
X120888032Y-128089991D02*
X120840413Y-127994753D01*
X120840413Y-127994753D02*
X120745174Y-127947134D01*
X120745174Y-127947134D02*
X120364222Y-127947134D01*
X120364222Y-127947134D02*
X120268984Y-127994753D01*
X120268984Y-127994753D02*
X120221365Y-128089991D01*
X120221365Y-128089991D02*
X120221365Y-128280467D01*
X120221365Y-128280467D02*
X120268984Y-128375705D01*
X120268984Y-128375705D02*
X120364222Y-128423324D01*
X120364222Y-128423324D02*
X120459460Y-128423324D01*
X120459460Y-128423324D02*
X120554698Y-127947134D01*
X120221365Y-129280467D02*
X121030889Y-129280467D01*
X121030889Y-129280467D02*
X121126127Y-129232848D01*
X121126127Y-129232848D02*
X121173746Y-129185229D01*
X121173746Y-129185229D02*
X121221365Y-129089991D01*
X121221365Y-129089991D02*
X121221365Y-128947134D01*
X121221365Y-128947134D02*
X121173746Y-128851896D01*
X120840413Y-129280467D02*
X120888032Y-129185229D01*
X120888032Y-129185229D02*
X120888032Y-128994753D01*
X120888032Y-128994753D02*
X120840413Y-128899515D01*
X120840413Y-128899515D02*
X120792793Y-128851896D01*
X120792793Y-128851896D02*
X120697555Y-128804277D01*
X120697555Y-128804277D02*
X120411841Y-128804277D01*
X120411841Y-128804277D02*
X120316603Y-128851896D01*
X120316603Y-128851896D02*
X120268984Y-128899515D01*
X120268984Y-128899515D02*
X120221365Y-128994753D01*
X120221365Y-128994753D02*
X120221365Y-129185229D01*
X120221365Y-129185229D02*
X120268984Y-129280467D01*
X120888032Y-130518563D02*
X119888032Y-130518563D01*
X120221365Y-130994753D02*
X120888032Y-130994753D01*
X120316603Y-130994753D02*
X120268984Y-131042372D01*
X120268984Y-131042372D02*
X120221365Y-131137610D01*
X120221365Y-131137610D02*
X120221365Y-131280467D01*
X120221365Y-131280467D02*
X120268984Y-131375705D01*
X120268984Y-131375705D02*
X120364222Y-131423324D01*
X120364222Y-131423324D02*
X120888032Y-131423324D01*
X115778032Y-128464276D02*
X115301841Y-128130943D01*
X115778032Y-127892848D02*
X114778032Y-127892848D01*
X114778032Y-127892848D02*
X114778032Y-128273800D01*
X114778032Y-128273800D02*
X114825651Y-128369038D01*
X114825651Y-128369038D02*
X114873270Y-128416657D01*
X114873270Y-128416657D02*
X114968508Y-128464276D01*
X114968508Y-128464276D02*
X115111365Y-128464276D01*
X115111365Y-128464276D02*
X115206603Y-128416657D01*
X115206603Y-128416657D02*
X115254222Y-128369038D01*
X115254222Y-128369038D02*
X115301841Y-128273800D01*
X115301841Y-128273800D02*
X115301841Y-127892848D01*
X115730413Y-129273800D02*
X115778032Y-129178562D01*
X115778032Y-129178562D02*
X115778032Y-128988086D01*
X115778032Y-128988086D02*
X115730413Y-128892848D01*
X115730413Y-128892848D02*
X115635174Y-128845229D01*
X115635174Y-128845229D02*
X115254222Y-128845229D01*
X115254222Y-128845229D02*
X115158984Y-128892848D01*
X115158984Y-128892848D02*
X115111365Y-128988086D01*
X115111365Y-128988086D02*
X115111365Y-129178562D01*
X115111365Y-129178562D02*
X115158984Y-129273800D01*
X115158984Y-129273800D02*
X115254222Y-129321419D01*
X115254222Y-129321419D02*
X115349460Y-129321419D01*
X115349460Y-129321419D02*
X115444698Y-128845229D01*
X115730413Y-129702372D02*
X115778032Y-129797610D01*
X115778032Y-129797610D02*
X115778032Y-129988086D01*
X115778032Y-129988086D02*
X115730413Y-130083324D01*
X115730413Y-130083324D02*
X115635174Y-130130943D01*
X115635174Y-130130943D02*
X115587555Y-130130943D01*
X115587555Y-130130943D02*
X115492317Y-130083324D01*
X115492317Y-130083324D02*
X115444698Y-129988086D01*
X115444698Y-129988086D02*
X115444698Y-129845229D01*
X115444698Y-129845229D02*
X115397079Y-129749991D01*
X115397079Y-129749991D02*
X115301841Y-129702372D01*
X115301841Y-129702372D02*
X115254222Y-129702372D01*
X115254222Y-129702372D02*
X115158984Y-129749991D01*
X115158984Y-129749991D02*
X115111365Y-129845229D01*
X115111365Y-129845229D02*
X115111365Y-129988086D01*
X115111365Y-129988086D02*
X115158984Y-130083324D01*
X115730413Y-130940467D02*
X115778032Y-130845229D01*
X115778032Y-130845229D02*
X115778032Y-130654753D01*
X115778032Y-130654753D02*
X115730413Y-130559515D01*
X115730413Y-130559515D02*
X115635174Y-130511896D01*
X115635174Y-130511896D02*
X115254222Y-130511896D01*
X115254222Y-130511896D02*
X115158984Y-130559515D01*
X115158984Y-130559515D02*
X115111365Y-130654753D01*
X115111365Y-130654753D02*
X115111365Y-130845229D01*
X115111365Y-130845229D02*
X115158984Y-130940467D01*
X115158984Y-130940467D02*
X115254222Y-130988086D01*
X115254222Y-130988086D02*
X115349460Y-130988086D01*
X115349460Y-130988086D02*
X115444698Y-130511896D01*
X115111365Y-131273801D02*
X115111365Y-131654753D01*
X114778032Y-131416658D02*
X115635174Y-131416658D01*
X115635174Y-131416658D02*
X115730413Y-131464277D01*
X115730413Y-131464277D02*
X115778032Y-131559515D01*
X115778032Y-131559515D02*
X115778032Y-131654753D01*
X125898032Y-127772848D02*
X124898032Y-127772848D01*
X124898032Y-127772848D02*
X124898032Y-128153800D01*
X124898032Y-128153800D02*
X124945651Y-128249038D01*
X124945651Y-128249038D02*
X124993270Y-128296657D01*
X124993270Y-128296657D02*
X125088508Y-128344276D01*
X125088508Y-128344276D02*
X125231365Y-128344276D01*
X125231365Y-128344276D02*
X125326603Y-128296657D01*
X125326603Y-128296657D02*
X125374222Y-128249038D01*
X125374222Y-128249038D02*
X125421841Y-128153800D01*
X125421841Y-128153800D02*
X125421841Y-127772848D01*
X124898032Y-128629991D02*
X124898032Y-129201419D01*
X125898032Y-128915705D02*
X124898032Y-128915705D01*
X124898032Y-129391896D02*
X124898032Y-129963324D01*
X125898032Y-129677610D02*
X124898032Y-129677610D01*
X125993270Y-130058563D02*
X125993270Y-130820467D01*
X125898032Y-131534753D02*
X125898032Y-131058563D01*
X125898032Y-131058563D02*
X124898032Y-131058563D01*
X107617079Y-49582848D02*
X107617079Y-50344753D01*
X107998032Y-49963800D02*
X107236127Y-49963800D01*
X107998032Y-51344752D02*
X107998032Y-50773324D01*
X107998032Y-51059038D02*
X106998032Y-51059038D01*
X106998032Y-51059038D02*
X107140889Y-50963800D01*
X107140889Y-50963800D02*
X107236127Y-50868562D01*
X107236127Y-50868562D02*
X107283746Y-50773324D01*
X107093270Y-51725705D02*
X107045651Y-51773324D01*
X107045651Y-51773324D02*
X106998032Y-51868562D01*
X106998032Y-51868562D02*
X106998032Y-52106657D01*
X106998032Y-52106657D02*
X107045651Y-52201895D01*
X107045651Y-52201895D02*
X107093270Y-52249514D01*
X107093270Y-52249514D02*
X107188508Y-52297133D01*
X107188508Y-52297133D02*
X107283746Y-52297133D01*
X107283746Y-52297133D02*
X107426603Y-52249514D01*
X107426603Y-52249514D02*
X107998032Y-51678086D01*
X107998032Y-51678086D02*
X107998032Y-52297133D01*
X106998032Y-52582848D02*
X107998032Y-52916181D01*
X107998032Y-52916181D02*
X106998032Y-53249514D01*
X107998032Y-54916181D02*
X107521841Y-54582848D01*
X107998032Y-54344753D02*
X106998032Y-54344753D01*
X106998032Y-54344753D02*
X106998032Y-54725705D01*
X106998032Y-54725705D02*
X107045651Y-54820943D01*
X107045651Y-54820943D02*
X107093270Y-54868562D01*
X107093270Y-54868562D02*
X107188508Y-54916181D01*
X107188508Y-54916181D02*
X107331365Y-54916181D01*
X107331365Y-54916181D02*
X107426603Y-54868562D01*
X107426603Y-54868562D02*
X107474222Y-54820943D01*
X107474222Y-54820943D02*
X107521841Y-54725705D01*
X107521841Y-54725705D02*
X107521841Y-54344753D01*
X107950413Y-55725705D02*
X107998032Y-55630467D01*
X107998032Y-55630467D02*
X107998032Y-55439991D01*
X107998032Y-55439991D02*
X107950413Y-55344753D01*
X107950413Y-55344753D02*
X107855174Y-55297134D01*
X107855174Y-55297134D02*
X107474222Y-55297134D01*
X107474222Y-55297134D02*
X107378984Y-55344753D01*
X107378984Y-55344753D02*
X107331365Y-55439991D01*
X107331365Y-55439991D02*
X107331365Y-55630467D01*
X107331365Y-55630467D02*
X107378984Y-55725705D01*
X107378984Y-55725705D02*
X107474222Y-55773324D01*
X107474222Y-55773324D02*
X107569460Y-55773324D01*
X107569460Y-55773324D02*
X107664698Y-55297134D01*
X107331365Y-56630467D02*
X108140889Y-56630467D01*
X108140889Y-56630467D02*
X108236127Y-56582848D01*
X108236127Y-56582848D02*
X108283746Y-56535229D01*
X108283746Y-56535229D02*
X108331365Y-56439991D01*
X108331365Y-56439991D02*
X108331365Y-56297134D01*
X108331365Y-56297134D02*
X108283746Y-56201896D01*
X107950413Y-56630467D02*
X107998032Y-56535229D01*
X107998032Y-56535229D02*
X107998032Y-56344753D01*
X107998032Y-56344753D02*
X107950413Y-56249515D01*
X107950413Y-56249515D02*
X107902793Y-56201896D01*
X107902793Y-56201896D02*
X107807555Y-56154277D01*
X107807555Y-56154277D02*
X107521841Y-56154277D01*
X107521841Y-56154277D02*
X107426603Y-56201896D01*
X107426603Y-56201896D02*
X107378984Y-56249515D01*
X107378984Y-56249515D02*
X107331365Y-56344753D01*
X107331365Y-56344753D02*
X107331365Y-56535229D01*
X107331365Y-56535229D02*
X107378984Y-56630467D01*
X169130005Y-68270649D02*
X169177624Y-68318269D01*
X169177624Y-68318269D02*
X169320481Y-68365888D01*
X169320481Y-68365888D02*
X169415719Y-68365888D01*
X169415719Y-68365888D02*
X169558576Y-68318269D01*
X169558576Y-68318269D02*
X169653814Y-68223030D01*
X169653814Y-68223030D02*
X169701433Y-68127792D01*
X169701433Y-68127792D02*
X169749052Y-67937316D01*
X169749052Y-67937316D02*
X169749052Y-67794459D01*
X169749052Y-67794459D02*
X169701433Y-67603983D01*
X169701433Y-67603983D02*
X169653814Y-67508745D01*
X169653814Y-67508745D02*
X169558576Y-67413507D01*
X169558576Y-67413507D02*
X169415719Y-67365888D01*
X169415719Y-67365888D02*
X169320481Y-67365888D01*
X169320481Y-67365888D02*
X169177624Y-67413507D01*
X169177624Y-67413507D02*
X169130005Y-67461126D01*
X168272862Y-68365888D02*
X168272862Y-67842078D01*
X168272862Y-67842078D02*
X168320481Y-67746840D01*
X168320481Y-67746840D02*
X168415719Y-67699221D01*
X168415719Y-67699221D02*
X168606195Y-67699221D01*
X168606195Y-67699221D02*
X168701433Y-67746840D01*
X168272862Y-68318269D02*
X168368100Y-68365888D01*
X168368100Y-68365888D02*
X168606195Y-68365888D01*
X168606195Y-68365888D02*
X168701433Y-68318269D01*
X168701433Y-68318269D02*
X168749052Y-68223030D01*
X168749052Y-68223030D02*
X168749052Y-68127792D01*
X168749052Y-68127792D02*
X168701433Y-68032554D01*
X168701433Y-68032554D02*
X168606195Y-67984935D01*
X168606195Y-67984935D02*
X168368100Y-67984935D01*
X168368100Y-67984935D02*
X168272862Y-67937316D01*
X167939528Y-67699221D02*
X167558576Y-67699221D01*
X167796671Y-67365888D02*
X167796671Y-68223030D01*
X167796671Y-68223030D02*
X167749052Y-68318269D01*
X167749052Y-68318269D02*
X167653814Y-68365888D01*
X167653814Y-68365888D02*
X167558576Y-68365888D01*
X167225242Y-68365888D02*
X167225242Y-67365888D01*
X166796671Y-68365888D02*
X166796671Y-67842078D01*
X166796671Y-67842078D02*
X166844290Y-67746840D01*
X166844290Y-67746840D02*
X166939528Y-67699221D01*
X166939528Y-67699221D02*
X167082385Y-67699221D01*
X167082385Y-67699221D02*
X167177623Y-67746840D01*
X167177623Y-67746840D02*
X167225242Y-67794459D01*
X166177623Y-68365888D02*
X166272861Y-68318269D01*
X166272861Y-68318269D02*
X166320480Y-68270649D01*
X166320480Y-68270649D02*
X166368099Y-68175411D01*
X166368099Y-68175411D02*
X166368099Y-67889697D01*
X166368099Y-67889697D02*
X166320480Y-67794459D01*
X166320480Y-67794459D02*
X166272861Y-67746840D01*
X166272861Y-67746840D02*
X166177623Y-67699221D01*
X166177623Y-67699221D02*
X166034766Y-67699221D01*
X166034766Y-67699221D02*
X165939528Y-67746840D01*
X165939528Y-67746840D02*
X165891909Y-67794459D01*
X165891909Y-67794459D02*
X165844290Y-67889697D01*
X165844290Y-67889697D02*
X165844290Y-68175411D01*
X165844290Y-68175411D02*
X165891909Y-68270649D01*
X165891909Y-68270649D02*
X165939528Y-68318269D01*
X165939528Y-68318269D02*
X166034766Y-68365888D01*
X166034766Y-68365888D02*
X166177623Y-68365888D01*
X164987147Y-68365888D02*
X164987147Y-67365888D01*
X164987147Y-68318269D02*
X165082385Y-68365888D01*
X165082385Y-68365888D02*
X165272861Y-68365888D01*
X165272861Y-68365888D02*
X165368099Y-68318269D01*
X165368099Y-68318269D02*
X165415718Y-68270649D01*
X165415718Y-68270649D02*
X165463337Y-68175411D01*
X165463337Y-68175411D02*
X165463337Y-67889697D01*
X165463337Y-67889697D02*
X165415718Y-67794459D01*
X165415718Y-67794459D02*
X165368099Y-67746840D01*
X165368099Y-67746840D02*
X165272861Y-67699221D01*
X165272861Y-67699221D02*
X165082385Y-67699221D01*
X165082385Y-67699221D02*
X164987147Y-67746840D01*
X164130004Y-68318269D02*
X164225242Y-68365888D01*
X164225242Y-68365888D02*
X164415718Y-68365888D01*
X164415718Y-68365888D02*
X164510956Y-68318269D01*
X164510956Y-68318269D02*
X164558575Y-68223030D01*
X164558575Y-68223030D02*
X164558575Y-67842078D01*
X164558575Y-67842078D02*
X164510956Y-67746840D01*
X164510956Y-67746840D02*
X164415718Y-67699221D01*
X164415718Y-67699221D02*
X164225242Y-67699221D01*
X164225242Y-67699221D02*
X164130004Y-67746840D01*
X164130004Y-67746840D02*
X164082385Y-67842078D01*
X164082385Y-67842078D02*
X164082385Y-67937316D01*
X164082385Y-67937316D02*
X164558575Y-68032554D01*
X169410774Y-83625480D02*
X169458393Y-83720718D01*
X169458393Y-83720718D02*
X169458393Y-83863575D01*
X169458393Y-83863575D02*
X169410774Y-84006432D01*
X169410774Y-84006432D02*
X169315536Y-84101670D01*
X169315536Y-84101670D02*
X169220298Y-84149289D01*
X169220298Y-84149289D02*
X169029822Y-84196908D01*
X169029822Y-84196908D02*
X168886965Y-84196908D01*
X168886965Y-84196908D02*
X168696489Y-84149289D01*
X168696489Y-84149289D02*
X168601251Y-84101670D01*
X168601251Y-84101670D02*
X168506013Y-84006432D01*
X168506013Y-84006432D02*
X168458393Y-83863575D01*
X168458393Y-83863575D02*
X168458393Y-83768337D01*
X168458393Y-83768337D02*
X168506013Y-83625480D01*
X168506013Y-83625480D02*
X168553632Y-83577861D01*
X168553632Y-83577861D02*
X168886965Y-83577861D01*
X168886965Y-83577861D02*
X168886965Y-83768337D01*
X168458393Y-83149289D02*
X169458393Y-83149289D01*
X169458393Y-83149289D02*
X168458393Y-82577861D01*
X168458393Y-82577861D02*
X169458393Y-82577861D01*
X168458393Y-82101670D02*
X169458393Y-82101670D01*
X169458393Y-82101670D02*
X169458393Y-81863575D01*
X169458393Y-81863575D02*
X169410774Y-81720718D01*
X169410774Y-81720718D02*
X169315536Y-81625480D01*
X169315536Y-81625480D02*
X169220298Y-81577861D01*
X169220298Y-81577861D02*
X169029822Y-81530242D01*
X169029822Y-81530242D02*
X168886965Y-81530242D01*
X168886965Y-81530242D02*
X168696489Y-81577861D01*
X168696489Y-81577861D02*
X168601251Y-81625480D01*
X168601251Y-81625480D02*
X168506013Y-81720718D01*
X168506013Y-81720718D02*
X168458393Y-81863575D01*
X168458393Y-81863575D02*
X168458393Y-82101670D01*
X101975651Y-50296657D02*
X101928032Y-50201419D01*
X101928032Y-50201419D02*
X101928032Y-50058562D01*
X101928032Y-50058562D02*
X101975651Y-49915705D01*
X101975651Y-49915705D02*
X102070889Y-49820467D01*
X102070889Y-49820467D02*
X102166127Y-49772848D01*
X102166127Y-49772848D02*
X102356603Y-49725229D01*
X102356603Y-49725229D02*
X102499460Y-49725229D01*
X102499460Y-49725229D02*
X102689936Y-49772848D01*
X102689936Y-49772848D02*
X102785174Y-49820467D01*
X102785174Y-49820467D02*
X102880413Y-49915705D01*
X102880413Y-49915705D02*
X102928032Y-50058562D01*
X102928032Y-50058562D02*
X102928032Y-50153800D01*
X102928032Y-50153800D02*
X102880413Y-50296657D01*
X102880413Y-50296657D02*
X102832793Y-50344276D01*
X102832793Y-50344276D02*
X102499460Y-50344276D01*
X102499460Y-50344276D02*
X102499460Y-50153800D01*
X102928032Y-50772848D02*
X101928032Y-50772848D01*
X101928032Y-50772848D02*
X102928032Y-51344276D01*
X102928032Y-51344276D02*
X101928032Y-51344276D01*
X102928032Y-51820467D02*
X101928032Y-51820467D01*
X101928032Y-51820467D02*
X101928032Y-52058562D01*
X101928032Y-52058562D02*
X101975651Y-52201419D01*
X101975651Y-52201419D02*
X102070889Y-52296657D01*
X102070889Y-52296657D02*
X102166127Y-52344276D01*
X102166127Y-52344276D02*
X102356603Y-52391895D01*
X102356603Y-52391895D02*
X102499460Y-52391895D01*
X102499460Y-52391895D02*
X102689936Y-52344276D01*
X102689936Y-52344276D02*
X102785174Y-52296657D01*
X102785174Y-52296657D02*
X102880413Y-52201419D01*
X102880413Y-52201419D02*
X102928032Y-52058562D01*
X102928032Y-52058562D02*
X102928032Y-51820467D01*
X82338393Y-73609289D02*
X83338393Y-73609289D01*
X82338393Y-73037861D02*
X82909822Y-73466432D01*
X83338393Y-73037861D02*
X82766965Y-73609289D01*
X83243155Y-72656908D02*
X83290774Y-72609289D01*
X83290774Y-72609289D02*
X83338393Y-72514051D01*
X83338393Y-72514051D02*
X83338393Y-72275956D01*
X83338393Y-72275956D02*
X83290774Y-72180718D01*
X83290774Y-72180718D02*
X83243155Y-72133099D01*
X83243155Y-72133099D02*
X83147917Y-72085480D01*
X83147917Y-72085480D02*
X83052679Y-72085480D01*
X83052679Y-72085480D02*
X82909822Y-72133099D01*
X82909822Y-72133099D02*
X82338393Y-72704527D01*
X82338393Y-72704527D02*
X82338393Y-72085480D01*
X82338393Y-70323575D02*
X82814584Y-70656908D01*
X82338393Y-70895003D02*
X83338393Y-70895003D01*
X83338393Y-70895003D02*
X83338393Y-70514051D01*
X83338393Y-70514051D02*
X83290774Y-70418813D01*
X83290774Y-70418813D02*
X83243155Y-70371194D01*
X83243155Y-70371194D02*
X83147917Y-70323575D01*
X83147917Y-70323575D02*
X83005060Y-70323575D01*
X83005060Y-70323575D02*
X82909822Y-70371194D01*
X82909822Y-70371194D02*
X82862203Y-70418813D01*
X82862203Y-70418813D02*
X82814584Y-70514051D01*
X82814584Y-70514051D02*
X82814584Y-70895003D01*
X82386013Y-69514051D02*
X82338393Y-69609289D01*
X82338393Y-69609289D02*
X82338393Y-69799765D01*
X82338393Y-69799765D02*
X82386013Y-69895003D01*
X82386013Y-69895003D02*
X82481251Y-69942622D01*
X82481251Y-69942622D02*
X82862203Y-69942622D01*
X82862203Y-69942622D02*
X82957441Y-69895003D01*
X82957441Y-69895003D02*
X83005060Y-69799765D01*
X83005060Y-69799765D02*
X83005060Y-69609289D01*
X83005060Y-69609289D02*
X82957441Y-69514051D01*
X82957441Y-69514051D02*
X82862203Y-69466432D01*
X82862203Y-69466432D02*
X82766965Y-69466432D01*
X82766965Y-69466432D02*
X82671727Y-69942622D01*
X82338393Y-68895003D02*
X82386013Y-68990241D01*
X82386013Y-68990241D02*
X82481251Y-69037860D01*
X82481251Y-69037860D02*
X83338393Y-69037860D01*
X82338393Y-68085479D02*
X82862203Y-68085479D01*
X82862203Y-68085479D02*
X82957441Y-68133098D01*
X82957441Y-68133098D02*
X83005060Y-68228336D01*
X83005060Y-68228336D02*
X83005060Y-68418812D01*
X83005060Y-68418812D02*
X82957441Y-68514050D01*
X82386013Y-68085479D02*
X82338393Y-68180717D01*
X82338393Y-68180717D02*
X82338393Y-68418812D01*
X82338393Y-68418812D02*
X82386013Y-68514050D01*
X82386013Y-68514050D02*
X82481251Y-68561669D01*
X82481251Y-68561669D02*
X82576489Y-68561669D01*
X82576489Y-68561669D02*
X82671727Y-68514050D01*
X82671727Y-68514050D02*
X82719346Y-68418812D01*
X82719346Y-68418812D02*
X82719346Y-68180717D01*
X82719346Y-68180717D02*
X82766965Y-68085479D01*
X83005060Y-67704526D02*
X82338393Y-67466431D01*
X83005060Y-67228336D02*
X82338393Y-67466431D01*
X82338393Y-67466431D02*
X82100298Y-67561669D01*
X82100298Y-67561669D02*
X82052679Y-67609288D01*
X82052679Y-67609288D02*
X82005060Y-67704526D01*
X82386013Y-65656907D02*
X82338393Y-65752145D01*
X82338393Y-65752145D02*
X82338393Y-65942621D01*
X82338393Y-65942621D02*
X82386013Y-66037859D01*
X82386013Y-66037859D02*
X82433632Y-66085478D01*
X82433632Y-66085478D02*
X82528870Y-66133097D01*
X82528870Y-66133097D02*
X82814584Y-66133097D01*
X82814584Y-66133097D02*
X82909822Y-66085478D01*
X82909822Y-66085478D02*
X82957441Y-66037859D01*
X82957441Y-66037859D02*
X83005060Y-65942621D01*
X83005060Y-65942621D02*
X83005060Y-65752145D01*
X83005060Y-65752145D02*
X82957441Y-65656907D01*
X82338393Y-65085478D02*
X82386013Y-65180716D01*
X82386013Y-65180716D02*
X82433632Y-65228335D01*
X82433632Y-65228335D02*
X82528870Y-65275954D01*
X82528870Y-65275954D02*
X82814584Y-65275954D01*
X82814584Y-65275954D02*
X82909822Y-65228335D01*
X82909822Y-65228335D02*
X82957441Y-65180716D01*
X82957441Y-65180716D02*
X83005060Y-65085478D01*
X83005060Y-65085478D02*
X83005060Y-64942621D01*
X83005060Y-64942621D02*
X82957441Y-64847383D01*
X82957441Y-64847383D02*
X82909822Y-64799764D01*
X82909822Y-64799764D02*
X82814584Y-64752145D01*
X82814584Y-64752145D02*
X82528870Y-64752145D01*
X82528870Y-64752145D02*
X82433632Y-64799764D01*
X82433632Y-64799764D02*
X82386013Y-64847383D01*
X82386013Y-64847383D02*
X82338393Y-64942621D01*
X82338393Y-64942621D02*
X82338393Y-65085478D01*
X83005060Y-64323573D02*
X82338393Y-64323573D01*
X82909822Y-64323573D02*
X82957441Y-64275954D01*
X82957441Y-64275954D02*
X83005060Y-64180716D01*
X83005060Y-64180716D02*
X83005060Y-64037859D01*
X83005060Y-64037859D02*
X82957441Y-63942621D01*
X82957441Y-63942621D02*
X82862203Y-63895002D01*
X82862203Y-63895002D02*
X82338393Y-63895002D01*
X83005060Y-63418811D02*
X82338393Y-63418811D01*
X82909822Y-63418811D02*
X82957441Y-63371192D01*
X82957441Y-63371192D02*
X83005060Y-63275954D01*
X83005060Y-63275954D02*
X83005060Y-63133097D01*
X83005060Y-63133097D02*
X82957441Y-63037859D01*
X82957441Y-63037859D02*
X82862203Y-62990240D01*
X82862203Y-62990240D02*
X82338393Y-62990240D01*
X82386013Y-62133097D02*
X82338393Y-62228335D01*
X82338393Y-62228335D02*
X82338393Y-62418811D01*
X82338393Y-62418811D02*
X82386013Y-62514049D01*
X82386013Y-62514049D02*
X82481251Y-62561668D01*
X82481251Y-62561668D02*
X82862203Y-62561668D01*
X82862203Y-62561668D02*
X82957441Y-62514049D01*
X82957441Y-62514049D02*
X83005060Y-62418811D01*
X83005060Y-62418811D02*
X83005060Y-62228335D01*
X83005060Y-62228335D02*
X82957441Y-62133097D01*
X82957441Y-62133097D02*
X82862203Y-62085478D01*
X82862203Y-62085478D02*
X82766965Y-62085478D01*
X82766965Y-62085478D02*
X82671727Y-62561668D01*
X82386013Y-61228335D02*
X82338393Y-61323573D01*
X82338393Y-61323573D02*
X82338393Y-61514049D01*
X82338393Y-61514049D02*
X82386013Y-61609287D01*
X82386013Y-61609287D02*
X82433632Y-61656906D01*
X82433632Y-61656906D02*
X82528870Y-61704525D01*
X82528870Y-61704525D02*
X82814584Y-61704525D01*
X82814584Y-61704525D02*
X82909822Y-61656906D01*
X82909822Y-61656906D02*
X82957441Y-61609287D01*
X82957441Y-61609287D02*
X83005060Y-61514049D01*
X83005060Y-61514049D02*
X83005060Y-61323573D01*
X83005060Y-61323573D02*
X82957441Y-61228335D01*
X83005060Y-60942620D02*
X83005060Y-60561668D01*
X83338393Y-60799763D02*
X82481251Y-60799763D01*
X82481251Y-60799763D02*
X82386013Y-60752144D01*
X82386013Y-60752144D02*
X82338393Y-60656906D01*
X82338393Y-60656906D02*
X82338393Y-60561668D01*
X82338393Y-60228334D02*
X83005060Y-60228334D01*
X83338393Y-60228334D02*
X83290774Y-60275953D01*
X83290774Y-60275953D02*
X83243155Y-60228334D01*
X83243155Y-60228334D02*
X83290774Y-60180715D01*
X83290774Y-60180715D02*
X83338393Y-60228334D01*
X83338393Y-60228334D02*
X83243155Y-60228334D01*
X82338393Y-59609287D02*
X82386013Y-59704525D01*
X82386013Y-59704525D02*
X82433632Y-59752144D01*
X82433632Y-59752144D02*
X82528870Y-59799763D01*
X82528870Y-59799763D02*
X82814584Y-59799763D01*
X82814584Y-59799763D02*
X82909822Y-59752144D01*
X82909822Y-59752144D02*
X82957441Y-59704525D01*
X82957441Y-59704525D02*
X83005060Y-59609287D01*
X83005060Y-59609287D02*
X83005060Y-59466430D01*
X83005060Y-59466430D02*
X82957441Y-59371192D01*
X82957441Y-59371192D02*
X82909822Y-59323573D01*
X82909822Y-59323573D02*
X82814584Y-59275954D01*
X82814584Y-59275954D02*
X82528870Y-59275954D01*
X82528870Y-59275954D02*
X82433632Y-59323573D01*
X82433632Y-59323573D02*
X82386013Y-59371192D01*
X82386013Y-59371192D02*
X82338393Y-59466430D01*
X82338393Y-59466430D02*
X82338393Y-59609287D01*
X83005060Y-58847382D02*
X82338393Y-58847382D01*
X82909822Y-58847382D02*
X82957441Y-58799763D01*
X82957441Y-58799763D02*
X83005060Y-58704525D01*
X83005060Y-58704525D02*
X83005060Y-58561668D01*
X83005060Y-58561668D02*
X82957441Y-58466430D01*
X82957441Y-58466430D02*
X82862203Y-58418811D01*
X82862203Y-58418811D02*
X82338393Y-58418811D01*
X99597624Y-49293507D02*
X99692862Y-49245888D01*
X99692862Y-49245888D02*
X99835719Y-49245888D01*
X99835719Y-49245888D02*
X99978576Y-49293507D01*
X99978576Y-49293507D02*
X100073814Y-49388745D01*
X100073814Y-49388745D02*
X100121433Y-49483983D01*
X100121433Y-49483983D02*
X100169052Y-49674459D01*
X100169052Y-49674459D02*
X100169052Y-49817316D01*
X100169052Y-49817316D02*
X100121433Y-50007792D01*
X100121433Y-50007792D02*
X100073814Y-50103030D01*
X100073814Y-50103030D02*
X99978576Y-50198269D01*
X99978576Y-50198269D02*
X99835719Y-50245888D01*
X99835719Y-50245888D02*
X99740481Y-50245888D01*
X99740481Y-50245888D02*
X99597624Y-50198269D01*
X99597624Y-50198269D02*
X99550005Y-50150649D01*
X99550005Y-50150649D02*
X99550005Y-49817316D01*
X99550005Y-49817316D02*
X99740481Y-49817316D01*
X98597624Y-50245888D02*
X99169052Y-50245888D01*
X98883338Y-50245888D02*
X98883338Y-49245888D01*
X98883338Y-49245888D02*
X98978576Y-49388745D01*
X98978576Y-49388745D02*
X99073814Y-49483983D01*
X99073814Y-49483983D02*
X99169052Y-49531602D01*
X97550004Y-49579221D02*
X97169052Y-49579221D01*
X97407147Y-49245888D02*
X97407147Y-50103030D01*
X97407147Y-50103030D02*
X97359528Y-50198269D01*
X97359528Y-50198269D02*
X97264290Y-50245888D01*
X97264290Y-50245888D02*
X97169052Y-50245888D01*
X96835718Y-50245888D02*
X96835718Y-49579221D01*
X96835718Y-49769697D02*
X96788099Y-49674459D01*
X96788099Y-49674459D02*
X96740480Y-49626840D01*
X96740480Y-49626840D02*
X96645242Y-49579221D01*
X96645242Y-49579221D02*
X96550004Y-49579221D01*
X96216670Y-50245888D02*
X96216670Y-49579221D01*
X96216670Y-49245888D02*
X96264289Y-49293507D01*
X96264289Y-49293507D02*
X96216670Y-49341126D01*
X96216670Y-49341126D02*
X96169051Y-49293507D01*
X96169051Y-49293507D02*
X96216670Y-49245888D01*
X96216670Y-49245888D02*
X96216670Y-49341126D01*
X95740480Y-49579221D02*
X95740480Y-50579221D01*
X95740480Y-49626840D02*
X95645242Y-49579221D01*
X95645242Y-49579221D02*
X95454766Y-49579221D01*
X95454766Y-49579221D02*
X95359528Y-49626840D01*
X95359528Y-49626840D02*
X95311909Y-49674459D01*
X95311909Y-49674459D02*
X95264290Y-49769697D01*
X95264290Y-49769697D02*
X95264290Y-50055411D01*
X95264290Y-50055411D02*
X95311909Y-50150649D01*
X95311909Y-50150649D02*
X95359528Y-50198269D01*
X95359528Y-50198269D02*
X95454766Y-50245888D01*
X95454766Y-50245888D02*
X95645242Y-50245888D01*
X95645242Y-50245888D02*
X95740480Y-50198269D01*
X169661433Y-77914935D02*
X168899529Y-77914935D01*
X169280481Y-78295888D02*
X169280481Y-77533983D01*
X168423338Y-78295888D02*
X168423338Y-77295888D01*
X167518577Y-77629221D02*
X167518577Y-78438745D01*
X167518577Y-78438745D02*
X167566196Y-78533983D01*
X167566196Y-78533983D02*
X167613815Y-78581602D01*
X167613815Y-78581602D02*
X167709053Y-78629221D01*
X167709053Y-78629221D02*
X167851910Y-78629221D01*
X167851910Y-78629221D02*
X167947148Y-78581602D01*
X167518577Y-78248269D02*
X167613815Y-78295888D01*
X167613815Y-78295888D02*
X167804291Y-78295888D01*
X167804291Y-78295888D02*
X167899529Y-78248269D01*
X167899529Y-78248269D02*
X167947148Y-78200649D01*
X167947148Y-78200649D02*
X167994767Y-78105411D01*
X167994767Y-78105411D02*
X167994767Y-77819697D01*
X167994767Y-77819697D02*
X167947148Y-77724459D01*
X167947148Y-77724459D02*
X167899529Y-77676840D01*
X167899529Y-77676840D02*
X167804291Y-77629221D01*
X167804291Y-77629221D02*
X167613815Y-77629221D01*
X167613815Y-77629221D02*
X167518577Y-77676840D01*
X167090005Y-77391126D02*
X167042386Y-77343507D01*
X167042386Y-77343507D02*
X166947148Y-77295888D01*
X166947148Y-77295888D02*
X166709053Y-77295888D01*
X166709053Y-77295888D02*
X166613815Y-77343507D01*
X166613815Y-77343507D02*
X166566196Y-77391126D01*
X166566196Y-77391126D02*
X166518577Y-77486364D01*
X166518577Y-77486364D02*
X166518577Y-77581602D01*
X166518577Y-77581602D02*
X166566196Y-77724459D01*
X166566196Y-77724459D02*
X167137624Y-78295888D01*
X167137624Y-78295888D02*
X166518577Y-78295888D01*
X169297624Y-57063507D02*
X169392862Y-57015888D01*
X169392862Y-57015888D02*
X169535719Y-57015888D01*
X169535719Y-57015888D02*
X169678576Y-57063507D01*
X169678576Y-57063507D02*
X169773814Y-57158745D01*
X169773814Y-57158745D02*
X169821433Y-57253983D01*
X169821433Y-57253983D02*
X169869052Y-57444459D01*
X169869052Y-57444459D02*
X169869052Y-57587316D01*
X169869052Y-57587316D02*
X169821433Y-57777792D01*
X169821433Y-57777792D02*
X169773814Y-57873030D01*
X169773814Y-57873030D02*
X169678576Y-57968269D01*
X169678576Y-57968269D02*
X169535719Y-58015888D01*
X169535719Y-58015888D02*
X169440481Y-58015888D01*
X169440481Y-58015888D02*
X169297624Y-57968269D01*
X169297624Y-57968269D02*
X169250005Y-57920649D01*
X169250005Y-57920649D02*
X169250005Y-57587316D01*
X169250005Y-57587316D02*
X169440481Y-57587316D01*
X168869052Y-57111126D02*
X168821433Y-57063507D01*
X168821433Y-57063507D02*
X168726195Y-57015888D01*
X168726195Y-57015888D02*
X168488100Y-57015888D01*
X168488100Y-57015888D02*
X168392862Y-57063507D01*
X168392862Y-57063507D02*
X168345243Y-57111126D01*
X168345243Y-57111126D02*
X168297624Y-57206364D01*
X168297624Y-57206364D02*
X168297624Y-57301602D01*
X168297624Y-57301602D02*
X168345243Y-57444459D01*
X168345243Y-57444459D02*
X168916671Y-58015888D01*
X168916671Y-58015888D02*
X168297624Y-58015888D01*
X167107147Y-57015888D02*
X167107147Y-57825411D01*
X167107147Y-57825411D02*
X167059528Y-57920649D01*
X167059528Y-57920649D02*
X167011909Y-57968269D01*
X167011909Y-57968269D02*
X166916671Y-58015888D01*
X166916671Y-58015888D02*
X166726195Y-58015888D01*
X166726195Y-58015888D02*
X166630957Y-57968269D01*
X166630957Y-57968269D02*
X166583338Y-57920649D01*
X166583338Y-57920649D02*
X166535719Y-57825411D01*
X166535719Y-57825411D02*
X166535719Y-57015888D01*
X166059528Y-57349221D02*
X166059528Y-58015888D01*
X166059528Y-57444459D02*
X166011909Y-57396840D01*
X166011909Y-57396840D02*
X165916671Y-57349221D01*
X165916671Y-57349221D02*
X165773814Y-57349221D01*
X165773814Y-57349221D02*
X165678576Y-57396840D01*
X165678576Y-57396840D02*
X165630957Y-57492078D01*
X165630957Y-57492078D02*
X165630957Y-58015888D01*
X165154766Y-58015888D02*
X165154766Y-57349221D01*
X165154766Y-57539697D02*
X165107147Y-57444459D01*
X165107147Y-57444459D02*
X165059528Y-57396840D01*
X165059528Y-57396840D02*
X164964290Y-57349221D01*
X164964290Y-57349221D02*
X164869052Y-57349221D01*
X164154766Y-57968269D02*
X164250004Y-58015888D01*
X164250004Y-58015888D02*
X164440480Y-58015888D01*
X164440480Y-58015888D02*
X164535718Y-57968269D01*
X164535718Y-57968269D02*
X164583337Y-57873030D01*
X164583337Y-57873030D02*
X164583337Y-57492078D01*
X164583337Y-57492078D02*
X164535718Y-57396840D01*
X164535718Y-57396840D02*
X164440480Y-57349221D01*
X164440480Y-57349221D02*
X164250004Y-57349221D01*
X164250004Y-57349221D02*
X164154766Y-57396840D01*
X164154766Y-57396840D02*
X164107147Y-57492078D01*
X164107147Y-57492078D02*
X164107147Y-57587316D01*
X164107147Y-57587316D02*
X164583337Y-57682554D01*
X163250004Y-57349221D02*
X163250004Y-58158745D01*
X163250004Y-58158745D02*
X163297623Y-58253983D01*
X163297623Y-58253983D02*
X163345242Y-58301602D01*
X163345242Y-58301602D02*
X163440480Y-58349221D01*
X163440480Y-58349221D02*
X163583337Y-58349221D01*
X163583337Y-58349221D02*
X163678575Y-58301602D01*
X163250004Y-57968269D02*
X163345242Y-58015888D01*
X163345242Y-58015888D02*
X163535718Y-58015888D01*
X163535718Y-58015888D02*
X163630956Y-57968269D01*
X163630956Y-57968269D02*
X163678575Y-57920649D01*
X163678575Y-57920649D02*
X163726194Y-57825411D01*
X163726194Y-57825411D02*
X163726194Y-57539697D01*
X163726194Y-57539697D02*
X163678575Y-57444459D01*
X163678575Y-57444459D02*
X163630956Y-57396840D01*
X163630956Y-57396840D02*
X163535718Y-57349221D01*
X163535718Y-57349221D02*
X163345242Y-57349221D01*
X163345242Y-57349221D02*
X163250004Y-57396840D01*
X162011908Y-58015888D02*
X162011908Y-57015888D01*
X161535718Y-57349221D02*
X161535718Y-58015888D01*
X161535718Y-57444459D02*
X161488099Y-57396840D01*
X161488099Y-57396840D02*
X161392861Y-57349221D01*
X161392861Y-57349221D02*
X161250004Y-57349221D01*
X161250004Y-57349221D02*
X161154766Y-57396840D01*
X161154766Y-57396840D02*
X161107147Y-57492078D01*
X161107147Y-57492078D02*
X161107147Y-58015888D01*
X116690005Y-42815888D02*
X117023338Y-42339697D01*
X117261433Y-42815888D02*
X117261433Y-41815888D01*
X117261433Y-41815888D02*
X116880481Y-41815888D01*
X116880481Y-41815888D02*
X116785243Y-41863507D01*
X116785243Y-41863507D02*
X116737624Y-41911126D01*
X116737624Y-41911126D02*
X116690005Y-42006364D01*
X116690005Y-42006364D02*
X116690005Y-42149221D01*
X116690005Y-42149221D02*
X116737624Y-42244459D01*
X116737624Y-42244459D02*
X116785243Y-42292078D01*
X116785243Y-42292078D02*
X116880481Y-42339697D01*
X116880481Y-42339697D02*
X117261433Y-42339697D01*
X116261433Y-42292078D02*
X115928100Y-42292078D01*
X115785243Y-42815888D02*
X116261433Y-42815888D01*
X116261433Y-42815888D02*
X116261433Y-41815888D01*
X116261433Y-41815888D02*
X115785243Y-41815888D01*
X114785243Y-42720649D02*
X114832862Y-42768269D01*
X114832862Y-42768269D02*
X114975719Y-42815888D01*
X114975719Y-42815888D02*
X115070957Y-42815888D01*
X115070957Y-42815888D02*
X115213814Y-42768269D01*
X115213814Y-42768269D02*
X115309052Y-42673030D01*
X115309052Y-42673030D02*
X115356671Y-42577792D01*
X115356671Y-42577792D02*
X115404290Y-42387316D01*
X115404290Y-42387316D02*
X115404290Y-42244459D01*
X115404290Y-42244459D02*
X115356671Y-42053983D01*
X115356671Y-42053983D02*
X115309052Y-41958745D01*
X115309052Y-41958745D02*
X115213814Y-41863507D01*
X115213814Y-41863507D02*
X115070957Y-41815888D01*
X115070957Y-41815888D02*
X114975719Y-41815888D01*
X114975719Y-41815888D02*
X114832862Y-41863507D01*
X114832862Y-41863507D02*
X114785243Y-41911126D01*
X114356671Y-42434935D02*
X113594767Y-42434935D01*
X112594767Y-41863507D02*
X112690005Y-41815888D01*
X112690005Y-41815888D02*
X112832862Y-41815888D01*
X112832862Y-41815888D02*
X112975719Y-41863507D01*
X112975719Y-41863507D02*
X113070957Y-41958745D01*
X113070957Y-41958745D02*
X113118576Y-42053983D01*
X113118576Y-42053983D02*
X113166195Y-42244459D01*
X113166195Y-42244459D02*
X113166195Y-42387316D01*
X113166195Y-42387316D02*
X113118576Y-42577792D01*
X113118576Y-42577792D02*
X113070957Y-42673030D01*
X113070957Y-42673030D02*
X112975719Y-42768269D01*
X112975719Y-42768269D02*
X112832862Y-42815888D01*
X112832862Y-42815888D02*
X112737624Y-42815888D01*
X112737624Y-42815888D02*
X112594767Y-42768269D01*
X112594767Y-42768269D02*
X112547148Y-42720649D01*
X112547148Y-42720649D02*
X112547148Y-42387316D01*
X112547148Y-42387316D02*
X112737624Y-42387316D01*
X111594767Y-42815888D02*
X112166195Y-42815888D01*
X111880481Y-42815888D02*
X111880481Y-41815888D01*
X111880481Y-41815888D02*
X111975719Y-41958745D01*
X111975719Y-41958745D02*
X112070957Y-42053983D01*
X112070957Y-42053983D02*
X112166195Y-42101602D01*
X110451909Y-42530173D02*
X109975719Y-42530173D01*
X110547147Y-42815888D02*
X110213814Y-41815888D01*
X110213814Y-41815888D02*
X109880481Y-42815888D01*
X109070957Y-42815888D02*
X109547147Y-42815888D01*
X109547147Y-42815888D02*
X109547147Y-41815888D01*
X108166195Y-42720649D02*
X108213814Y-42768269D01*
X108213814Y-42768269D02*
X108356671Y-42815888D01*
X108356671Y-42815888D02*
X108451909Y-42815888D01*
X108451909Y-42815888D02*
X108594766Y-42768269D01*
X108594766Y-42768269D02*
X108690004Y-42673030D01*
X108690004Y-42673030D02*
X108737623Y-42577792D01*
X108737623Y-42577792D02*
X108785242Y-42387316D01*
X108785242Y-42387316D02*
X108785242Y-42244459D01*
X108785242Y-42244459D02*
X108737623Y-42053983D01*
X108737623Y-42053983D02*
X108690004Y-41958745D01*
X108690004Y-41958745D02*
X108594766Y-41863507D01*
X108594766Y-41863507D02*
X108451909Y-41815888D01*
X108451909Y-41815888D02*
X108356671Y-41815888D01*
X108356671Y-41815888D02*
X108213814Y-41863507D01*
X108213814Y-41863507D02*
X108166195Y-41911126D01*
X106642385Y-42292078D02*
X106499528Y-42339697D01*
X106499528Y-42339697D02*
X106451909Y-42387316D01*
X106451909Y-42387316D02*
X106404290Y-42482554D01*
X106404290Y-42482554D02*
X106404290Y-42625411D01*
X106404290Y-42625411D02*
X106451909Y-42720649D01*
X106451909Y-42720649D02*
X106499528Y-42768269D01*
X106499528Y-42768269D02*
X106594766Y-42815888D01*
X106594766Y-42815888D02*
X106975718Y-42815888D01*
X106975718Y-42815888D02*
X106975718Y-41815888D01*
X106975718Y-41815888D02*
X106642385Y-41815888D01*
X106642385Y-41815888D02*
X106547147Y-41863507D01*
X106547147Y-41863507D02*
X106499528Y-41911126D01*
X106499528Y-41911126D02*
X106451909Y-42006364D01*
X106451909Y-42006364D02*
X106451909Y-42101602D01*
X106451909Y-42101602D02*
X106499528Y-42196840D01*
X106499528Y-42196840D02*
X106547147Y-42244459D01*
X106547147Y-42244459D02*
X106642385Y-42292078D01*
X106642385Y-42292078D02*
X106975718Y-42292078D01*
X105832861Y-42815888D02*
X105928099Y-42768269D01*
X105928099Y-42768269D02*
X105975718Y-42720649D01*
X105975718Y-42720649D02*
X106023337Y-42625411D01*
X106023337Y-42625411D02*
X106023337Y-42339697D01*
X106023337Y-42339697D02*
X105975718Y-42244459D01*
X105975718Y-42244459D02*
X105928099Y-42196840D01*
X105928099Y-42196840D02*
X105832861Y-42149221D01*
X105832861Y-42149221D02*
X105690004Y-42149221D01*
X105690004Y-42149221D02*
X105594766Y-42196840D01*
X105594766Y-42196840D02*
X105547147Y-42244459D01*
X105547147Y-42244459D02*
X105499528Y-42339697D01*
X105499528Y-42339697D02*
X105499528Y-42625411D01*
X105499528Y-42625411D02*
X105547147Y-42720649D01*
X105547147Y-42720649D02*
X105594766Y-42768269D01*
X105594766Y-42768269D02*
X105690004Y-42815888D01*
X105690004Y-42815888D02*
X105832861Y-42815888D01*
X104642385Y-42815888D02*
X104642385Y-42292078D01*
X104642385Y-42292078D02*
X104690004Y-42196840D01*
X104690004Y-42196840D02*
X104785242Y-42149221D01*
X104785242Y-42149221D02*
X104975718Y-42149221D01*
X104975718Y-42149221D02*
X105070956Y-42196840D01*
X104642385Y-42768269D02*
X104737623Y-42815888D01*
X104737623Y-42815888D02*
X104975718Y-42815888D01*
X104975718Y-42815888D02*
X105070956Y-42768269D01*
X105070956Y-42768269D02*
X105118575Y-42673030D01*
X105118575Y-42673030D02*
X105118575Y-42577792D01*
X105118575Y-42577792D02*
X105070956Y-42482554D01*
X105070956Y-42482554D02*
X104975718Y-42434935D01*
X104975718Y-42434935D02*
X104737623Y-42434935D01*
X104737623Y-42434935D02*
X104642385Y-42387316D01*
X104166194Y-42815888D02*
X104166194Y-42149221D01*
X104166194Y-42339697D02*
X104118575Y-42244459D01*
X104118575Y-42244459D02*
X104070956Y-42196840D01*
X104070956Y-42196840D02*
X103975718Y-42149221D01*
X103975718Y-42149221D02*
X103880480Y-42149221D01*
X103118575Y-42815888D02*
X103118575Y-41815888D01*
X103118575Y-42768269D02*
X103213813Y-42815888D01*
X103213813Y-42815888D02*
X103404289Y-42815888D01*
X103404289Y-42815888D02*
X103499527Y-42768269D01*
X103499527Y-42768269D02*
X103547146Y-42720649D01*
X103547146Y-42720649D02*
X103594765Y-42625411D01*
X103594765Y-42625411D02*
X103594765Y-42339697D01*
X103594765Y-42339697D02*
X103547146Y-42244459D01*
X103547146Y-42244459D02*
X103499527Y-42196840D01*
X103499527Y-42196840D02*
X103404289Y-42149221D01*
X103404289Y-42149221D02*
X103213813Y-42149221D01*
X103213813Y-42149221D02*
X103118575Y-42196840D01*
X101880479Y-42815888D02*
X101880479Y-42149221D01*
X101880479Y-41815888D02*
X101928098Y-41863507D01*
X101928098Y-41863507D02*
X101880479Y-41911126D01*
X101880479Y-41911126D02*
X101832860Y-41863507D01*
X101832860Y-41863507D02*
X101880479Y-41815888D01*
X101880479Y-41815888D02*
X101880479Y-41911126D01*
X101404289Y-42149221D02*
X101404289Y-42815888D01*
X101404289Y-42244459D02*
X101356670Y-42196840D01*
X101356670Y-42196840D02*
X101261432Y-42149221D01*
X101261432Y-42149221D02*
X101118575Y-42149221D01*
X101118575Y-42149221D02*
X101023337Y-42196840D01*
X101023337Y-42196840D02*
X100975718Y-42292078D01*
X100975718Y-42292078D02*
X100975718Y-42815888D01*
X100642384Y-42149221D02*
X100261432Y-42149221D01*
X100499527Y-41815888D02*
X100499527Y-42673030D01*
X100499527Y-42673030D02*
X100451908Y-42768269D01*
X100451908Y-42768269D02*
X100356670Y-42815888D01*
X100356670Y-42815888D02*
X100261432Y-42815888D01*
X99547146Y-42768269D02*
X99642384Y-42815888D01*
X99642384Y-42815888D02*
X99832860Y-42815888D01*
X99832860Y-42815888D02*
X99928098Y-42768269D01*
X99928098Y-42768269D02*
X99975717Y-42673030D01*
X99975717Y-42673030D02*
X99975717Y-42292078D01*
X99975717Y-42292078D02*
X99928098Y-42196840D01*
X99928098Y-42196840D02*
X99832860Y-42149221D01*
X99832860Y-42149221D02*
X99642384Y-42149221D01*
X99642384Y-42149221D02*
X99547146Y-42196840D01*
X99547146Y-42196840D02*
X99499527Y-42292078D01*
X99499527Y-42292078D02*
X99499527Y-42387316D01*
X99499527Y-42387316D02*
X99975717Y-42482554D01*
X99070955Y-42815888D02*
X99070955Y-42149221D01*
X99070955Y-42339697D02*
X99023336Y-42244459D01*
X99023336Y-42244459D02*
X98975717Y-42196840D01*
X98975717Y-42196840D02*
X98880479Y-42149221D01*
X98880479Y-42149221D02*
X98785241Y-42149221D01*
X98023336Y-42768269D02*
X98118574Y-42815888D01*
X98118574Y-42815888D02*
X98309050Y-42815888D01*
X98309050Y-42815888D02*
X98404288Y-42768269D01*
X98404288Y-42768269D02*
X98451907Y-42720649D01*
X98451907Y-42720649D02*
X98499526Y-42625411D01*
X98499526Y-42625411D02*
X98499526Y-42339697D01*
X98499526Y-42339697D02*
X98451907Y-42244459D01*
X98451907Y-42244459D02*
X98404288Y-42196840D01*
X98404288Y-42196840D02*
X98309050Y-42149221D01*
X98309050Y-42149221D02*
X98118574Y-42149221D01*
X98118574Y-42149221D02*
X98023336Y-42196840D01*
X97451907Y-42815888D02*
X97547145Y-42768269D01*
X97547145Y-42768269D02*
X97594764Y-42720649D01*
X97594764Y-42720649D02*
X97642383Y-42625411D01*
X97642383Y-42625411D02*
X97642383Y-42339697D01*
X97642383Y-42339697D02*
X97594764Y-42244459D01*
X97594764Y-42244459D02*
X97547145Y-42196840D01*
X97547145Y-42196840D02*
X97451907Y-42149221D01*
X97451907Y-42149221D02*
X97309050Y-42149221D01*
X97309050Y-42149221D02*
X97213812Y-42196840D01*
X97213812Y-42196840D02*
X97166193Y-42244459D01*
X97166193Y-42244459D02*
X97118574Y-42339697D01*
X97118574Y-42339697D02*
X97118574Y-42625411D01*
X97118574Y-42625411D02*
X97166193Y-42720649D01*
X97166193Y-42720649D02*
X97213812Y-42768269D01*
X97213812Y-42768269D02*
X97309050Y-42815888D01*
X97309050Y-42815888D02*
X97451907Y-42815888D01*
X96690002Y-42149221D02*
X96690002Y-42815888D01*
X96690002Y-42244459D02*
X96642383Y-42196840D01*
X96642383Y-42196840D02*
X96547145Y-42149221D01*
X96547145Y-42149221D02*
X96404288Y-42149221D01*
X96404288Y-42149221D02*
X96309050Y-42196840D01*
X96309050Y-42196840D02*
X96261431Y-42292078D01*
X96261431Y-42292078D02*
X96261431Y-42815888D01*
X95785240Y-42149221D02*
X95785240Y-42815888D01*
X95785240Y-42244459D02*
X95737621Y-42196840D01*
X95737621Y-42196840D02*
X95642383Y-42149221D01*
X95642383Y-42149221D02*
X95499526Y-42149221D01*
X95499526Y-42149221D02*
X95404288Y-42196840D01*
X95404288Y-42196840D02*
X95356669Y-42292078D01*
X95356669Y-42292078D02*
X95356669Y-42815888D01*
X94499526Y-42768269D02*
X94594764Y-42815888D01*
X94594764Y-42815888D02*
X94785240Y-42815888D01*
X94785240Y-42815888D02*
X94880478Y-42768269D01*
X94880478Y-42768269D02*
X94928097Y-42673030D01*
X94928097Y-42673030D02*
X94928097Y-42292078D01*
X94928097Y-42292078D02*
X94880478Y-42196840D01*
X94880478Y-42196840D02*
X94785240Y-42149221D01*
X94785240Y-42149221D02*
X94594764Y-42149221D01*
X94594764Y-42149221D02*
X94499526Y-42196840D01*
X94499526Y-42196840D02*
X94451907Y-42292078D01*
X94451907Y-42292078D02*
X94451907Y-42387316D01*
X94451907Y-42387316D02*
X94928097Y-42482554D01*
X93594764Y-42768269D02*
X93690002Y-42815888D01*
X93690002Y-42815888D02*
X93880478Y-42815888D01*
X93880478Y-42815888D02*
X93975716Y-42768269D01*
X93975716Y-42768269D02*
X94023335Y-42720649D01*
X94023335Y-42720649D02*
X94070954Y-42625411D01*
X94070954Y-42625411D02*
X94070954Y-42339697D01*
X94070954Y-42339697D02*
X94023335Y-42244459D01*
X94023335Y-42244459D02*
X93975716Y-42196840D01*
X93975716Y-42196840D02*
X93880478Y-42149221D01*
X93880478Y-42149221D02*
X93690002Y-42149221D01*
X93690002Y-42149221D02*
X93594764Y-42196840D01*
X93309049Y-42149221D02*
X92928097Y-42149221D01*
X93166192Y-41815888D02*
X93166192Y-42673030D01*
X93166192Y-42673030D02*
X93118573Y-42768269D01*
X93118573Y-42768269D02*
X93023335Y-42815888D01*
X93023335Y-42815888D02*
X92928097Y-42815888D01*
X93921433Y-49944935D02*
X93159529Y-49944935D01*
X93540481Y-50325888D02*
X93540481Y-49563983D01*
X92730957Y-49421126D02*
X92683338Y-49373507D01*
X92683338Y-49373507D02*
X92588100Y-49325888D01*
X92588100Y-49325888D02*
X92350005Y-49325888D01*
X92350005Y-49325888D02*
X92254767Y-49373507D01*
X92254767Y-49373507D02*
X92207148Y-49421126D01*
X92207148Y-49421126D02*
X92159529Y-49516364D01*
X92159529Y-49516364D02*
X92159529Y-49611602D01*
X92159529Y-49611602D02*
X92207148Y-49754459D01*
X92207148Y-49754459D02*
X92778576Y-50325888D01*
X92778576Y-50325888D02*
X92159529Y-50325888D01*
X91302386Y-49659221D02*
X91302386Y-50325888D01*
X91540481Y-49278269D02*
X91778576Y-49992554D01*
X91778576Y-49992554D02*
X91159529Y-49992554D01*
X90921433Y-49325888D02*
X90588100Y-50325888D01*
X90588100Y-50325888D02*
X90254767Y-49325888D01*
X89159528Y-49325888D02*
X89159528Y-50135411D01*
X89159528Y-50135411D02*
X89111909Y-50230649D01*
X89111909Y-50230649D02*
X89064290Y-50278269D01*
X89064290Y-50278269D02*
X88969052Y-50325888D01*
X88969052Y-50325888D02*
X88778576Y-50325888D01*
X88778576Y-50325888D02*
X88683338Y-50278269D01*
X88683338Y-50278269D02*
X88635719Y-50230649D01*
X88635719Y-50230649D02*
X88588100Y-50135411D01*
X88588100Y-50135411D02*
X88588100Y-49325888D01*
X88111909Y-49659221D02*
X88111909Y-50325888D01*
X88111909Y-49754459D02*
X88064290Y-49706840D01*
X88064290Y-49706840D02*
X87969052Y-49659221D01*
X87969052Y-49659221D02*
X87826195Y-49659221D01*
X87826195Y-49659221D02*
X87730957Y-49706840D01*
X87730957Y-49706840D02*
X87683338Y-49802078D01*
X87683338Y-49802078D02*
X87683338Y-50325888D01*
X87207147Y-50325888D02*
X87207147Y-49659221D01*
X87207147Y-49849697D02*
X87159528Y-49754459D01*
X87159528Y-49754459D02*
X87111909Y-49706840D01*
X87111909Y-49706840D02*
X87016671Y-49659221D01*
X87016671Y-49659221D02*
X86921433Y-49659221D01*
X86207147Y-50278269D02*
X86302385Y-50325888D01*
X86302385Y-50325888D02*
X86492861Y-50325888D01*
X86492861Y-50325888D02*
X86588099Y-50278269D01*
X86588099Y-50278269D02*
X86635718Y-50183030D01*
X86635718Y-50183030D02*
X86635718Y-49802078D01*
X86635718Y-49802078D02*
X86588099Y-49706840D01*
X86588099Y-49706840D02*
X86492861Y-49659221D01*
X86492861Y-49659221D02*
X86302385Y-49659221D01*
X86302385Y-49659221D02*
X86207147Y-49706840D01*
X86207147Y-49706840D02*
X86159528Y-49802078D01*
X86159528Y-49802078D02*
X86159528Y-49897316D01*
X86159528Y-49897316D02*
X86635718Y-49992554D01*
X85302385Y-49659221D02*
X85302385Y-50468745D01*
X85302385Y-50468745D02*
X85350004Y-50563983D01*
X85350004Y-50563983D02*
X85397623Y-50611602D01*
X85397623Y-50611602D02*
X85492861Y-50659221D01*
X85492861Y-50659221D02*
X85635718Y-50659221D01*
X85635718Y-50659221D02*
X85730956Y-50611602D01*
X85302385Y-50278269D02*
X85397623Y-50325888D01*
X85397623Y-50325888D02*
X85588099Y-50325888D01*
X85588099Y-50325888D02*
X85683337Y-50278269D01*
X85683337Y-50278269D02*
X85730956Y-50230649D01*
X85730956Y-50230649D02*
X85778575Y-50135411D01*
X85778575Y-50135411D02*
X85778575Y-49849697D01*
X85778575Y-49849697D02*
X85730956Y-49754459D01*
X85730956Y-49754459D02*
X85683337Y-49706840D01*
X85683337Y-49706840D02*
X85588099Y-49659221D01*
X85588099Y-49659221D02*
X85397623Y-49659221D01*
X85397623Y-49659221D02*
X85302385Y-49706840D01*
X112869052Y-130700173D02*
X112392862Y-130700173D01*
X112964290Y-130985888D02*
X112630957Y-129985888D01*
X112630957Y-129985888D02*
X112297624Y-130985888D01*
X111250004Y-130700173D02*
X110773814Y-130700173D01*
X111345242Y-130985888D02*
X111011909Y-129985888D01*
X111011909Y-129985888D02*
X110678576Y-130985888D01*
X110202385Y-130985888D02*
X110297623Y-130938269D01*
X110297623Y-130938269D02*
X110345242Y-130843030D01*
X110345242Y-130843030D02*
X110345242Y-129985888D01*
X109392861Y-130985888D02*
X109392861Y-130462078D01*
X109392861Y-130462078D02*
X109440480Y-130366840D01*
X109440480Y-130366840D02*
X109535718Y-130319221D01*
X109535718Y-130319221D02*
X109726194Y-130319221D01*
X109726194Y-130319221D02*
X109821432Y-130366840D01*
X109392861Y-130938269D02*
X109488099Y-130985888D01*
X109488099Y-130985888D02*
X109726194Y-130985888D01*
X109726194Y-130985888D02*
X109821432Y-130938269D01*
X109821432Y-130938269D02*
X109869051Y-130843030D01*
X109869051Y-130843030D02*
X109869051Y-130747792D01*
X109869051Y-130747792D02*
X109821432Y-130652554D01*
X109821432Y-130652554D02*
X109726194Y-130604935D01*
X109726194Y-130604935D02*
X109488099Y-130604935D01*
X109488099Y-130604935D02*
X109392861Y-130557316D01*
X108916670Y-130985888D02*
X108916670Y-130319221D01*
X108916670Y-130509697D02*
X108869051Y-130414459D01*
X108869051Y-130414459D02*
X108821432Y-130366840D01*
X108821432Y-130366840D02*
X108726194Y-130319221D01*
X108726194Y-130319221D02*
X108630956Y-130319221D01*
X108297622Y-130985888D02*
X108297622Y-130319221D01*
X108297622Y-130414459D02*
X108250003Y-130366840D01*
X108250003Y-130366840D02*
X108154765Y-130319221D01*
X108154765Y-130319221D02*
X108011908Y-130319221D01*
X108011908Y-130319221D02*
X107916670Y-130366840D01*
X107916670Y-130366840D02*
X107869051Y-130462078D01*
X107869051Y-130462078D02*
X107869051Y-130985888D01*
X107869051Y-130462078D02*
X107821432Y-130366840D01*
X107821432Y-130366840D02*
X107726194Y-130319221D01*
X107726194Y-130319221D02*
X107583337Y-130319221D01*
X107583337Y-130319221D02*
X107488098Y-130366840D01*
X107488098Y-130366840D02*
X107440479Y-130462078D01*
X107440479Y-130462078D02*
X107440479Y-130985888D01*
X105726194Y-130985888D02*
X106202384Y-130985888D01*
X106202384Y-130985888D02*
X106202384Y-129985888D01*
X105392860Y-130462078D02*
X105059527Y-130462078D01*
X104916670Y-130985888D02*
X105392860Y-130985888D01*
X105392860Y-130985888D02*
X105392860Y-129985888D01*
X105392860Y-129985888D02*
X104916670Y-129985888D01*
X104488098Y-130985888D02*
X104488098Y-129985888D01*
X104488098Y-129985888D02*
X104250003Y-129985888D01*
X104250003Y-129985888D02*
X104107146Y-130033507D01*
X104107146Y-130033507D02*
X104011908Y-130128745D01*
X104011908Y-130128745D02*
X103964289Y-130223983D01*
X103964289Y-130223983D02*
X103916670Y-130414459D01*
X103916670Y-130414459D02*
X103916670Y-130557316D01*
X103916670Y-130557316D02*
X103964289Y-130747792D01*
X103964289Y-130747792D02*
X104011908Y-130843030D01*
X104011908Y-130843030D02*
X104107146Y-130938269D01*
X104107146Y-130938269D02*
X104250003Y-130985888D01*
X104250003Y-130985888D02*
X104488098Y-130985888D01*
X102726193Y-130985888D02*
X102726193Y-129985888D01*
X102154765Y-130985888D02*
X102583336Y-130414459D01*
X102154765Y-129985888D02*
X102726193Y-130557316D01*
X170740774Y-53445480D02*
X170788393Y-53540718D01*
X170788393Y-53540718D02*
X170788393Y-53683575D01*
X170788393Y-53683575D02*
X170740774Y-53826432D01*
X170740774Y-53826432D02*
X170645536Y-53921670D01*
X170645536Y-53921670D02*
X170550298Y-53969289D01*
X170550298Y-53969289D02*
X170359822Y-54016908D01*
X170359822Y-54016908D02*
X170216965Y-54016908D01*
X170216965Y-54016908D02*
X170026489Y-53969289D01*
X170026489Y-53969289D02*
X169931251Y-53921670D01*
X169931251Y-53921670D02*
X169836013Y-53826432D01*
X169836013Y-53826432D02*
X169788393Y-53683575D01*
X169788393Y-53683575D02*
X169788393Y-53588337D01*
X169788393Y-53588337D02*
X169836013Y-53445480D01*
X169836013Y-53445480D02*
X169883632Y-53397861D01*
X169883632Y-53397861D02*
X170216965Y-53397861D01*
X170216965Y-53397861D02*
X170216965Y-53588337D01*
X170693155Y-53016908D02*
X170740774Y-52969289D01*
X170740774Y-52969289D02*
X170788393Y-52874051D01*
X170788393Y-52874051D02*
X170788393Y-52635956D01*
X170788393Y-52635956D02*
X170740774Y-52540718D01*
X170740774Y-52540718D02*
X170693155Y-52493099D01*
X170693155Y-52493099D02*
X170597917Y-52445480D01*
X170597917Y-52445480D02*
X170502679Y-52445480D01*
X170502679Y-52445480D02*
X170359822Y-52493099D01*
X170359822Y-52493099D02*
X169788393Y-53064527D01*
X169788393Y-53064527D02*
X169788393Y-52445480D01*
X170788393Y-51255003D02*
X169978870Y-51255003D01*
X169978870Y-51255003D02*
X169883632Y-51207384D01*
X169883632Y-51207384D02*
X169836013Y-51159765D01*
X169836013Y-51159765D02*
X169788393Y-51064527D01*
X169788393Y-51064527D02*
X169788393Y-50874051D01*
X169788393Y-50874051D02*
X169836013Y-50778813D01*
X169836013Y-50778813D02*
X169883632Y-50731194D01*
X169883632Y-50731194D02*
X169978870Y-50683575D01*
X169978870Y-50683575D02*
X170788393Y-50683575D01*
X170455060Y-50207384D02*
X169788393Y-50207384D01*
X170359822Y-50207384D02*
X170407441Y-50159765D01*
X170407441Y-50159765D02*
X170455060Y-50064527D01*
X170455060Y-50064527D02*
X170455060Y-49921670D01*
X170455060Y-49921670D02*
X170407441Y-49826432D01*
X170407441Y-49826432D02*
X170312203Y-49778813D01*
X170312203Y-49778813D02*
X169788393Y-49778813D01*
X169788393Y-49302622D02*
X170455060Y-49302622D01*
X170264584Y-49302622D02*
X170359822Y-49255003D01*
X170359822Y-49255003D02*
X170407441Y-49207384D01*
X170407441Y-49207384D02*
X170455060Y-49112146D01*
X170455060Y-49112146D02*
X170455060Y-49016908D01*
X169836013Y-48302622D02*
X169788393Y-48397860D01*
X169788393Y-48397860D02*
X169788393Y-48588336D01*
X169788393Y-48588336D02*
X169836013Y-48683574D01*
X169836013Y-48683574D02*
X169931251Y-48731193D01*
X169931251Y-48731193D02*
X170312203Y-48731193D01*
X170312203Y-48731193D02*
X170407441Y-48683574D01*
X170407441Y-48683574D02*
X170455060Y-48588336D01*
X170455060Y-48588336D02*
X170455060Y-48397860D01*
X170455060Y-48397860D02*
X170407441Y-48302622D01*
X170407441Y-48302622D02*
X170312203Y-48255003D01*
X170312203Y-48255003D02*
X170216965Y-48255003D01*
X170216965Y-48255003D02*
X170121727Y-48731193D01*
X170455060Y-47397860D02*
X169645536Y-47397860D01*
X169645536Y-47397860D02*
X169550298Y-47445479D01*
X169550298Y-47445479D02*
X169502679Y-47493098D01*
X169502679Y-47493098D02*
X169455060Y-47588336D01*
X169455060Y-47588336D02*
X169455060Y-47731193D01*
X169455060Y-47731193D02*
X169502679Y-47826431D01*
X169836013Y-47397860D02*
X169788393Y-47493098D01*
X169788393Y-47493098D02*
X169788393Y-47683574D01*
X169788393Y-47683574D02*
X169836013Y-47778812D01*
X169836013Y-47778812D02*
X169883632Y-47826431D01*
X169883632Y-47826431D02*
X169978870Y-47874050D01*
X169978870Y-47874050D02*
X170264584Y-47874050D01*
X170264584Y-47874050D02*
X170359822Y-47826431D01*
X170359822Y-47826431D02*
X170407441Y-47778812D01*
X170407441Y-47778812D02*
X170455060Y-47683574D01*
X170455060Y-47683574D02*
X170455060Y-47493098D01*
X170455060Y-47493098D02*
X170407441Y-47397860D01*
X170788393Y-46302621D02*
X170788393Y-45731193D01*
X169788393Y-46016907D02*
X170788393Y-46016907D01*
X170788393Y-45493097D02*
X169788393Y-44826431D01*
X170788393Y-44826431D02*
X169788393Y-45493097D01*
X82618393Y-107789289D02*
X83618393Y-107789289D01*
X82618393Y-107217861D02*
X83189822Y-107646432D01*
X83618393Y-107217861D02*
X83046965Y-107789289D01*
X83618393Y-106884527D02*
X83618393Y-106265480D01*
X83618393Y-106265480D02*
X83237441Y-106598813D01*
X83237441Y-106598813D02*
X83237441Y-106455956D01*
X83237441Y-106455956D02*
X83189822Y-106360718D01*
X83189822Y-106360718D02*
X83142203Y-106313099D01*
X83142203Y-106313099D02*
X83046965Y-106265480D01*
X83046965Y-106265480D02*
X82808870Y-106265480D01*
X82808870Y-106265480D02*
X82713632Y-106313099D01*
X82713632Y-106313099D02*
X82666013Y-106360718D01*
X82666013Y-106360718D02*
X82618393Y-106455956D01*
X82618393Y-106455956D02*
X82618393Y-106741670D01*
X82618393Y-106741670D02*
X82666013Y-106836908D01*
X82666013Y-106836908D02*
X82713632Y-106884527D01*
X82618393Y-104503575D02*
X83094584Y-104836908D01*
X82618393Y-105075003D02*
X83618393Y-105075003D01*
X83618393Y-105075003D02*
X83618393Y-104694051D01*
X83618393Y-104694051D02*
X83570774Y-104598813D01*
X83570774Y-104598813D02*
X83523155Y-104551194D01*
X83523155Y-104551194D02*
X83427917Y-104503575D01*
X83427917Y-104503575D02*
X83285060Y-104503575D01*
X83285060Y-104503575D02*
X83189822Y-104551194D01*
X83189822Y-104551194D02*
X83142203Y-104598813D01*
X83142203Y-104598813D02*
X83094584Y-104694051D01*
X83094584Y-104694051D02*
X83094584Y-105075003D01*
X82666013Y-103694051D02*
X82618393Y-103789289D01*
X82618393Y-103789289D02*
X82618393Y-103979765D01*
X82618393Y-103979765D02*
X82666013Y-104075003D01*
X82666013Y-104075003D02*
X82761251Y-104122622D01*
X82761251Y-104122622D02*
X83142203Y-104122622D01*
X83142203Y-104122622D02*
X83237441Y-104075003D01*
X83237441Y-104075003D02*
X83285060Y-103979765D01*
X83285060Y-103979765D02*
X83285060Y-103789289D01*
X83285060Y-103789289D02*
X83237441Y-103694051D01*
X83237441Y-103694051D02*
X83142203Y-103646432D01*
X83142203Y-103646432D02*
X83046965Y-103646432D01*
X83046965Y-103646432D02*
X82951727Y-104122622D01*
X82618393Y-103075003D02*
X82666013Y-103170241D01*
X82666013Y-103170241D02*
X82761251Y-103217860D01*
X82761251Y-103217860D02*
X83618393Y-103217860D01*
X82618393Y-102265479D02*
X83142203Y-102265479D01*
X83142203Y-102265479D02*
X83237441Y-102313098D01*
X83237441Y-102313098D02*
X83285060Y-102408336D01*
X83285060Y-102408336D02*
X83285060Y-102598812D01*
X83285060Y-102598812D02*
X83237441Y-102694050D01*
X82666013Y-102265479D02*
X82618393Y-102360717D01*
X82618393Y-102360717D02*
X82618393Y-102598812D01*
X82618393Y-102598812D02*
X82666013Y-102694050D01*
X82666013Y-102694050D02*
X82761251Y-102741669D01*
X82761251Y-102741669D02*
X82856489Y-102741669D01*
X82856489Y-102741669D02*
X82951727Y-102694050D01*
X82951727Y-102694050D02*
X82999346Y-102598812D01*
X82999346Y-102598812D02*
X82999346Y-102360717D01*
X82999346Y-102360717D02*
X83046965Y-102265479D01*
X83285060Y-101884526D02*
X82618393Y-101646431D01*
X83285060Y-101408336D02*
X82618393Y-101646431D01*
X82618393Y-101646431D02*
X82380298Y-101741669D01*
X82380298Y-101741669D02*
X82332679Y-101789288D01*
X82332679Y-101789288D02*
X82285060Y-101884526D01*
X82666013Y-99836907D02*
X82618393Y-99932145D01*
X82618393Y-99932145D02*
X82618393Y-100122621D01*
X82618393Y-100122621D02*
X82666013Y-100217859D01*
X82666013Y-100217859D02*
X82713632Y-100265478D01*
X82713632Y-100265478D02*
X82808870Y-100313097D01*
X82808870Y-100313097D02*
X83094584Y-100313097D01*
X83094584Y-100313097D02*
X83189822Y-100265478D01*
X83189822Y-100265478D02*
X83237441Y-100217859D01*
X83237441Y-100217859D02*
X83285060Y-100122621D01*
X83285060Y-100122621D02*
X83285060Y-99932145D01*
X83285060Y-99932145D02*
X83237441Y-99836907D01*
X82618393Y-99265478D02*
X82666013Y-99360716D01*
X82666013Y-99360716D02*
X82713632Y-99408335D01*
X82713632Y-99408335D02*
X82808870Y-99455954D01*
X82808870Y-99455954D02*
X83094584Y-99455954D01*
X83094584Y-99455954D02*
X83189822Y-99408335D01*
X83189822Y-99408335D02*
X83237441Y-99360716D01*
X83237441Y-99360716D02*
X83285060Y-99265478D01*
X83285060Y-99265478D02*
X83285060Y-99122621D01*
X83285060Y-99122621D02*
X83237441Y-99027383D01*
X83237441Y-99027383D02*
X83189822Y-98979764D01*
X83189822Y-98979764D02*
X83094584Y-98932145D01*
X83094584Y-98932145D02*
X82808870Y-98932145D01*
X82808870Y-98932145D02*
X82713632Y-98979764D01*
X82713632Y-98979764D02*
X82666013Y-99027383D01*
X82666013Y-99027383D02*
X82618393Y-99122621D01*
X82618393Y-99122621D02*
X82618393Y-99265478D01*
X83285060Y-98503573D02*
X82618393Y-98503573D01*
X83189822Y-98503573D02*
X83237441Y-98455954D01*
X83237441Y-98455954D02*
X83285060Y-98360716D01*
X83285060Y-98360716D02*
X83285060Y-98217859D01*
X83285060Y-98217859D02*
X83237441Y-98122621D01*
X83237441Y-98122621D02*
X83142203Y-98075002D01*
X83142203Y-98075002D02*
X82618393Y-98075002D01*
X83285060Y-97598811D02*
X82618393Y-97598811D01*
X83189822Y-97598811D02*
X83237441Y-97551192D01*
X83237441Y-97551192D02*
X83285060Y-97455954D01*
X83285060Y-97455954D02*
X83285060Y-97313097D01*
X83285060Y-97313097D02*
X83237441Y-97217859D01*
X83237441Y-97217859D02*
X83142203Y-97170240D01*
X83142203Y-97170240D02*
X82618393Y-97170240D01*
X82666013Y-96313097D02*
X82618393Y-96408335D01*
X82618393Y-96408335D02*
X82618393Y-96598811D01*
X82618393Y-96598811D02*
X82666013Y-96694049D01*
X82666013Y-96694049D02*
X82761251Y-96741668D01*
X82761251Y-96741668D02*
X83142203Y-96741668D01*
X83142203Y-96741668D02*
X83237441Y-96694049D01*
X83237441Y-96694049D02*
X83285060Y-96598811D01*
X83285060Y-96598811D02*
X83285060Y-96408335D01*
X83285060Y-96408335D02*
X83237441Y-96313097D01*
X83237441Y-96313097D02*
X83142203Y-96265478D01*
X83142203Y-96265478D02*
X83046965Y-96265478D01*
X83046965Y-96265478D02*
X82951727Y-96741668D01*
X82666013Y-95408335D02*
X82618393Y-95503573D01*
X82618393Y-95503573D02*
X82618393Y-95694049D01*
X82618393Y-95694049D02*
X82666013Y-95789287D01*
X82666013Y-95789287D02*
X82713632Y-95836906D01*
X82713632Y-95836906D02*
X82808870Y-95884525D01*
X82808870Y-95884525D02*
X83094584Y-95884525D01*
X83094584Y-95884525D02*
X83189822Y-95836906D01*
X83189822Y-95836906D02*
X83237441Y-95789287D01*
X83237441Y-95789287D02*
X83285060Y-95694049D01*
X83285060Y-95694049D02*
X83285060Y-95503573D01*
X83285060Y-95503573D02*
X83237441Y-95408335D01*
X83285060Y-95122620D02*
X83285060Y-94741668D01*
X83618393Y-94979763D02*
X82761251Y-94979763D01*
X82761251Y-94979763D02*
X82666013Y-94932144D01*
X82666013Y-94932144D02*
X82618393Y-94836906D01*
X82618393Y-94836906D02*
X82618393Y-94741668D01*
X82618393Y-94408334D02*
X83285060Y-94408334D01*
X83618393Y-94408334D02*
X83570774Y-94455953D01*
X83570774Y-94455953D02*
X83523155Y-94408334D01*
X83523155Y-94408334D02*
X83570774Y-94360715D01*
X83570774Y-94360715D02*
X83618393Y-94408334D01*
X83618393Y-94408334D02*
X83523155Y-94408334D01*
X82618393Y-93789287D02*
X82666013Y-93884525D01*
X82666013Y-93884525D02*
X82713632Y-93932144D01*
X82713632Y-93932144D02*
X82808870Y-93979763D01*
X82808870Y-93979763D02*
X83094584Y-93979763D01*
X83094584Y-93979763D02*
X83189822Y-93932144D01*
X83189822Y-93932144D02*
X83237441Y-93884525D01*
X83237441Y-93884525D02*
X83285060Y-93789287D01*
X83285060Y-93789287D02*
X83285060Y-93646430D01*
X83285060Y-93646430D02*
X83237441Y-93551192D01*
X83237441Y-93551192D02*
X83189822Y-93503573D01*
X83189822Y-93503573D02*
X83094584Y-93455954D01*
X83094584Y-93455954D02*
X82808870Y-93455954D01*
X82808870Y-93455954D02*
X82713632Y-93503573D01*
X82713632Y-93503573D02*
X82666013Y-93551192D01*
X82666013Y-93551192D02*
X82618393Y-93646430D01*
X82618393Y-93646430D02*
X82618393Y-93789287D01*
X83285060Y-93027382D02*
X82618393Y-93027382D01*
X83189822Y-93027382D02*
X83237441Y-92979763D01*
X83237441Y-92979763D02*
X83285060Y-92884525D01*
X83285060Y-92884525D02*
X83285060Y-92741668D01*
X83285060Y-92741668D02*
X83237441Y-92646430D01*
X83237441Y-92646430D02*
X83142203Y-92598811D01*
X83142203Y-92598811D02*
X82618393Y-92598811D01*
X169367624Y-62013507D02*
X169462862Y-61965888D01*
X169462862Y-61965888D02*
X169605719Y-61965888D01*
X169605719Y-61965888D02*
X169748576Y-62013507D01*
X169748576Y-62013507D02*
X169843814Y-62108745D01*
X169843814Y-62108745D02*
X169891433Y-62203983D01*
X169891433Y-62203983D02*
X169939052Y-62394459D01*
X169939052Y-62394459D02*
X169939052Y-62537316D01*
X169939052Y-62537316D02*
X169891433Y-62727792D01*
X169891433Y-62727792D02*
X169843814Y-62823030D01*
X169843814Y-62823030D02*
X169748576Y-62918269D01*
X169748576Y-62918269D02*
X169605719Y-62965888D01*
X169605719Y-62965888D02*
X169510481Y-62965888D01*
X169510481Y-62965888D02*
X169367624Y-62918269D01*
X169367624Y-62918269D02*
X169320005Y-62870649D01*
X169320005Y-62870649D02*
X169320005Y-62537316D01*
X169320005Y-62537316D02*
X169510481Y-62537316D01*
X168939052Y-62061126D02*
X168891433Y-62013507D01*
X168891433Y-62013507D02*
X168796195Y-61965888D01*
X168796195Y-61965888D02*
X168558100Y-61965888D01*
X168558100Y-61965888D02*
X168462862Y-62013507D01*
X168462862Y-62013507D02*
X168415243Y-62061126D01*
X168415243Y-62061126D02*
X168367624Y-62156364D01*
X168367624Y-62156364D02*
X168367624Y-62251602D01*
X168367624Y-62251602D02*
X168415243Y-62394459D01*
X168415243Y-62394459D02*
X168986671Y-62965888D01*
X168986671Y-62965888D02*
X168367624Y-62965888D01*
X166605719Y-62965888D02*
X166939052Y-62489697D01*
X167177147Y-62965888D02*
X167177147Y-61965888D01*
X167177147Y-61965888D02*
X166796195Y-61965888D01*
X166796195Y-61965888D02*
X166700957Y-62013507D01*
X166700957Y-62013507D02*
X166653338Y-62061126D01*
X166653338Y-62061126D02*
X166605719Y-62156364D01*
X166605719Y-62156364D02*
X166605719Y-62299221D01*
X166605719Y-62299221D02*
X166653338Y-62394459D01*
X166653338Y-62394459D02*
X166700957Y-62442078D01*
X166700957Y-62442078D02*
X166796195Y-62489697D01*
X166796195Y-62489697D02*
X167177147Y-62489697D01*
X165796195Y-62918269D02*
X165891433Y-62965888D01*
X165891433Y-62965888D02*
X166081909Y-62965888D01*
X166081909Y-62965888D02*
X166177147Y-62918269D01*
X166177147Y-62918269D02*
X166224766Y-62823030D01*
X166224766Y-62823030D02*
X166224766Y-62442078D01*
X166224766Y-62442078D02*
X166177147Y-62346840D01*
X166177147Y-62346840D02*
X166081909Y-62299221D01*
X166081909Y-62299221D02*
X165891433Y-62299221D01*
X165891433Y-62299221D02*
X165796195Y-62346840D01*
X165796195Y-62346840D02*
X165748576Y-62442078D01*
X165748576Y-62442078D02*
X165748576Y-62537316D01*
X165748576Y-62537316D02*
X166224766Y-62632554D01*
X164891433Y-62299221D02*
X164891433Y-63108745D01*
X164891433Y-63108745D02*
X164939052Y-63203983D01*
X164939052Y-63203983D02*
X164986671Y-63251602D01*
X164986671Y-63251602D02*
X165081909Y-63299221D01*
X165081909Y-63299221D02*
X165224766Y-63299221D01*
X165224766Y-63299221D02*
X165320004Y-63251602D01*
X164891433Y-62918269D02*
X164986671Y-62965888D01*
X164986671Y-62965888D02*
X165177147Y-62965888D01*
X165177147Y-62965888D02*
X165272385Y-62918269D01*
X165272385Y-62918269D02*
X165320004Y-62870649D01*
X165320004Y-62870649D02*
X165367623Y-62775411D01*
X165367623Y-62775411D02*
X165367623Y-62489697D01*
X165367623Y-62489697D02*
X165320004Y-62394459D01*
X165320004Y-62394459D02*
X165272385Y-62346840D01*
X165272385Y-62346840D02*
X165177147Y-62299221D01*
X165177147Y-62299221D02*
X164986671Y-62299221D01*
X164986671Y-62299221D02*
X164891433Y-62346840D01*
X163510480Y-62965888D02*
X163605718Y-62918269D01*
X163605718Y-62918269D02*
X163653337Y-62870649D01*
X163653337Y-62870649D02*
X163700956Y-62775411D01*
X163700956Y-62775411D02*
X163700956Y-62489697D01*
X163700956Y-62489697D02*
X163653337Y-62394459D01*
X163653337Y-62394459D02*
X163605718Y-62346840D01*
X163605718Y-62346840D02*
X163510480Y-62299221D01*
X163510480Y-62299221D02*
X163367623Y-62299221D01*
X163367623Y-62299221D02*
X163272385Y-62346840D01*
X163272385Y-62346840D02*
X163224766Y-62394459D01*
X163224766Y-62394459D02*
X163177147Y-62489697D01*
X163177147Y-62489697D02*
X163177147Y-62775411D01*
X163177147Y-62775411D02*
X163224766Y-62870649D01*
X163224766Y-62870649D02*
X163272385Y-62918269D01*
X163272385Y-62918269D02*
X163367623Y-62965888D01*
X163367623Y-62965888D02*
X163510480Y-62965888D01*
X162320004Y-62299221D02*
X162320004Y-62965888D01*
X162748575Y-62299221D02*
X162748575Y-62823030D01*
X162748575Y-62823030D02*
X162700956Y-62918269D01*
X162700956Y-62918269D02*
X162605718Y-62965888D01*
X162605718Y-62965888D02*
X162462861Y-62965888D01*
X162462861Y-62965888D02*
X162367623Y-62918269D01*
X162367623Y-62918269D02*
X162320004Y-62870649D01*
X161986670Y-62299221D02*
X161605718Y-62299221D01*
X161843813Y-61965888D02*
X161843813Y-62823030D01*
X161843813Y-62823030D02*
X161796194Y-62918269D01*
X161796194Y-62918269D02*
X161700956Y-62965888D01*
X161700956Y-62965888D02*
X161605718Y-62965888D01*
X113042793Y-50344276D02*
X113090413Y-50296657D01*
X113090413Y-50296657D02*
X113138032Y-50153800D01*
X113138032Y-50153800D02*
X113138032Y-50058562D01*
X113138032Y-50058562D02*
X113090413Y-49915705D01*
X113090413Y-49915705D02*
X112995174Y-49820467D01*
X112995174Y-49820467D02*
X112899936Y-49772848D01*
X112899936Y-49772848D02*
X112709460Y-49725229D01*
X112709460Y-49725229D02*
X112566603Y-49725229D01*
X112566603Y-49725229D02*
X112376127Y-49772848D01*
X112376127Y-49772848D02*
X112280889Y-49820467D01*
X112280889Y-49820467D02*
X112185651Y-49915705D01*
X112185651Y-49915705D02*
X112138032Y-50058562D01*
X112138032Y-50058562D02*
X112138032Y-50153800D01*
X112138032Y-50153800D02*
X112185651Y-50296657D01*
X112185651Y-50296657D02*
X112233270Y-50344276D01*
X113138032Y-51201419D02*
X112614222Y-51201419D01*
X112614222Y-51201419D02*
X112518984Y-51153800D01*
X112518984Y-51153800D02*
X112471365Y-51058562D01*
X112471365Y-51058562D02*
X112471365Y-50868086D01*
X112471365Y-50868086D02*
X112518984Y-50772848D01*
X113090413Y-51201419D02*
X113138032Y-51106181D01*
X113138032Y-51106181D02*
X113138032Y-50868086D01*
X113138032Y-50868086D02*
X113090413Y-50772848D01*
X113090413Y-50772848D02*
X112995174Y-50725229D01*
X112995174Y-50725229D02*
X112899936Y-50725229D01*
X112899936Y-50725229D02*
X112804698Y-50772848D01*
X112804698Y-50772848D02*
X112757079Y-50868086D01*
X112757079Y-50868086D02*
X112757079Y-51106181D01*
X112757079Y-51106181D02*
X112709460Y-51201419D01*
X112471365Y-51534753D02*
X112471365Y-51915705D01*
X112138032Y-51677610D02*
X112995174Y-51677610D01*
X112995174Y-51677610D02*
X113090413Y-51725229D01*
X113090413Y-51725229D02*
X113138032Y-51820467D01*
X113138032Y-51820467D02*
X113138032Y-51915705D01*
X113138032Y-52249039D02*
X112138032Y-52249039D01*
X113138032Y-52677610D02*
X112614222Y-52677610D01*
X112614222Y-52677610D02*
X112518984Y-52629991D01*
X112518984Y-52629991D02*
X112471365Y-52534753D01*
X112471365Y-52534753D02*
X112471365Y-52391896D01*
X112471365Y-52391896D02*
X112518984Y-52296658D01*
X112518984Y-52296658D02*
X112566603Y-52249039D01*
X113138032Y-53296658D02*
X113090413Y-53201420D01*
X113090413Y-53201420D02*
X113042793Y-53153801D01*
X113042793Y-53153801D02*
X112947555Y-53106182D01*
X112947555Y-53106182D02*
X112661841Y-53106182D01*
X112661841Y-53106182D02*
X112566603Y-53153801D01*
X112566603Y-53153801D02*
X112518984Y-53201420D01*
X112518984Y-53201420D02*
X112471365Y-53296658D01*
X112471365Y-53296658D02*
X112471365Y-53439515D01*
X112471365Y-53439515D02*
X112518984Y-53534753D01*
X112518984Y-53534753D02*
X112566603Y-53582372D01*
X112566603Y-53582372D02*
X112661841Y-53629991D01*
X112661841Y-53629991D02*
X112947555Y-53629991D01*
X112947555Y-53629991D02*
X113042793Y-53582372D01*
X113042793Y-53582372D02*
X113090413Y-53534753D01*
X113090413Y-53534753D02*
X113138032Y-53439515D01*
X113138032Y-53439515D02*
X113138032Y-53296658D01*
X113138032Y-54487134D02*
X112138032Y-54487134D01*
X113090413Y-54487134D02*
X113138032Y-54391896D01*
X113138032Y-54391896D02*
X113138032Y-54201420D01*
X113138032Y-54201420D02*
X113090413Y-54106182D01*
X113090413Y-54106182D02*
X113042793Y-54058563D01*
X113042793Y-54058563D02*
X112947555Y-54010944D01*
X112947555Y-54010944D02*
X112661841Y-54010944D01*
X112661841Y-54010944D02*
X112566603Y-54058563D01*
X112566603Y-54058563D02*
X112518984Y-54106182D01*
X112518984Y-54106182D02*
X112471365Y-54201420D01*
X112471365Y-54201420D02*
X112471365Y-54391896D01*
X112471365Y-54391896D02*
X112518984Y-54487134D01*
X113090413Y-55344277D02*
X113138032Y-55249039D01*
X113138032Y-55249039D02*
X113138032Y-55058563D01*
X113138032Y-55058563D02*
X113090413Y-54963325D01*
X113090413Y-54963325D02*
X112995174Y-54915706D01*
X112995174Y-54915706D02*
X112614222Y-54915706D01*
X112614222Y-54915706D02*
X112518984Y-54963325D01*
X112518984Y-54963325D02*
X112471365Y-55058563D01*
X112471365Y-55058563D02*
X112471365Y-55249039D01*
X112471365Y-55249039D02*
X112518984Y-55344277D01*
X112518984Y-55344277D02*
X112614222Y-55391896D01*
X112614222Y-55391896D02*
X112709460Y-55391896D01*
X112709460Y-55391896D02*
X112804698Y-54915706D01*
X169950005Y-92125888D02*
X170283338Y-91649697D01*
X170521433Y-92125888D02*
X170521433Y-91125888D01*
X170521433Y-91125888D02*
X170140481Y-91125888D01*
X170140481Y-91125888D02*
X170045243Y-91173507D01*
X170045243Y-91173507D02*
X169997624Y-91221126D01*
X169997624Y-91221126D02*
X169950005Y-91316364D01*
X169950005Y-91316364D02*
X169950005Y-91459221D01*
X169950005Y-91459221D02*
X169997624Y-91554459D01*
X169997624Y-91554459D02*
X170045243Y-91602078D01*
X170045243Y-91602078D02*
X170140481Y-91649697D01*
X170140481Y-91649697D02*
X170521433Y-91649697D01*
X168997624Y-92125888D02*
X169569052Y-92125888D01*
X169283338Y-92125888D02*
X169283338Y-91125888D01*
X169283338Y-91125888D02*
X169378576Y-91268745D01*
X169378576Y-91268745D02*
X169473814Y-91363983D01*
X169473814Y-91363983D02*
X169569052Y-91411602D01*
X168616671Y-91221126D02*
X168569052Y-91173507D01*
X168569052Y-91173507D02*
X168473814Y-91125888D01*
X168473814Y-91125888D02*
X168235719Y-91125888D01*
X168235719Y-91125888D02*
X168140481Y-91173507D01*
X168140481Y-91173507D02*
X168092862Y-91221126D01*
X168092862Y-91221126D02*
X168045243Y-91316364D01*
X168045243Y-91316364D02*
X168045243Y-91411602D01*
X168045243Y-91411602D02*
X168092862Y-91554459D01*
X168092862Y-91554459D02*
X168664290Y-92125888D01*
X168664290Y-92125888D02*
X168045243Y-92125888D01*
X166854766Y-92125888D02*
X166854766Y-91125888D01*
X166854766Y-91602078D02*
X166283338Y-91602078D01*
X166283338Y-92125888D02*
X166283338Y-91125888D01*
X165664290Y-92125888D02*
X165759528Y-92078269D01*
X165759528Y-92078269D02*
X165807147Y-92030649D01*
X165807147Y-92030649D02*
X165854766Y-91935411D01*
X165854766Y-91935411D02*
X165854766Y-91649697D01*
X165854766Y-91649697D02*
X165807147Y-91554459D01*
X165807147Y-91554459D02*
X165759528Y-91506840D01*
X165759528Y-91506840D02*
X165664290Y-91459221D01*
X165664290Y-91459221D02*
X165521433Y-91459221D01*
X165521433Y-91459221D02*
X165426195Y-91506840D01*
X165426195Y-91506840D02*
X165378576Y-91554459D01*
X165378576Y-91554459D02*
X165330957Y-91649697D01*
X165330957Y-91649697D02*
X165330957Y-91935411D01*
X165330957Y-91935411D02*
X165378576Y-92030649D01*
X165378576Y-92030649D02*
X165426195Y-92078269D01*
X165426195Y-92078269D02*
X165521433Y-92125888D01*
X165521433Y-92125888D02*
X165664290Y-92125888D01*
X165045242Y-91459221D02*
X164664290Y-91459221D01*
X164902385Y-91125888D02*
X164902385Y-91983030D01*
X164902385Y-91983030D02*
X164854766Y-92078269D01*
X164854766Y-92078269D02*
X164759528Y-92125888D01*
X164759528Y-92125888D02*
X164664290Y-92125888D01*
X117205651Y-50276657D02*
X117158032Y-50181419D01*
X117158032Y-50181419D02*
X117158032Y-50038562D01*
X117158032Y-50038562D02*
X117205651Y-49895705D01*
X117205651Y-49895705D02*
X117300889Y-49800467D01*
X117300889Y-49800467D02*
X117396127Y-49752848D01*
X117396127Y-49752848D02*
X117586603Y-49705229D01*
X117586603Y-49705229D02*
X117729460Y-49705229D01*
X117729460Y-49705229D02*
X117919936Y-49752848D01*
X117919936Y-49752848D02*
X118015174Y-49800467D01*
X118015174Y-49800467D02*
X118110413Y-49895705D01*
X118110413Y-49895705D02*
X118158032Y-50038562D01*
X118158032Y-50038562D02*
X118158032Y-50133800D01*
X118158032Y-50133800D02*
X118110413Y-50276657D01*
X118110413Y-50276657D02*
X118062793Y-50324276D01*
X118062793Y-50324276D02*
X117729460Y-50324276D01*
X117729460Y-50324276D02*
X117729460Y-50133800D01*
X117253270Y-50705229D02*
X117205651Y-50752848D01*
X117205651Y-50752848D02*
X117158032Y-50848086D01*
X117158032Y-50848086D02*
X117158032Y-51086181D01*
X117158032Y-51086181D02*
X117205651Y-51181419D01*
X117205651Y-51181419D02*
X117253270Y-51229038D01*
X117253270Y-51229038D02*
X117348508Y-51276657D01*
X117348508Y-51276657D02*
X117443746Y-51276657D01*
X117443746Y-51276657D02*
X117586603Y-51229038D01*
X117586603Y-51229038D02*
X118158032Y-50657610D01*
X118158032Y-50657610D02*
X118158032Y-51276657D01*
X117158032Y-52467134D02*
X117967555Y-52467134D01*
X117967555Y-52467134D02*
X118062793Y-52514753D01*
X118062793Y-52514753D02*
X118110413Y-52562372D01*
X118110413Y-52562372D02*
X118158032Y-52657610D01*
X118158032Y-52657610D02*
X118158032Y-52848086D01*
X118158032Y-52848086D02*
X118110413Y-52943324D01*
X118110413Y-52943324D02*
X118062793Y-52990943D01*
X118062793Y-52990943D02*
X117967555Y-53038562D01*
X117967555Y-53038562D02*
X117158032Y-53038562D01*
X117491365Y-53514753D02*
X118158032Y-53514753D01*
X117586603Y-53514753D02*
X117538984Y-53562372D01*
X117538984Y-53562372D02*
X117491365Y-53657610D01*
X117491365Y-53657610D02*
X117491365Y-53800467D01*
X117491365Y-53800467D02*
X117538984Y-53895705D01*
X117538984Y-53895705D02*
X117634222Y-53943324D01*
X117634222Y-53943324D02*
X118158032Y-53943324D01*
X118158032Y-54419515D02*
X117491365Y-54419515D01*
X117681841Y-54419515D02*
X117586603Y-54467134D01*
X117586603Y-54467134D02*
X117538984Y-54514753D01*
X117538984Y-54514753D02*
X117491365Y-54609991D01*
X117491365Y-54609991D02*
X117491365Y-54705229D01*
X118110413Y-55419515D02*
X118158032Y-55324277D01*
X118158032Y-55324277D02*
X118158032Y-55133801D01*
X118158032Y-55133801D02*
X118110413Y-55038563D01*
X118110413Y-55038563D02*
X118015174Y-54990944D01*
X118015174Y-54990944D02*
X117634222Y-54990944D01*
X117634222Y-54990944D02*
X117538984Y-55038563D01*
X117538984Y-55038563D02*
X117491365Y-55133801D01*
X117491365Y-55133801D02*
X117491365Y-55324277D01*
X117491365Y-55324277D02*
X117538984Y-55419515D01*
X117538984Y-55419515D02*
X117634222Y-55467134D01*
X117634222Y-55467134D02*
X117729460Y-55467134D01*
X117729460Y-55467134D02*
X117824698Y-54990944D01*
X117491365Y-56324277D02*
X118300889Y-56324277D01*
X118300889Y-56324277D02*
X118396127Y-56276658D01*
X118396127Y-56276658D02*
X118443746Y-56229039D01*
X118443746Y-56229039D02*
X118491365Y-56133801D01*
X118491365Y-56133801D02*
X118491365Y-55990944D01*
X118491365Y-55990944D02*
X118443746Y-55895706D01*
X118110413Y-56324277D02*
X118158032Y-56229039D01*
X118158032Y-56229039D02*
X118158032Y-56038563D01*
X118158032Y-56038563D02*
X118110413Y-55943325D01*
X118110413Y-55943325D02*
X118062793Y-55895706D01*
X118062793Y-55895706D02*
X117967555Y-55848087D01*
X117967555Y-55848087D02*
X117681841Y-55848087D01*
X117681841Y-55848087D02*
X117586603Y-55895706D01*
X117586603Y-55895706D02*
X117538984Y-55943325D01*
X117538984Y-55943325D02*
X117491365Y-56038563D01*
X117491365Y-56038563D02*
X117491365Y-56229039D01*
X117491365Y-56229039D02*
X117538984Y-56324277D01*
D11*
X80026213Y-40010069D02*
X180017449Y-40010069D01*
X180017449Y-140001305D01*
X80026213Y-140001305D01*
X80026213Y-40010069D01*
M02*
