%TF.GenerationSoftware,KiCad,Pcbnew,8.0.0*%
%TF.CreationDate,2024-02-29T13:53:57+01:00*%
%TF.ProjectId,G2-Control,47322d43-6f6e-4747-926f-6c2e6b696361,rev?*%
%TF.SameCoordinates,Original*%
%TF.FileFunction,Paste,Top*%
%TF.FilePolarity,Positive*%
%FSLAX46Y46*%
G04 Gerber Fmt 4.6, Leading zero omitted, Abs format (unit mm)*
G04 Created by KiCad (PCBNEW 8.0.0) date 2024-02-29 13:53:57*
%MOMM*%
%LPD*%
G01*
G04 APERTURE LIST*
G04 Aperture macros list*
%AMRoundRect*
0 Rectangle with rounded corners*
0 $1 Rounding radius*
0 $2 $3 $4 $5 $6 $7 $8 $9 X,Y pos of 4 corners*
0 Add a 4 corners polygon primitive as box body*
4,1,4,$2,$3,$4,$5,$6,$7,$8,$9,$2,$3,0*
0 Add four circle primitives for the rounded corners*
1,1,$1+$1,$2,$3*
1,1,$1+$1,$4,$5*
1,1,$1+$1,$6,$7*
1,1,$1+$1,$8,$9*
0 Add four rect primitives between the rounded corners*
20,1,$1+$1,$2,$3,$4,$5,0*
20,1,$1+$1,$4,$5,$6,$7,0*
20,1,$1+$1,$6,$7,$8,$9,0*
20,1,$1+$1,$8,$9,$2,$3,0*%
%AMFreePoly0*
4,1,9,3.862500,-0.866500,0.737500,-0.866500,0.737500,-0.450000,-0.737500,-0.450000,-0.737500,0.450000,0.737500,0.450000,0.737500,0.866500,3.862500,0.866500,3.862500,-0.866500,3.862500,-0.866500,$1*%
G04 Aperture macros list end*
%ADD10RoundRect,0.250000X-0.312500X-0.625000X0.312500X-0.625000X0.312500X0.625000X-0.312500X0.625000X0*%
%ADD11RoundRect,0.112500X0.187500X0.112500X-0.187500X0.112500X-0.187500X-0.112500X0.187500X-0.112500X0*%
%ADD12RoundRect,0.150000X0.825000X0.150000X-0.825000X0.150000X-0.825000X-0.150000X0.825000X-0.150000X0*%
%ADD13RoundRect,0.112500X0.112500X-0.187500X0.112500X0.187500X-0.112500X0.187500X-0.112500X-0.187500X0*%
%ADD14RoundRect,0.250000X0.250000X0.475000X-0.250000X0.475000X-0.250000X-0.475000X0.250000X-0.475000X0*%
%ADD15RoundRect,0.250000X0.625000X-0.312500X0.625000X0.312500X-0.625000X0.312500X-0.625000X-0.312500X0*%
%ADD16RoundRect,0.250000X0.650000X-0.325000X0.650000X0.325000X-0.650000X0.325000X-0.650000X-0.325000X0*%
%ADD17RoundRect,0.250000X-0.625000X0.312500X-0.625000X-0.312500X0.625000X-0.312500X0.625000X0.312500X0*%
%ADD18RoundRect,0.250000X-0.650000X0.325000X-0.650000X-0.325000X0.650000X-0.325000X0.650000X0.325000X0*%
%ADD19RoundRect,0.250000X0.475000X-0.250000X0.475000X0.250000X-0.475000X0.250000X-0.475000X-0.250000X0*%
%ADD20RoundRect,0.250000X-0.250000X-0.475000X0.250000X-0.475000X0.250000X0.475000X-0.250000X0.475000X0*%
%ADD21RoundRect,0.250000X-1.500000X-0.550000X1.500000X-0.550000X1.500000X0.550000X-1.500000X0.550000X0*%
%ADD22RoundRect,0.250000X0.325000X0.650000X-0.325000X0.650000X-0.325000X-0.650000X0.325000X-0.650000X0*%
%ADD23RoundRect,0.225000X0.425000X0.225000X-0.425000X0.225000X-0.425000X-0.225000X0.425000X-0.225000X0*%
%ADD24FreePoly0,180.000000*%
%ADD25RoundRect,0.250000X0.312500X0.625000X-0.312500X0.625000X-0.312500X-0.625000X0.312500X-0.625000X0*%
%ADD26RoundRect,0.150000X0.587500X0.150000X-0.587500X0.150000X-0.587500X-0.150000X0.587500X-0.150000X0*%
%ADD27RoundRect,0.250000X-0.550000X1.250000X-0.550000X-1.250000X0.550000X-1.250000X0.550000X1.250000X0*%
%ADD28RoundRect,0.250000X0.550000X-1.500000X0.550000X1.500000X-0.550000X1.500000X-0.550000X-1.500000X0*%
%ADD29RoundRect,0.162500X1.012500X0.162500X-1.012500X0.162500X-1.012500X-0.162500X1.012500X-0.162500X0*%
%TA.AperFunction,Profile*%
%ADD30C,0.100000*%
%TD*%
G04 APERTURE END LIST*
D10*
%TO.C,R25*%
X100026772Y-127307270D03*
X102951772Y-127307270D03*
%TD*%
D11*
%TO.C,D3*%
X120705713Y-108166069D03*
X118605713Y-108166069D03*
%TD*%
D12*
%TO.C,U5*%
X165463213Y-128021069D03*
X165463213Y-126751069D03*
X165463213Y-125481069D03*
X165463213Y-124211069D03*
X160513213Y-124211069D03*
X160513213Y-125481069D03*
X160513213Y-126751069D03*
X160513213Y-128021069D03*
%TD*%
D13*
%TO.C,D5*%
X141113213Y-105610069D03*
X141113213Y-103510069D03*
%TD*%
D14*
%TO.C,C11*%
X159668213Y-104541069D03*
X157768213Y-104541069D03*
%TD*%
D10*
%TO.C,R3*%
X166315713Y-115666069D03*
X169240713Y-115666069D03*
%TD*%
D15*
%TO.C,R22*%
X157810000Y-126762500D03*
X157810000Y-123837500D03*
%TD*%
D16*
%TO.C,C7*%
X132985213Y-105366069D03*
X132985213Y-102416069D03*
%TD*%
D17*
%TO.C,R2*%
X118888213Y-110293569D03*
X118888213Y-113218569D03*
%TD*%
D15*
%TO.C,R20*%
X154218213Y-126168569D03*
X154218213Y-123243569D03*
%TD*%
D18*
%TO.C,C14*%
X102258213Y-117191069D03*
X102258213Y-120141069D03*
%TD*%
D13*
%TO.C,D4*%
X141113213Y-111291069D03*
X141113213Y-109191069D03*
%TD*%
D10*
%TO.C,R27*%
X159195713Y-121156069D03*
X162120713Y-121156069D03*
%TD*%
D16*
%TO.C,C13*%
X102298213Y-125206069D03*
X102298213Y-122256069D03*
%TD*%
D15*
%TO.C,R6*%
X122698213Y-114243569D03*
X122698213Y-111318569D03*
%TD*%
D19*
%TO.C,C4*%
X136446963Y-121031069D03*
X136446963Y-119131069D03*
%TD*%
D13*
%TO.C,D11*%
X151810000Y-125790000D03*
X151810000Y-123690000D03*
%TD*%
D17*
%TO.C,R4*%
X141621963Y-118933569D03*
X141621963Y-121858569D03*
%TD*%
D15*
%TO.C,R7*%
X138573213Y-112338569D03*
X138573213Y-109413569D03*
%TD*%
D20*
%TO.C,C6*%
X128733213Y-103891069D03*
X130633213Y-103891069D03*
%TD*%
D10*
%TO.C,R19*%
X162875713Y-130736069D03*
X165800713Y-130736069D03*
%TD*%
D21*
%TO.C,C16*%
X152510213Y-131704069D03*
X157910213Y-131704069D03*
%TD*%
D22*
%TO.C,C12*%
X125953213Y-85226069D03*
X123003213Y-85226069D03*
%TD*%
D17*
%TO.C,R5*%
X136287213Y-110048569D03*
X136287213Y-112973569D03*
%TD*%
D18*
%TO.C,C3*%
X163878213Y-113391069D03*
X163878213Y-116341069D03*
%TD*%
D15*
%TO.C,R23*%
X170040000Y-123302500D03*
X170040000Y-120377500D03*
%TD*%
%TO.C,R17*%
X166132213Y-81378569D03*
X166132213Y-78453569D03*
%TD*%
%TO.C,R11*%
X167178213Y-104508569D03*
X167178213Y-101583569D03*
%TD*%
D19*
%TO.C,C5*%
X136287213Y-107381069D03*
X136287213Y-105481069D03*
%TD*%
D10*
%TO.C,R18*%
X119985713Y-88036069D03*
X122910713Y-88036069D03*
%TD*%
D23*
%TO.C,U1*%
X128458213Y-121901069D03*
D24*
X128370713Y-120401069D03*
D23*
X128458213Y-118901069D03*
%TD*%
D25*
%TO.C,R29*%
X116630713Y-88596069D03*
X113705713Y-88596069D03*
%TD*%
D10*
%TO.C,R26*%
X154415713Y-121116069D03*
X157340713Y-121116069D03*
%TD*%
D26*
%TO.C,Q5*%
X165995713Y-122226069D03*
X165995713Y-120326069D03*
X164120713Y-121276069D03*
%TD*%
D15*
%TO.C,R24*%
X106508213Y-127568569D03*
X106508213Y-124643569D03*
%TD*%
D27*
%TO.C,C2*%
X168228213Y-107906069D03*
X168228213Y-112306069D03*
%TD*%
D10*
%TO.C,R9*%
X135580713Y-102631069D03*
X138505713Y-102631069D03*
%TD*%
%TO.C,R16*%
X145619713Y-81666069D03*
X148544713Y-81666069D03*
%TD*%
D23*
%TO.C,U4*%
X127248213Y-82716069D03*
D24*
X127160713Y-81216069D03*
D23*
X127248213Y-79716069D03*
%TD*%
D28*
%TO.C,C1*%
X114128213Y-114966069D03*
X114128213Y-109566069D03*
%TD*%
D17*
%TO.C,R1*%
X121968213Y-117668569D03*
X121968213Y-120593569D03*
%TD*%
D29*
%TO.C,U3*%
X134843213Y-92842069D03*
X134843213Y-90302069D03*
X134843213Y-87762069D03*
X125793213Y-87762069D03*
X125793213Y-90302069D03*
X125793213Y-92842069D03*
%TD*%
D30*
X80026213Y-40010069D02*
X180017449Y-40010069D01*
X180017449Y-140001305D01*
X80026213Y-140001305D01*
X80026213Y-40010069D01*
M02*
