%TF.GenerationSoftware,KiCad,Pcbnew,8.0.0*%
%TF.CreationDate,2024-02-29T12:59:18+01:00*%
%TF.ProjectId,G1-ALC,47312d41-4c43-42e6-9b69-6361645f7063,rev?*%
%TF.SameCoordinates,Original*%
%TF.FileFunction,Soldermask,Top*%
%TF.FilePolarity,Negative*%
%FSLAX46Y46*%
G04 Gerber Fmt 4.6, Leading zero omitted, Abs format (unit mm)*
G04 Created by KiCad (PCBNEW 8.0.0) date 2024-02-29 12:59:18*
%MOMM*%
%LPD*%
G01*
G04 APERTURE LIST*
G04 Aperture macros list*
%AMRoundRect*
0 Rectangle with rounded corners*
0 $1 Rounding radius*
0 $2 $3 $4 $5 $6 $7 $8 $9 X,Y pos of 4 corners*
0 Add a 4 corners polygon primitive as box body*
4,1,4,$2,$3,$4,$5,$6,$7,$8,$9,$2,$3,0*
0 Add four circle primitives for the rounded corners*
1,1,$1+$1,$2,$3*
1,1,$1+$1,$4,$5*
1,1,$1+$1,$6,$7*
1,1,$1+$1,$8,$9*
0 Add four rect primitives between the rounded corners*
20,1,$1+$1,$2,$3,$4,$5,0*
20,1,$1+$1,$4,$5,$6,$7,0*
20,1,$1+$1,$6,$7,$8,$9,0*
20,1,$1+$1,$8,$9,$2,$3,0*%
G04 Aperture macros list end*
%ADD10C,1.200000*%
%ADD11RoundRect,0.249999X-1.550001X0.790001X-1.550001X-0.790001X1.550001X-0.790001X1.550001X0.790001X0*%
%ADD12O,3.600000X2.080000*%
%ADD13RoundRect,0.249999X-0.790001X-1.550001X0.790001X-1.550001X0.790001X1.550001X-0.790001X1.550001X0*%
%ADD14O,2.080000X3.600000*%
%ADD15RoundRect,0.249999X1.550001X-0.790001X1.550001X0.790001X-1.550001X0.790001X-1.550001X-0.790001X0*%
%ADD16RoundRect,0.249999X0.790001X1.550001X-0.790001X1.550001X-0.790001X-1.550001X0.790001X-1.550001X0*%
%ADD17RoundRect,0.150000X-0.837500X-0.150000X0.837500X-0.150000X0.837500X0.150000X-0.837500X0.150000X0*%
%ADD18RoundRect,0.250000X0.650000X-0.325000X0.650000X0.325000X-0.650000X0.325000X-0.650000X-0.325000X0*%
%ADD19RoundRect,0.250000X-0.650000X0.325000X-0.650000X-0.325000X0.650000X-0.325000X0.650000X0.325000X0*%
%ADD20RoundRect,0.250000X-0.325000X-0.650000X0.325000X-0.650000X0.325000X0.650000X-0.325000X0.650000X0*%
%ADD21RoundRect,0.250000X0.325000X0.650000X-0.325000X0.650000X-0.325000X-0.650000X0.325000X-0.650000X0*%
%ADD22RoundRect,0.250000X-0.625000X0.312500X-0.625000X-0.312500X0.625000X-0.312500X0.625000X0.312500X0*%
%ADD23RoundRect,0.250000X-0.312500X-0.625000X0.312500X-0.625000X0.312500X0.625000X-0.312500X0.625000X0*%
%ADD24RoundRect,0.250000X0.625000X-0.312500X0.625000X0.312500X-0.625000X0.312500X-0.625000X-0.312500X0*%
%ADD25RoundRect,0.250000X0.312500X0.625000X-0.312500X0.625000X-0.312500X-0.625000X0.312500X-0.625000X0*%
%ADD26RoundRect,0.250000X0.475000X-0.250000X0.475000X0.250000X-0.475000X0.250000X-0.475000X-0.250000X0*%
%ADD27R,2.400000X2.400000*%
%ADD28C,2.400000*%
%ADD29R,2.200000X2.200000*%
%ADD30O,2.200000X2.200000*%
%ADD31O,2.400000X2.400000*%
%ADD32C,5.600000*%
%ADD33R,1.905000X2.000000*%
%ADD34O,1.905000X2.000000*%
%ADD35R,1.600000X1.600000*%
%ADD36O,1.600000X1.600000*%
%ADD37RoundRect,0.112500X-0.187500X-0.112500X0.187500X-0.112500X0.187500X0.112500X-0.187500X0.112500X0*%
%ADD38RoundRect,0.112500X0.187500X0.112500X-0.187500X0.112500X-0.187500X-0.112500X0.187500X-0.112500X0*%
%ADD39R,4.000000X4.000000*%
%ADD40C,4.000000*%
%ADD41RoundRect,0.250000X-0.475000X0.250000X-0.475000X-0.250000X0.475000X-0.250000X0.475000X0.250000X0*%
%ADD42RoundRect,0.112500X0.112500X-0.187500X0.112500X0.187500X-0.112500X0.187500X-0.112500X-0.187500X0*%
%ADD43C,1.600000*%
%ADD44R,2.000000X2.000000*%
%ADD45O,2.000000X2.000000*%
%ADD46C,1.440000*%
%ADD47R,2.000000X1.905000*%
%ADD48O,2.000000X1.905000*%
%TA.AperFunction,Profile*%
%ADD49C,0.100000*%
%TD*%
G04 APERTURE END LIST*
D10*
X50670000Y-25750000D02*
X149360000Y-25750000D01*
X50750000Y-25500000D02*
X50750000Y-124500000D01*
X50500000Y-124500000D02*
X149352000Y-124500000D01*
X149250000Y-25500000D02*
X149250000Y-124500000D01*
D11*
%TO.C,J102*%
X57343500Y-38977500D03*
D12*
X57343500Y-44057500D03*
X57343500Y-49137500D03*
%TD*%
D13*
%TO.C,J101*%
X60960000Y-119340500D03*
D14*
X66040000Y-119340500D03*
X71120000Y-119340500D03*
%TD*%
D15*
%TO.C,J107*%
X144222500Y-113700000D03*
D12*
X144222500Y-108620000D03*
X144222500Y-103540000D03*
X144222500Y-98460000D03*
X144222500Y-93380000D03*
X144222500Y-88300000D03*
%TD*%
D15*
%TO.C,J108*%
X144222500Y-79700000D03*
D12*
X144222500Y-74620000D03*
X144222500Y-69540000D03*
X144222500Y-64460000D03*
X144222500Y-59380000D03*
X144222500Y-54300000D03*
%TD*%
D13*
%TO.C,J104*%
X138960000Y-45722500D03*
D14*
X144040000Y-45722500D03*
%TD*%
D16*
%TO.C,J103*%
X125222000Y-35853500D03*
D14*
X120142000Y-35853500D03*
X115062000Y-35853500D03*
X109982000Y-35853500D03*
%TD*%
D11*
%TO.C,J105*%
X61638700Y-58343800D03*
D12*
X61638700Y-63423800D03*
X61638700Y-68503800D03*
%TD*%
D17*
%TO.C,U102*%
X68867500Y-89611367D03*
X68867500Y-90881367D03*
X68867500Y-92151367D03*
X68867500Y-93421367D03*
X68867500Y-94691367D03*
X68867500Y-95961367D03*
X68867500Y-97231367D03*
X75792500Y-97231367D03*
X75792500Y-95961367D03*
X75792500Y-94691367D03*
X75792500Y-93421367D03*
X75792500Y-92151367D03*
X75792500Y-90881367D03*
X75792500Y-89611367D03*
%TD*%
D18*
%TO.C,C106*%
X112776000Y-117807000D03*
X112776000Y-114857000D03*
%TD*%
D19*
%TO.C,C120*%
X62770000Y-98600000D03*
X62770000Y-101550000D03*
%TD*%
%TO.C,C118*%
X58404896Y-94646428D03*
X58404896Y-97596428D03*
%TD*%
%TO.C,C121*%
X113317476Y-99051500D03*
X113317476Y-102001500D03*
%TD*%
%TO.C,C109*%
X116000000Y-120025000D03*
X116000000Y-122975000D03*
%TD*%
D20*
%TO.C,C116*%
X74305000Y-86475367D03*
X77255000Y-86475367D03*
%TD*%
D19*
%TO.C,C113*%
X117889476Y-99051500D03*
X117889476Y-102001500D03*
%TD*%
D18*
%TO.C,C108*%
X92620000Y-90025000D03*
X92620000Y-87075000D03*
%TD*%
D19*
%TO.C,C111*%
X78680000Y-98296367D03*
X78680000Y-101246367D03*
%TD*%
D20*
%TO.C,C115*%
X58995000Y-85019867D03*
X61945000Y-85019867D03*
%TD*%
D21*
%TO.C,C110*%
X65885000Y-106530000D03*
X62935000Y-106530000D03*
%TD*%
D22*
%TO.C,R125*%
X65430000Y-98573000D03*
X65430000Y-101498000D03*
%TD*%
D23*
%TO.C,R128*%
X69377500Y-69870000D03*
X72302500Y-69870000D03*
%TD*%
%TO.C,R117*%
X56763500Y-81645367D03*
X59688500Y-81645367D03*
%TD*%
D22*
%TO.C,R112*%
X84014000Y-93482867D03*
X84014000Y-96407867D03*
%TD*%
D24*
%TO.C,R121*%
X67940000Y-103142500D03*
X67940000Y-100217500D03*
%TD*%
%TO.C,R116*%
X56680000Y-87792367D03*
X56680000Y-84867367D03*
%TD*%
D23*
%TO.C,R114*%
X112870976Y-95446500D03*
X115795976Y-95446500D03*
%TD*%
D25*
%TO.C,R120*%
X82068500Y-87237367D03*
X79143500Y-87237367D03*
%TD*%
D23*
%TO.C,R118*%
X59007500Y-87559867D03*
X61932500Y-87559867D03*
%TD*%
D25*
%TO.C,R106*%
X103962500Y-65500000D03*
X101037500Y-65500000D03*
%TD*%
%TO.C,R111*%
X83952500Y-98501367D03*
X81027500Y-98501367D03*
%TD*%
D23*
%TO.C,R126*%
X70087500Y-101549867D03*
X73012500Y-101549867D03*
%TD*%
D22*
%TO.C,R115*%
X53940000Y-79447367D03*
X53940000Y-82372367D03*
%TD*%
%TO.C,R301*%
X108890000Y-81157500D03*
X108890000Y-84082500D03*
%TD*%
D23*
%TO.C,R119*%
X69491500Y-86475367D03*
X72416500Y-86475367D03*
%TD*%
D24*
%TO.C,R108*%
X102560000Y-75112500D03*
X102560000Y-72187500D03*
%TD*%
%TO.C,R127*%
X78710000Y-106472367D03*
X78710000Y-103547367D03*
%TD*%
D22*
%TO.C,R113*%
X81474000Y-93228867D03*
X81474000Y-96153867D03*
%TD*%
D23*
%TO.C,R124*%
X61147500Y-94789867D03*
X64072500Y-94789867D03*
%TD*%
D22*
%TO.C,R122*%
X54296000Y-94752867D03*
X54296000Y-97677867D03*
%TD*%
D26*
%TO.C,C114*%
X66234000Y-92339367D03*
X66234000Y-90439367D03*
%TD*%
D27*
%TO.C,C105*%
X101142800Y-110559200D03*
D28*
X101142800Y-118059200D03*
%TD*%
D29*
%TO.C,D301*%
X110500000Y-54420000D03*
D30*
X110500000Y-64580000D03*
%TD*%
D28*
%TO.C,RLK1*%
X87824000Y-91135367D03*
D31*
X87824000Y-98755367D03*
%TD*%
D32*
%TO.C,H104*%
X146250000Y-121326000D03*
%TD*%
D33*
%TO.C,U101*%
X126034800Y-120294400D03*
D34*
X123494800Y-120294400D03*
X120954800Y-120294400D03*
%TD*%
D35*
%TO.C,U301*%
X112975000Y-84300000D03*
D36*
X115515000Y-84300000D03*
X118055000Y-84300000D03*
X118055000Y-76680000D03*
X115515000Y-76680000D03*
X112975000Y-76680000D03*
%TD*%
D37*
%TO.C,D122*%
X74582000Y-102057367D03*
X76682000Y-102057367D03*
%TD*%
D27*
%TO.C,D103*%
X73230000Y-61230000D03*
D31*
X73230000Y-45990000D03*
%TD*%
D29*
%TO.C,D120*%
X133096000Y-111760000D03*
D30*
X133096000Y-121920000D03*
%TD*%
D38*
%TO.C,D124*%
X111550000Y-106500000D03*
X109450000Y-106500000D03*
%TD*%
D39*
%TO.C,C103*%
X120839775Y-61384316D03*
D40*
X130839775Y-61384316D03*
%TD*%
D28*
%TO.C,R103*%
X131965000Y-29710000D03*
D31*
X139585000Y-29710000D03*
%TD*%
D32*
%TO.C,H103*%
X53750000Y-121250000D03*
%TD*%
D41*
%TO.C,C112*%
X78172000Y-94503367D03*
X78172000Y-96403367D03*
%TD*%
D29*
%TO.C,D110*%
X141080000Y-34750000D03*
D30*
X130920000Y-34750000D03*
%TD*%
D29*
%TO.C,D119*%
X116669476Y-106783000D03*
D30*
X116669476Y-116943000D03*
%TD*%
D35*
%TO.C,U103*%
X72121000Y-72229500D03*
D36*
X69581000Y-72229500D03*
X67041000Y-72229500D03*
X67041000Y-79849500D03*
X69581000Y-79849500D03*
X72121000Y-79849500D03*
%TD*%
D29*
%TO.C,D118*%
X105116182Y-86928000D03*
D30*
X100036182Y-86928000D03*
%TD*%
D38*
%TO.C,D121*%
X83032000Y-102057367D03*
X80932000Y-102057367D03*
%TD*%
D42*
%TO.C,D123*%
X66210000Y-88899867D03*
X66210000Y-86799867D03*
%TD*%
D29*
%TO.C,D111*%
X132170000Y-38250000D03*
D30*
X142330000Y-38250000D03*
%TD*%
D28*
%TO.C,R110*%
X96715000Y-91500000D03*
D31*
X104335000Y-91500000D03*
%TD*%
D27*
%TO.C,D104*%
X81280000Y-40960000D03*
D31*
X66040000Y-40960000D03*
%TD*%
D28*
%TO.C,R101*%
X65560000Y-29660000D03*
D31*
X80800000Y-29660000D03*
%TD*%
D29*
%TO.C,D114*%
X107193376Y-67580000D03*
D30*
X107193376Y-57420000D03*
%TD*%
D28*
%TO.C,R105*%
X90215000Y-76750000D03*
D31*
X97835000Y-76750000D03*
%TD*%
D29*
%TO.C,D112*%
X117920000Y-29210000D03*
D30*
X128080000Y-29210000D03*
%TD*%
D43*
%TO.C,C104*%
X107750000Y-50000000D03*
X102750000Y-50000000D03*
%TD*%
D29*
%TO.C,D115*%
X82910000Y-65500000D03*
D30*
X93070000Y-65500000D03*
%TD*%
D28*
%TO.C,R102*%
X80800000Y-35050000D03*
D31*
X65560000Y-35050000D03*
%TD*%
D27*
%TO.C,C101*%
X90500000Y-57500000D03*
D28*
X90500000Y-50000000D03*
%TD*%
%TO.C,R107*%
X102920800Y-41537400D03*
D31*
X102920800Y-33917400D03*
%TD*%
D28*
%TO.C,R104*%
X117460000Y-45770000D03*
D31*
X132700000Y-45770000D03*
%TD*%
D44*
%TO.C,BR101*%
X83272000Y-120610000D03*
D45*
X83272000Y-115610000D03*
X78272000Y-115610000D03*
X78272000Y-120610000D03*
%TD*%
D29*
%TO.C,D113*%
X103420000Y-29210000D03*
D30*
X113580000Y-29210000D03*
%TD*%
D27*
%TO.C,C102*%
X91821000Y-38869000D03*
D28*
X91821000Y-31369000D03*
%TD*%
D46*
%TO.C,RV103*%
X105540476Y-101740000D03*
X108080476Y-99200000D03*
X105540476Y-96660000D03*
%TD*%
D26*
%TO.C,C117*%
X78680000Y-92339367D03*
X78680000Y-90439367D03*
%TD*%
D27*
%TO.C,D101*%
X79320000Y-45960000D03*
D31*
X79320000Y-61200000D03*
%TD*%
D32*
%TO.C,H101*%
X146250000Y-28750000D03*
%TD*%
D35*
%TO.C,C107*%
X84582000Y-106482000D03*
D43*
X84582000Y-109982000D03*
%TD*%
D46*
%TO.C,RV101*%
X53950000Y-103945000D03*
X56490000Y-106485000D03*
X59030000Y-103945000D03*
%TD*%
D47*
%TO.C,Q101*%
X103250000Y-60750000D03*
D48*
X103250000Y-58210000D03*
X103250000Y-55670000D03*
%TD*%
D32*
%TO.C,H102*%
X53750000Y-28750000D03*
%TD*%
D29*
%TO.C,D117*%
X66370000Y-66910000D03*
D30*
X76530000Y-66910000D03*
%TD*%
D27*
%TO.C,D102*%
X67070000Y-61230000D03*
D31*
X67070000Y-45990000D03*
%TD*%
D28*
%TO.C,R109*%
X89154000Y-114571000D03*
D31*
X89154000Y-122191000D03*
%TD*%
D29*
%TO.C,D116*%
X96250000Y-62420000D03*
D30*
X96250000Y-72580000D03*
%TD*%
D41*
%TO.C,C119*%
X66234000Y-94503367D03*
X66234000Y-96403367D03*
%TD*%
D49*
X50034000Y-25000000D02*
X150000000Y-25000000D01*
X150000000Y-125076000D01*
X50034000Y-125076000D01*
X50034000Y-25000000D01*
M02*
