%TF.GenerationSoftware,KiCad,Pcbnew,8.0.0*%
%TF.CreationDate,2024-02-29T12:59:18+01:00*%
%TF.ProjectId,G1-ALC,47312d41-4c43-42e6-9b69-6361645f7063,rev?*%
%TF.SameCoordinates,Original*%
%TF.FileFunction,Legend,Bot*%
%TF.FilePolarity,Positive*%
%FSLAX46Y46*%
G04 Gerber Fmt 4.6, Leading zero omitted, Abs format (unit mm)*
G04 Created by KiCad (PCBNEW 8.0.0) date 2024-02-29 12:59:18*
%MOMM*%
%LPD*%
G01*
G04 APERTURE LIST*
%ADD10C,0.150000*%
%TA.AperFunction,Profile*%
%ADD11C,0.100000*%
%TD*%
G04 APERTURE END LIST*
D10*
X138163220Y-64488866D02*
X137401316Y-64488866D01*
X137782268Y-64869819D02*
X137782268Y-64107914D01*
X136401316Y-64869819D02*
X136972744Y-64869819D01*
X136687030Y-64869819D02*
X136687030Y-63869819D01*
X136687030Y-63869819D02*
X136782268Y-64012676D01*
X136782268Y-64012676D02*
X136877506Y-64107914D01*
X136877506Y-64107914D02*
X136972744Y-64155533D01*
X136020363Y-63965057D02*
X135972744Y-63917438D01*
X135972744Y-63917438D02*
X135877506Y-63869819D01*
X135877506Y-63869819D02*
X135639411Y-63869819D01*
X135639411Y-63869819D02*
X135544173Y-63917438D01*
X135544173Y-63917438D02*
X135496554Y-63965057D01*
X135496554Y-63965057D02*
X135448935Y-64060295D01*
X135448935Y-64060295D02*
X135448935Y-64155533D01*
X135448935Y-64155533D02*
X135496554Y-64298390D01*
X135496554Y-64298390D02*
X136067982Y-64869819D01*
X136067982Y-64869819D02*
X135448935Y-64869819D01*
X135163220Y-63869819D02*
X134829887Y-64869819D01*
X134829887Y-64869819D02*
X134496554Y-63869819D01*
X137639411Y-69417438D02*
X137734649Y-69369819D01*
X137734649Y-69369819D02*
X137877506Y-69369819D01*
X137877506Y-69369819D02*
X138020363Y-69417438D01*
X138020363Y-69417438D02*
X138115601Y-69512676D01*
X138115601Y-69512676D02*
X138163220Y-69607914D01*
X138163220Y-69607914D02*
X138210839Y-69798390D01*
X138210839Y-69798390D02*
X138210839Y-69941247D01*
X138210839Y-69941247D02*
X138163220Y-70131723D01*
X138163220Y-70131723D02*
X138115601Y-70226961D01*
X138115601Y-70226961D02*
X138020363Y-70322200D01*
X138020363Y-70322200D02*
X137877506Y-70369819D01*
X137877506Y-70369819D02*
X137782268Y-70369819D01*
X137782268Y-70369819D02*
X137639411Y-70322200D01*
X137639411Y-70322200D02*
X137591792Y-70274580D01*
X137591792Y-70274580D02*
X137591792Y-69941247D01*
X137591792Y-69941247D02*
X137782268Y-69941247D01*
X137163220Y-70369819D02*
X137163220Y-69369819D01*
X137163220Y-69369819D02*
X136591792Y-70369819D01*
X136591792Y-70369819D02*
X136591792Y-69369819D01*
X136115601Y-70369819D02*
X136115601Y-69369819D01*
X136115601Y-69369819D02*
X135877506Y-69369819D01*
X135877506Y-69369819D02*
X135734649Y-69417438D01*
X135734649Y-69417438D02*
X135639411Y-69512676D01*
X135639411Y-69512676D02*
X135591792Y-69607914D01*
X135591792Y-69607914D02*
X135544173Y-69798390D01*
X135544173Y-69798390D02*
X135544173Y-69941247D01*
X135544173Y-69941247D02*
X135591792Y-70131723D01*
X135591792Y-70131723D02*
X135639411Y-70226961D01*
X135639411Y-70226961D02*
X135734649Y-70322200D01*
X135734649Y-70322200D02*
X135877506Y-70369819D01*
X135877506Y-70369819D02*
X136115601Y-70369819D01*
X138093220Y-113988866D02*
X137331316Y-113988866D01*
X137712268Y-114369819D02*
X137712268Y-113607914D01*
X136902744Y-113465057D02*
X136855125Y-113417438D01*
X136855125Y-113417438D02*
X136759887Y-113369819D01*
X136759887Y-113369819D02*
X136521792Y-113369819D01*
X136521792Y-113369819D02*
X136426554Y-113417438D01*
X136426554Y-113417438D02*
X136378935Y-113465057D01*
X136378935Y-113465057D02*
X136331316Y-113560295D01*
X136331316Y-113560295D02*
X136331316Y-113655533D01*
X136331316Y-113655533D02*
X136378935Y-113798390D01*
X136378935Y-113798390D02*
X136950363Y-114369819D01*
X136950363Y-114369819D02*
X136331316Y-114369819D01*
X135474173Y-113703152D02*
X135474173Y-114369819D01*
X135712268Y-113322200D02*
X135950363Y-114036485D01*
X135950363Y-114036485D02*
X135331316Y-114036485D01*
X135093220Y-113369819D02*
X134759887Y-114369819D01*
X134759887Y-114369819D02*
X134426554Y-113369819D01*
X119827438Y-41580588D02*
X119779819Y-41485350D01*
X119779819Y-41485350D02*
X119779819Y-41342493D01*
X119779819Y-41342493D02*
X119827438Y-41199636D01*
X119827438Y-41199636D02*
X119922676Y-41104398D01*
X119922676Y-41104398D02*
X120017914Y-41056779D01*
X120017914Y-41056779D02*
X120208390Y-41009160D01*
X120208390Y-41009160D02*
X120351247Y-41009160D01*
X120351247Y-41009160D02*
X120541723Y-41056779D01*
X120541723Y-41056779D02*
X120636961Y-41104398D01*
X120636961Y-41104398D02*
X120732200Y-41199636D01*
X120732200Y-41199636D02*
X120779819Y-41342493D01*
X120779819Y-41342493D02*
X120779819Y-41437731D01*
X120779819Y-41437731D02*
X120732200Y-41580588D01*
X120732200Y-41580588D02*
X120684580Y-41628207D01*
X120684580Y-41628207D02*
X120351247Y-41628207D01*
X120351247Y-41628207D02*
X120351247Y-41437731D01*
X120779819Y-42580588D02*
X120779819Y-42009160D01*
X120779819Y-42294874D02*
X119779819Y-42294874D01*
X119779819Y-42294874D02*
X119922676Y-42199636D01*
X119922676Y-42199636D02*
X120017914Y-42104398D01*
X120017914Y-42104398D02*
X120065533Y-42009160D01*
X120779819Y-43771065D02*
X119779819Y-43771065D01*
X119779819Y-43771065D02*
X120494104Y-44104398D01*
X120494104Y-44104398D02*
X119779819Y-44437731D01*
X119779819Y-44437731D02*
X120779819Y-44437731D01*
X120732200Y-45294874D02*
X120779819Y-45199636D01*
X120779819Y-45199636D02*
X120779819Y-45009160D01*
X120779819Y-45009160D02*
X120732200Y-44913922D01*
X120732200Y-44913922D02*
X120636961Y-44866303D01*
X120636961Y-44866303D02*
X120256009Y-44866303D01*
X120256009Y-44866303D02*
X120160771Y-44913922D01*
X120160771Y-44913922D02*
X120113152Y-45009160D01*
X120113152Y-45009160D02*
X120113152Y-45199636D01*
X120113152Y-45199636D02*
X120160771Y-45294874D01*
X120160771Y-45294874D02*
X120256009Y-45342493D01*
X120256009Y-45342493D02*
X120351247Y-45342493D01*
X120351247Y-45342493D02*
X120446485Y-44866303D01*
X120113152Y-45628208D02*
X120113152Y-46009160D01*
X119779819Y-45771065D02*
X120636961Y-45771065D01*
X120636961Y-45771065D02*
X120732200Y-45818684D01*
X120732200Y-45818684D02*
X120779819Y-45913922D01*
X120779819Y-45913922D02*
X120779819Y-46009160D01*
X120732200Y-46723446D02*
X120779819Y-46628208D01*
X120779819Y-46628208D02*
X120779819Y-46437732D01*
X120779819Y-46437732D02*
X120732200Y-46342494D01*
X120732200Y-46342494D02*
X120636961Y-46294875D01*
X120636961Y-46294875D02*
X120256009Y-46294875D01*
X120256009Y-46294875D02*
X120160771Y-46342494D01*
X120160771Y-46342494D02*
X120113152Y-46437732D01*
X120113152Y-46437732D02*
X120113152Y-46628208D01*
X120113152Y-46628208D02*
X120160771Y-46723446D01*
X120160771Y-46723446D02*
X120256009Y-46771065D01*
X120256009Y-46771065D02*
X120351247Y-46771065D01*
X120351247Y-46771065D02*
X120446485Y-46294875D01*
X120779819Y-47199637D02*
X120113152Y-47199637D01*
X120303628Y-47199637D02*
X120208390Y-47247256D01*
X120208390Y-47247256D02*
X120160771Y-47294875D01*
X120160771Y-47294875D02*
X120113152Y-47390113D01*
X120113152Y-47390113D02*
X120113152Y-47485351D01*
X120398866Y-48580590D02*
X120398866Y-49342495D01*
X138591792Y-59774580D02*
X138639411Y-59822200D01*
X138639411Y-59822200D02*
X138782268Y-59869819D01*
X138782268Y-59869819D02*
X138877506Y-59869819D01*
X138877506Y-59869819D02*
X139020363Y-59822200D01*
X139020363Y-59822200D02*
X139115601Y-59726961D01*
X139115601Y-59726961D02*
X139163220Y-59631723D01*
X139163220Y-59631723D02*
X139210839Y-59441247D01*
X139210839Y-59441247D02*
X139210839Y-59298390D01*
X139210839Y-59298390D02*
X139163220Y-59107914D01*
X139163220Y-59107914D02*
X139115601Y-59012676D01*
X139115601Y-59012676D02*
X139020363Y-58917438D01*
X139020363Y-58917438D02*
X138877506Y-58869819D01*
X138877506Y-58869819D02*
X138782268Y-58869819D01*
X138782268Y-58869819D02*
X138639411Y-58917438D01*
X138639411Y-58917438D02*
X138591792Y-58965057D01*
X137734649Y-59869819D02*
X137734649Y-59346009D01*
X137734649Y-59346009D02*
X137782268Y-59250771D01*
X137782268Y-59250771D02*
X137877506Y-59203152D01*
X137877506Y-59203152D02*
X138067982Y-59203152D01*
X138067982Y-59203152D02*
X138163220Y-59250771D01*
X137734649Y-59822200D02*
X137829887Y-59869819D01*
X137829887Y-59869819D02*
X138067982Y-59869819D01*
X138067982Y-59869819D02*
X138163220Y-59822200D01*
X138163220Y-59822200D02*
X138210839Y-59726961D01*
X138210839Y-59726961D02*
X138210839Y-59631723D01*
X138210839Y-59631723D02*
X138163220Y-59536485D01*
X138163220Y-59536485D02*
X138067982Y-59488866D01*
X138067982Y-59488866D02*
X137829887Y-59488866D01*
X137829887Y-59488866D02*
X137734649Y-59441247D01*
X137401315Y-59203152D02*
X137020363Y-59203152D01*
X137258458Y-58869819D02*
X137258458Y-59726961D01*
X137258458Y-59726961D02*
X137210839Y-59822200D01*
X137210839Y-59822200D02*
X137115601Y-59869819D01*
X137115601Y-59869819D02*
X137020363Y-59869819D01*
X136687029Y-59869819D02*
X136687029Y-58869819D01*
X136258458Y-59869819D02*
X136258458Y-59346009D01*
X136258458Y-59346009D02*
X136306077Y-59250771D01*
X136306077Y-59250771D02*
X136401315Y-59203152D01*
X136401315Y-59203152D02*
X136544172Y-59203152D01*
X136544172Y-59203152D02*
X136639410Y-59250771D01*
X136639410Y-59250771D02*
X136687029Y-59298390D01*
X135639410Y-59869819D02*
X135734648Y-59822200D01*
X135734648Y-59822200D02*
X135782267Y-59774580D01*
X135782267Y-59774580D02*
X135829886Y-59679342D01*
X135829886Y-59679342D02*
X135829886Y-59393628D01*
X135829886Y-59393628D02*
X135782267Y-59298390D01*
X135782267Y-59298390D02*
X135734648Y-59250771D01*
X135734648Y-59250771D02*
X135639410Y-59203152D01*
X135639410Y-59203152D02*
X135496553Y-59203152D01*
X135496553Y-59203152D02*
X135401315Y-59250771D01*
X135401315Y-59250771D02*
X135353696Y-59298390D01*
X135353696Y-59298390D02*
X135306077Y-59393628D01*
X135306077Y-59393628D02*
X135306077Y-59679342D01*
X135306077Y-59679342D02*
X135353696Y-59774580D01*
X135353696Y-59774580D02*
X135401315Y-59822200D01*
X135401315Y-59822200D02*
X135496553Y-59869819D01*
X135496553Y-59869819D02*
X135639410Y-59869819D01*
X134448934Y-59869819D02*
X134448934Y-58869819D01*
X134448934Y-59822200D02*
X134544172Y-59869819D01*
X134544172Y-59869819D02*
X134734648Y-59869819D01*
X134734648Y-59869819D02*
X134829886Y-59822200D01*
X134829886Y-59822200D02*
X134877505Y-59774580D01*
X134877505Y-59774580D02*
X134925124Y-59679342D01*
X134925124Y-59679342D02*
X134925124Y-59393628D01*
X134925124Y-59393628D02*
X134877505Y-59298390D01*
X134877505Y-59298390D02*
X134829886Y-59250771D01*
X134829886Y-59250771D02*
X134734648Y-59203152D01*
X134734648Y-59203152D02*
X134544172Y-59203152D01*
X134544172Y-59203152D02*
X134448934Y-59250771D01*
X133591791Y-59822200D02*
X133687029Y-59869819D01*
X133687029Y-59869819D02*
X133877505Y-59869819D01*
X133877505Y-59869819D02*
X133972743Y-59822200D01*
X133972743Y-59822200D02*
X134020362Y-59726961D01*
X134020362Y-59726961D02*
X134020362Y-59346009D01*
X134020362Y-59346009D02*
X133972743Y-59250771D01*
X133972743Y-59250771D02*
X133877505Y-59203152D01*
X133877505Y-59203152D02*
X133687029Y-59203152D01*
X133687029Y-59203152D02*
X133591791Y-59250771D01*
X133591791Y-59250771D02*
X133544172Y-59346009D01*
X133544172Y-59346009D02*
X133544172Y-59441247D01*
X133544172Y-59441247D02*
X134020362Y-59536485D01*
X138163220Y-108988866D02*
X137401316Y-108988866D01*
X137782268Y-109369819D02*
X137782268Y-108607914D01*
X136401316Y-109369819D02*
X136972744Y-109369819D01*
X136687030Y-109369819D02*
X136687030Y-108369819D01*
X136687030Y-108369819D02*
X136782268Y-108512676D01*
X136782268Y-108512676D02*
X136877506Y-108607914D01*
X136877506Y-108607914D02*
X136972744Y-108655533D01*
X136020363Y-108465057D02*
X135972744Y-108417438D01*
X135972744Y-108417438D02*
X135877506Y-108369819D01*
X135877506Y-108369819D02*
X135639411Y-108369819D01*
X135639411Y-108369819D02*
X135544173Y-108417438D01*
X135544173Y-108417438D02*
X135496554Y-108465057D01*
X135496554Y-108465057D02*
X135448935Y-108560295D01*
X135448935Y-108560295D02*
X135448935Y-108655533D01*
X135448935Y-108655533D02*
X135496554Y-108798390D01*
X135496554Y-108798390D02*
X136067982Y-109369819D01*
X136067982Y-109369819D02*
X135448935Y-109369819D01*
X135163220Y-108369819D02*
X134829887Y-109369819D01*
X134829887Y-109369819D02*
X134496554Y-108369819D01*
X138210839Y-98584104D02*
X137734649Y-98584104D01*
X138306077Y-98869819D02*
X137972744Y-97869819D01*
X137972744Y-97869819D02*
X137639411Y-98869819D01*
X136829887Y-98869819D02*
X137306077Y-98869819D01*
X137306077Y-98869819D02*
X137306077Y-97869819D01*
X135925125Y-98774580D02*
X135972744Y-98822200D01*
X135972744Y-98822200D02*
X136115601Y-98869819D01*
X136115601Y-98869819D02*
X136210839Y-98869819D01*
X136210839Y-98869819D02*
X136353696Y-98822200D01*
X136353696Y-98822200D02*
X136448934Y-98726961D01*
X136448934Y-98726961D02*
X136496553Y-98631723D01*
X136496553Y-98631723D02*
X136544172Y-98441247D01*
X136544172Y-98441247D02*
X136544172Y-98298390D01*
X136544172Y-98298390D02*
X136496553Y-98107914D01*
X136496553Y-98107914D02*
X136448934Y-98012676D01*
X136448934Y-98012676D02*
X136353696Y-97917438D01*
X136353696Y-97917438D02*
X136210839Y-97869819D01*
X136210839Y-97869819D02*
X136115601Y-97869819D01*
X136115601Y-97869819D02*
X135972744Y-97917438D01*
X135972744Y-97917438D02*
X135925125Y-97965057D01*
X134591791Y-98869819D02*
X134687029Y-98822200D01*
X134687029Y-98822200D02*
X134734648Y-98774580D01*
X134734648Y-98774580D02*
X134782267Y-98679342D01*
X134782267Y-98679342D02*
X134782267Y-98393628D01*
X134782267Y-98393628D02*
X134734648Y-98298390D01*
X134734648Y-98298390D02*
X134687029Y-98250771D01*
X134687029Y-98250771D02*
X134591791Y-98203152D01*
X134591791Y-98203152D02*
X134448934Y-98203152D01*
X134448934Y-98203152D02*
X134353696Y-98250771D01*
X134353696Y-98250771D02*
X134306077Y-98298390D01*
X134306077Y-98298390D02*
X134258458Y-98393628D01*
X134258458Y-98393628D02*
X134258458Y-98679342D01*
X134258458Y-98679342D02*
X134306077Y-98774580D01*
X134306077Y-98774580D02*
X134353696Y-98822200D01*
X134353696Y-98822200D02*
X134448934Y-98869819D01*
X134448934Y-98869819D02*
X134591791Y-98869819D01*
X133401315Y-98203152D02*
X133401315Y-98869819D01*
X133829886Y-98203152D02*
X133829886Y-98726961D01*
X133829886Y-98726961D02*
X133782267Y-98822200D01*
X133782267Y-98822200D02*
X133687029Y-98869819D01*
X133687029Y-98869819D02*
X133544172Y-98869819D01*
X133544172Y-98869819D02*
X133448934Y-98822200D01*
X133448934Y-98822200D02*
X133401315Y-98774580D01*
X133067981Y-98203152D02*
X132687029Y-98203152D01*
X132925124Y-97869819D02*
X132925124Y-98726961D01*
X132925124Y-98726961D02*
X132877505Y-98822200D01*
X132877505Y-98822200D02*
X132782267Y-98869819D01*
X132782267Y-98869819D02*
X132687029Y-98869819D01*
X68659411Y-114239819D02*
X69230839Y-114239819D01*
X68945125Y-114239819D02*
X68945125Y-113239819D01*
X68945125Y-113239819D02*
X69040363Y-113382676D01*
X69040363Y-113382676D02*
X69135601Y-113477914D01*
X69135601Y-113477914D02*
X69230839Y-113525533D01*
X68087982Y-113668390D02*
X68183220Y-113620771D01*
X68183220Y-113620771D02*
X68230839Y-113573152D01*
X68230839Y-113573152D02*
X68278458Y-113477914D01*
X68278458Y-113477914D02*
X68278458Y-113430295D01*
X68278458Y-113430295D02*
X68230839Y-113335057D01*
X68230839Y-113335057D02*
X68183220Y-113287438D01*
X68183220Y-113287438D02*
X68087982Y-113239819D01*
X68087982Y-113239819D02*
X67897506Y-113239819D01*
X67897506Y-113239819D02*
X67802268Y-113287438D01*
X67802268Y-113287438D02*
X67754649Y-113335057D01*
X67754649Y-113335057D02*
X67707030Y-113430295D01*
X67707030Y-113430295D02*
X67707030Y-113477914D01*
X67707030Y-113477914D02*
X67754649Y-113573152D01*
X67754649Y-113573152D02*
X67802268Y-113620771D01*
X67802268Y-113620771D02*
X67897506Y-113668390D01*
X67897506Y-113668390D02*
X68087982Y-113668390D01*
X68087982Y-113668390D02*
X68183220Y-113716009D01*
X68183220Y-113716009D02*
X68230839Y-113763628D01*
X68230839Y-113763628D02*
X68278458Y-113858866D01*
X68278458Y-113858866D02*
X68278458Y-114049342D01*
X68278458Y-114049342D02*
X68230839Y-114144580D01*
X68230839Y-114144580D02*
X68183220Y-114192200D01*
X68183220Y-114192200D02*
X68087982Y-114239819D01*
X68087982Y-114239819D02*
X67897506Y-114239819D01*
X67897506Y-114239819D02*
X67802268Y-114192200D01*
X67802268Y-114192200D02*
X67754649Y-114144580D01*
X67754649Y-114144580D02*
X67707030Y-114049342D01*
X67707030Y-114049342D02*
X67707030Y-113858866D01*
X67707030Y-113858866D02*
X67754649Y-113763628D01*
X67754649Y-113763628D02*
X67802268Y-113716009D01*
X67802268Y-113716009D02*
X67897506Y-113668390D01*
X67278458Y-113858866D02*
X66516554Y-113858866D01*
X65849887Y-113239819D02*
X65754649Y-113239819D01*
X65754649Y-113239819D02*
X65659411Y-113287438D01*
X65659411Y-113287438D02*
X65611792Y-113335057D01*
X65611792Y-113335057D02*
X65564173Y-113430295D01*
X65564173Y-113430295D02*
X65516554Y-113620771D01*
X65516554Y-113620771D02*
X65516554Y-113858866D01*
X65516554Y-113858866D02*
X65564173Y-114049342D01*
X65564173Y-114049342D02*
X65611792Y-114144580D01*
X65611792Y-114144580D02*
X65659411Y-114192200D01*
X65659411Y-114192200D02*
X65754649Y-114239819D01*
X65754649Y-114239819D02*
X65849887Y-114239819D01*
X65849887Y-114239819D02*
X65945125Y-114192200D01*
X65945125Y-114192200D02*
X65992744Y-114144580D01*
X65992744Y-114144580D02*
X66040363Y-114049342D01*
X66040363Y-114049342D02*
X66087982Y-113858866D01*
X66087982Y-113858866D02*
X66087982Y-113620771D01*
X66087982Y-113620771D02*
X66040363Y-113430295D01*
X66040363Y-113430295D02*
X65992744Y-113335057D01*
X65992744Y-113335057D02*
X65945125Y-113287438D01*
X65945125Y-113287438D02*
X65849887Y-113239819D01*
X65087982Y-113858866D02*
X64326078Y-113858866D01*
X63326078Y-114239819D02*
X63897506Y-114239819D01*
X63611792Y-114239819D02*
X63611792Y-113239819D01*
X63611792Y-113239819D02*
X63707030Y-113382676D01*
X63707030Y-113382676D02*
X63802268Y-113477914D01*
X63802268Y-113477914D02*
X63897506Y-113525533D01*
X62754649Y-113668390D02*
X62849887Y-113620771D01*
X62849887Y-113620771D02*
X62897506Y-113573152D01*
X62897506Y-113573152D02*
X62945125Y-113477914D01*
X62945125Y-113477914D02*
X62945125Y-113430295D01*
X62945125Y-113430295D02*
X62897506Y-113335057D01*
X62897506Y-113335057D02*
X62849887Y-113287438D01*
X62849887Y-113287438D02*
X62754649Y-113239819D01*
X62754649Y-113239819D02*
X62564173Y-113239819D01*
X62564173Y-113239819D02*
X62468935Y-113287438D01*
X62468935Y-113287438D02*
X62421316Y-113335057D01*
X62421316Y-113335057D02*
X62373697Y-113430295D01*
X62373697Y-113430295D02*
X62373697Y-113477914D01*
X62373697Y-113477914D02*
X62421316Y-113573152D01*
X62421316Y-113573152D02*
X62468935Y-113620771D01*
X62468935Y-113620771D02*
X62564173Y-113668390D01*
X62564173Y-113668390D02*
X62754649Y-113668390D01*
X62754649Y-113668390D02*
X62849887Y-113716009D01*
X62849887Y-113716009D02*
X62897506Y-113763628D01*
X62897506Y-113763628D02*
X62945125Y-113858866D01*
X62945125Y-113858866D02*
X62945125Y-114049342D01*
X62945125Y-114049342D02*
X62897506Y-114144580D01*
X62897506Y-114144580D02*
X62849887Y-114192200D01*
X62849887Y-114192200D02*
X62754649Y-114239819D01*
X62754649Y-114239819D02*
X62564173Y-114239819D01*
X62564173Y-114239819D02*
X62468935Y-114192200D01*
X62468935Y-114192200D02*
X62421316Y-114144580D01*
X62421316Y-114144580D02*
X62373697Y-114049342D01*
X62373697Y-114049342D02*
X62373697Y-113858866D01*
X62373697Y-113858866D02*
X62421316Y-113763628D01*
X62421316Y-113763628D02*
X62468935Y-113716009D01*
X62468935Y-113716009D02*
X62564173Y-113668390D01*
X61326077Y-113239819D02*
X60992744Y-114239819D01*
X60992744Y-114239819D02*
X60659411Y-113239819D01*
X59611791Y-113954104D02*
X59135601Y-113954104D01*
X59707029Y-114239819D02*
X59373696Y-113239819D01*
X59373696Y-113239819D02*
X59040363Y-114239819D01*
X58135601Y-114144580D02*
X58183220Y-114192200D01*
X58183220Y-114192200D02*
X58326077Y-114239819D01*
X58326077Y-114239819D02*
X58421315Y-114239819D01*
X58421315Y-114239819D02*
X58564172Y-114192200D01*
X58564172Y-114192200D02*
X58659410Y-114096961D01*
X58659410Y-114096961D02*
X58707029Y-114001723D01*
X58707029Y-114001723D02*
X58754648Y-113811247D01*
X58754648Y-113811247D02*
X58754648Y-113668390D01*
X58754648Y-113668390D02*
X58707029Y-113477914D01*
X58707029Y-113477914D02*
X58659410Y-113382676D01*
X58659410Y-113382676D02*
X58564172Y-113287438D01*
X58564172Y-113287438D02*
X58421315Y-113239819D01*
X58421315Y-113239819D02*
X58326077Y-113239819D01*
X58326077Y-113239819D02*
X58183220Y-113287438D01*
X58183220Y-113287438D02*
X58135601Y-113335057D01*
X56945124Y-114239819D02*
X56945124Y-113239819D01*
X56468934Y-113573152D02*
X56468934Y-114239819D01*
X56468934Y-113668390D02*
X56421315Y-113620771D01*
X56421315Y-113620771D02*
X56326077Y-113573152D01*
X56326077Y-113573152D02*
X56183220Y-113573152D01*
X56183220Y-113573152D02*
X56087982Y-113620771D01*
X56087982Y-113620771D02*
X56040363Y-113716009D01*
X56040363Y-113716009D02*
X56040363Y-114239819D01*
X58523990Y-68919887D02*
X58476371Y-68777030D01*
X58476371Y-68777030D02*
X58428752Y-68729411D01*
X58428752Y-68729411D02*
X58333514Y-68681792D01*
X58333514Y-68681792D02*
X58190657Y-68681792D01*
X58190657Y-68681792D02*
X58095419Y-68729411D01*
X58095419Y-68729411D02*
X58047800Y-68777030D01*
X58047800Y-68777030D02*
X58000180Y-68872268D01*
X58000180Y-68872268D02*
X58000180Y-69253220D01*
X58000180Y-69253220D02*
X59000180Y-69253220D01*
X59000180Y-69253220D02*
X59000180Y-68919887D01*
X59000180Y-68919887D02*
X58952561Y-68824649D01*
X58952561Y-68824649D02*
X58904942Y-68777030D01*
X58904942Y-68777030D02*
X58809704Y-68729411D01*
X58809704Y-68729411D02*
X58714466Y-68729411D01*
X58714466Y-68729411D02*
X58619228Y-68777030D01*
X58619228Y-68777030D02*
X58571609Y-68824649D01*
X58571609Y-68824649D02*
X58523990Y-68919887D01*
X58523990Y-68919887D02*
X58523990Y-69253220D01*
X58000180Y-68253220D02*
X58666847Y-68253220D01*
X59000180Y-68253220D02*
X58952561Y-68300839D01*
X58952561Y-68300839D02*
X58904942Y-68253220D01*
X58904942Y-68253220D02*
X58952561Y-68205601D01*
X58952561Y-68205601D02*
X59000180Y-68253220D01*
X59000180Y-68253220D02*
X58904942Y-68253220D01*
X58000180Y-67348459D02*
X58523990Y-67348459D01*
X58523990Y-67348459D02*
X58619228Y-67396078D01*
X58619228Y-67396078D02*
X58666847Y-67491316D01*
X58666847Y-67491316D02*
X58666847Y-67681792D01*
X58666847Y-67681792D02*
X58619228Y-67777030D01*
X58047800Y-67348459D02*
X58000180Y-67443697D01*
X58000180Y-67443697D02*
X58000180Y-67681792D01*
X58000180Y-67681792D02*
X58047800Y-67777030D01*
X58047800Y-67777030D02*
X58143038Y-67824649D01*
X58143038Y-67824649D02*
X58238276Y-67824649D01*
X58238276Y-67824649D02*
X58333514Y-67777030D01*
X58333514Y-67777030D02*
X58381133Y-67681792D01*
X58381133Y-67681792D02*
X58381133Y-67443697D01*
X58381133Y-67443697D02*
X58428752Y-67348459D01*
X58047800Y-66919887D02*
X58000180Y-66824649D01*
X58000180Y-66824649D02*
X58000180Y-66634173D01*
X58000180Y-66634173D02*
X58047800Y-66538935D01*
X58047800Y-66538935D02*
X58143038Y-66491316D01*
X58143038Y-66491316D02*
X58190657Y-66491316D01*
X58190657Y-66491316D02*
X58285895Y-66538935D01*
X58285895Y-66538935D02*
X58333514Y-66634173D01*
X58333514Y-66634173D02*
X58333514Y-66777030D01*
X58333514Y-66777030D02*
X58381133Y-66872268D01*
X58381133Y-66872268D02*
X58476371Y-66919887D01*
X58476371Y-66919887D02*
X58523990Y-66919887D01*
X58523990Y-66919887D02*
X58619228Y-66872268D01*
X58619228Y-66872268D02*
X58666847Y-66777030D01*
X58666847Y-66777030D02*
X58666847Y-66634173D01*
X58666847Y-66634173D02*
X58619228Y-66538935D01*
X58666847Y-65300839D02*
X57666847Y-65300839D01*
X58619228Y-65300839D02*
X58666847Y-65205601D01*
X58666847Y-65205601D02*
X58666847Y-65015125D01*
X58666847Y-65015125D02*
X58619228Y-64919887D01*
X58619228Y-64919887D02*
X58571609Y-64872268D01*
X58571609Y-64872268D02*
X58476371Y-64824649D01*
X58476371Y-64824649D02*
X58190657Y-64824649D01*
X58190657Y-64824649D02*
X58095419Y-64872268D01*
X58095419Y-64872268D02*
X58047800Y-64919887D01*
X58047800Y-64919887D02*
X58000180Y-65015125D01*
X58000180Y-65015125D02*
X58000180Y-65205601D01*
X58000180Y-65205601D02*
X58047800Y-65300839D01*
X58000180Y-64253220D02*
X58047800Y-64348458D01*
X58047800Y-64348458D02*
X58095419Y-64396077D01*
X58095419Y-64396077D02*
X58190657Y-64443696D01*
X58190657Y-64443696D02*
X58476371Y-64443696D01*
X58476371Y-64443696D02*
X58571609Y-64396077D01*
X58571609Y-64396077D02*
X58619228Y-64348458D01*
X58619228Y-64348458D02*
X58666847Y-64253220D01*
X58666847Y-64253220D02*
X58666847Y-64110363D01*
X58666847Y-64110363D02*
X58619228Y-64015125D01*
X58619228Y-64015125D02*
X58571609Y-63967506D01*
X58571609Y-63967506D02*
X58476371Y-63919887D01*
X58476371Y-63919887D02*
X58190657Y-63919887D01*
X58190657Y-63919887D02*
X58095419Y-63967506D01*
X58095419Y-63967506D02*
X58047800Y-64015125D01*
X58047800Y-64015125D02*
X58000180Y-64110363D01*
X58000180Y-64110363D02*
X58000180Y-64253220D01*
X58666847Y-63634172D02*
X58666847Y-63253220D01*
X59000180Y-63491315D02*
X58143038Y-63491315D01*
X58143038Y-63491315D02*
X58047800Y-63443696D01*
X58047800Y-63443696D02*
X58000180Y-63348458D01*
X58000180Y-63348458D02*
X58000180Y-63253220D01*
X58095419Y-62919886D02*
X58047800Y-62872267D01*
X58047800Y-62872267D02*
X58000180Y-62919886D01*
X58000180Y-62919886D02*
X58047800Y-62967505D01*
X58047800Y-62967505D02*
X58095419Y-62919886D01*
X58095419Y-62919886D02*
X58000180Y-62919886D01*
X58000180Y-61110363D02*
X58476371Y-61443696D01*
X58000180Y-61681791D02*
X59000180Y-61681791D01*
X59000180Y-61681791D02*
X59000180Y-61300839D01*
X59000180Y-61300839D02*
X58952561Y-61205601D01*
X58952561Y-61205601D02*
X58904942Y-61157982D01*
X58904942Y-61157982D02*
X58809704Y-61110363D01*
X58809704Y-61110363D02*
X58666847Y-61110363D01*
X58666847Y-61110363D02*
X58571609Y-61157982D01*
X58571609Y-61157982D02*
X58523990Y-61205601D01*
X58523990Y-61205601D02*
X58476371Y-61300839D01*
X58476371Y-61300839D02*
X58476371Y-61681791D01*
X59000180Y-60824648D02*
X58000180Y-60491315D01*
X58000180Y-60491315D02*
X59000180Y-60157982D01*
X58000180Y-59300839D02*
X58000180Y-59872267D01*
X58000180Y-59586553D02*
X59000180Y-59586553D01*
X59000180Y-59586553D02*
X58857323Y-59681791D01*
X58857323Y-59681791D02*
X58762085Y-59777029D01*
X58762085Y-59777029D02*
X58714466Y-59872267D01*
X59000180Y-58681791D02*
X59000180Y-58586553D01*
X59000180Y-58586553D02*
X58952561Y-58491315D01*
X58952561Y-58491315D02*
X58904942Y-58443696D01*
X58904942Y-58443696D02*
X58809704Y-58396077D01*
X58809704Y-58396077D02*
X58619228Y-58348458D01*
X58619228Y-58348458D02*
X58381133Y-58348458D01*
X58381133Y-58348458D02*
X58190657Y-58396077D01*
X58190657Y-58396077D02*
X58095419Y-58443696D01*
X58095419Y-58443696D02*
X58047800Y-58491315D01*
X58047800Y-58491315D02*
X58000180Y-58586553D01*
X58000180Y-58586553D02*
X58000180Y-58681791D01*
X58000180Y-58681791D02*
X58047800Y-58777029D01*
X58047800Y-58777029D02*
X58095419Y-58824648D01*
X58095419Y-58824648D02*
X58190657Y-58872267D01*
X58190657Y-58872267D02*
X58381133Y-58919886D01*
X58381133Y-58919886D02*
X58619228Y-58919886D01*
X58619228Y-58919886D02*
X58809704Y-58872267D01*
X58809704Y-58872267D02*
X58904942Y-58824648D01*
X58904942Y-58824648D02*
X58952561Y-58777029D01*
X58952561Y-58777029D02*
X59000180Y-58681791D01*
X58904942Y-57967505D02*
X58952561Y-57919886D01*
X58952561Y-57919886D02*
X59000180Y-57824648D01*
X59000180Y-57824648D02*
X59000180Y-57586553D01*
X59000180Y-57586553D02*
X58952561Y-57491315D01*
X58952561Y-57491315D02*
X58904942Y-57443696D01*
X58904942Y-57443696D02*
X58809704Y-57396077D01*
X58809704Y-57396077D02*
X58714466Y-57396077D01*
X58714466Y-57396077D02*
X58571609Y-57443696D01*
X58571609Y-57443696D02*
X58000180Y-58015124D01*
X58000180Y-58015124D02*
X58000180Y-57396077D01*
X52510180Y-48888458D02*
X52510180Y-48269411D01*
X52510180Y-48269411D02*
X52129228Y-48602744D01*
X52129228Y-48602744D02*
X52129228Y-48459887D01*
X52129228Y-48459887D02*
X52081609Y-48364649D01*
X52081609Y-48364649D02*
X52033990Y-48317030D01*
X52033990Y-48317030D02*
X51938752Y-48269411D01*
X51938752Y-48269411D02*
X51700657Y-48269411D01*
X51700657Y-48269411D02*
X51605419Y-48317030D01*
X51605419Y-48317030D02*
X51557800Y-48364649D01*
X51557800Y-48364649D02*
X51510180Y-48459887D01*
X51510180Y-48459887D02*
X51510180Y-48745601D01*
X51510180Y-48745601D02*
X51557800Y-48840839D01*
X51557800Y-48840839D02*
X51605419Y-48888458D01*
X52510180Y-47936077D02*
X52510180Y-47317030D01*
X52510180Y-47317030D02*
X52129228Y-47650363D01*
X52129228Y-47650363D02*
X52129228Y-47507506D01*
X52129228Y-47507506D02*
X52081609Y-47412268D01*
X52081609Y-47412268D02*
X52033990Y-47364649D01*
X52033990Y-47364649D02*
X51938752Y-47317030D01*
X51938752Y-47317030D02*
X51700657Y-47317030D01*
X51700657Y-47317030D02*
X51605419Y-47364649D01*
X51605419Y-47364649D02*
X51557800Y-47412268D01*
X51557800Y-47412268D02*
X51510180Y-47507506D01*
X51510180Y-47507506D02*
X51510180Y-47793220D01*
X51510180Y-47793220D02*
X51557800Y-47888458D01*
X51557800Y-47888458D02*
X51605419Y-47936077D01*
X52510180Y-46697982D02*
X52510180Y-46602744D01*
X52510180Y-46602744D02*
X52462561Y-46507506D01*
X52462561Y-46507506D02*
X52414942Y-46459887D01*
X52414942Y-46459887D02*
X52319704Y-46412268D01*
X52319704Y-46412268D02*
X52129228Y-46364649D01*
X52129228Y-46364649D02*
X51891133Y-46364649D01*
X51891133Y-46364649D02*
X51700657Y-46412268D01*
X51700657Y-46412268D02*
X51605419Y-46459887D01*
X51605419Y-46459887D02*
X51557800Y-46507506D01*
X51557800Y-46507506D02*
X51510180Y-46602744D01*
X51510180Y-46602744D02*
X51510180Y-46697982D01*
X51510180Y-46697982D02*
X51557800Y-46793220D01*
X51557800Y-46793220D02*
X51605419Y-46840839D01*
X51605419Y-46840839D02*
X51700657Y-46888458D01*
X51700657Y-46888458D02*
X51891133Y-46936077D01*
X51891133Y-46936077D02*
X52129228Y-46936077D01*
X52129228Y-46936077D02*
X52319704Y-46888458D01*
X52319704Y-46888458D02*
X52414942Y-46840839D01*
X52414942Y-46840839D02*
X52462561Y-46793220D01*
X52462561Y-46793220D02*
X52510180Y-46697982D01*
X52510180Y-45317029D02*
X51510180Y-44983696D01*
X51510180Y-44983696D02*
X52510180Y-44650363D01*
X51795895Y-44364648D02*
X51795895Y-43888458D01*
X51510180Y-44459886D02*
X52510180Y-44126553D01*
X52510180Y-44126553D02*
X51510180Y-43793220D01*
X51605419Y-42888458D02*
X51557800Y-42936077D01*
X51557800Y-42936077D02*
X51510180Y-43078934D01*
X51510180Y-43078934D02*
X51510180Y-43174172D01*
X51510180Y-43174172D02*
X51557800Y-43317029D01*
X51557800Y-43317029D02*
X51653038Y-43412267D01*
X51653038Y-43412267D02*
X51748276Y-43459886D01*
X51748276Y-43459886D02*
X51938752Y-43507505D01*
X51938752Y-43507505D02*
X52081609Y-43507505D01*
X52081609Y-43507505D02*
X52272085Y-43459886D01*
X52272085Y-43459886D02*
X52367323Y-43412267D01*
X52367323Y-43412267D02*
X52462561Y-43317029D01*
X52462561Y-43317029D02*
X52510180Y-43174172D01*
X52510180Y-43174172D02*
X52510180Y-43078934D01*
X52510180Y-43078934D02*
X52462561Y-42936077D01*
X52462561Y-42936077D02*
X52414942Y-42888458D01*
X51510180Y-41697981D02*
X52510180Y-41697981D01*
X52176847Y-41221791D02*
X51510180Y-41221791D01*
X52081609Y-41221791D02*
X52129228Y-41174172D01*
X52129228Y-41174172D02*
X52176847Y-41078934D01*
X52176847Y-41078934D02*
X52176847Y-40936077D01*
X52176847Y-40936077D02*
X52129228Y-40840839D01*
X52129228Y-40840839D02*
X52033990Y-40793220D01*
X52033990Y-40793220D02*
X51510180Y-40793220D01*
X109527438Y-41760588D02*
X109479819Y-41665350D01*
X109479819Y-41665350D02*
X109479819Y-41522493D01*
X109479819Y-41522493D02*
X109527438Y-41379636D01*
X109527438Y-41379636D02*
X109622676Y-41284398D01*
X109622676Y-41284398D02*
X109717914Y-41236779D01*
X109717914Y-41236779D02*
X109908390Y-41189160D01*
X109908390Y-41189160D02*
X110051247Y-41189160D01*
X110051247Y-41189160D02*
X110241723Y-41236779D01*
X110241723Y-41236779D02*
X110336961Y-41284398D01*
X110336961Y-41284398D02*
X110432200Y-41379636D01*
X110432200Y-41379636D02*
X110479819Y-41522493D01*
X110479819Y-41522493D02*
X110479819Y-41617731D01*
X110479819Y-41617731D02*
X110432200Y-41760588D01*
X110432200Y-41760588D02*
X110384580Y-41808207D01*
X110384580Y-41808207D02*
X110051247Y-41808207D01*
X110051247Y-41808207D02*
X110051247Y-41617731D01*
X110479819Y-42760588D02*
X110479819Y-42189160D01*
X110479819Y-42474874D02*
X109479819Y-42474874D01*
X109479819Y-42474874D02*
X109622676Y-42379636D01*
X109622676Y-42379636D02*
X109717914Y-42284398D01*
X109717914Y-42284398D02*
X109765533Y-42189160D01*
X110432200Y-43903446D02*
X110479819Y-44046303D01*
X110479819Y-44046303D02*
X110479819Y-44284398D01*
X110479819Y-44284398D02*
X110432200Y-44379636D01*
X110432200Y-44379636D02*
X110384580Y-44427255D01*
X110384580Y-44427255D02*
X110289342Y-44474874D01*
X110289342Y-44474874D02*
X110194104Y-44474874D01*
X110194104Y-44474874D02*
X110098866Y-44427255D01*
X110098866Y-44427255D02*
X110051247Y-44379636D01*
X110051247Y-44379636D02*
X110003628Y-44284398D01*
X110003628Y-44284398D02*
X109956009Y-44093922D01*
X109956009Y-44093922D02*
X109908390Y-43998684D01*
X109908390Y-43998684D02*
X109860771Y-43951065D01*
X109860771Y-43951065D02*
X109765533Y-43903446D01*
X109765533Y-43903446D02*
X109670295Y-43903446D01*
X109670295Y-43903446D02*
X109575057Y-43951065D01*
X109575057Y-43951065D02*
X109527438Y-43998684D01*
X109527438Y-43998684D02*
X109479819Y-44093922D01*
X109479819Y-44093922D02*
X109479819Y-44332017D01*
X109479819Y-44332017D02*
X109527438Y-44474874D01*
X109813152Y-44808208D02*
X110479819Y-44998684D01*
X110479819Y-44998684D02*
X110003628Y-45189160D01*
X110003628Y-45189160D02*
X110479819Y-45379636D01*
X110479819Y-45379636D02*
X109813152Y-45570112D01*
X110479819Y-45951065D02*
X109813152Y-45951065D01*
X109479819Y-45951065D02*
X109527438Y-45903446D01*
X109527438Y-45903446D02*
X109575057Y-45951065D01*
X109575057Y-45951065D02*
X109527438Y-45998684D01*
X109527438Y-45998684D02*
X109479819Y-45951065D01*
X109479819Y-45951065D02*
X109575057Y-45951065D01*
X109813152Y-46284398D02*
X109813152Y-46665350D01*
X109479819Y-46427255D02*
X110336961Y-46427255D01*
X110336961Y-46427255D02*
X110432200Y-46474874D01*
X110432200Y-46474874D02*
X110479819Y-46570112D01*
X110479819Y-46570112D02*
X110479819Y-46665350D01*
X110432200Y-47427255D02*
X110479819Y-47332017D01*
X110479819Y-47332017D02*
X110479819Y-47141541D01*
X110479819Y-47141541D02*
X110432200Y-47046303D01*
X110432200Y-47046303D02*
X110384580Y-46998684D01*
X110384580Y-46998684D02*
X110289342Y-46951065D01*
X110289342Y-46951065D02*
X110003628Y-46951065D01*
X110003628Y-46951065D02*
X109908390Y-46998684D01*
X109908390Y-46998684D02*
X109860771Y-47046303D01*
X109860771Y-47046303D02*
X109813152Y-47141541D01*
X109813152Y-47141541D02*
X109813152Y-47332017D01*
X109813152Y-47332017D02*
X109860771Y-47427255D01*
X110479819Y-47855827D02*
X109479819Y-47855827D01*
X110479819Y-48284398D02*
X109956009Y-48284398D01*
X109956009Y-48284398D02*
X109860771Y-48236779D01*
X109860771Y-48236779D02*
X109813152Y-48141541D01*
X109813152Y-48141541D02*
X109813152Y-47998684D01*
X109813152Y-47998684D02*
X109860771Y-47903446D01*
X109860771Y-47903446D02*
X109908390Y-47855827D01*
X144681411Y-50869819D02*
X145252839Y-50869819D01*
X144967125Y-50869819D02*
X144967125Y-49869819D01*
X144967125Y-49869819D02*
X145062363Y-50012676D01*
X145062363Y-50012676D02*
X145157601Y-50107914D01*
X145157601Y-50107914D02*
X145252839Y-50155533D01*
X144062363Y-49869819D02*
X143967125Y-49869819D01*
X143967125Y-49869819D02*
X143871887Y-49917438D01*
X143871887Y-49917438D02*
X143824268Y-49965057D01*
X143824268Y-49965057D02*
X143776649Y-50060295D01*
X143776649Y-50060295D02*
X143729030Y-50250771D01*
X143729030Y-50250771D02*
X143729030Y-50488866D01*
X143729030Y-50488866D02*
X143776649Y-50679342D01*
X143776649Y-50679342D02*
X143824268Y-50774580D01*
X143824268Y-50774580D02*
X143871887Y-50822200D01*
X143871887Y-50822200D02*
X143967125Y-50869819D01*
X143967125Y-50869819D02*
X144062363Y-50869819D01*
X144062363Y-50869819D02*
X144157601Y-50822200D01*
X144157601Y-50822200D02*
X144205220Y-50774580D01*
X144205220Y-50774580D02*
X144252839Y-50679342D01*
X144252839Y-50679342D02*
X144300458Y-50488866D01*
X144300458Y-50488866D02*
X144300458Y-50250771D01*
X144300458Y-50250771D02*
X144252839Y-50060295D01*
X144252839Y-50060295D02*
X144205220Y-49965057D01*
X144205220Y-49965057D02*
X144157601Y-49917438D01*
X144157601Y-49917438D02*
X144062363Y-49869819D01*
X142824268Y-49869819D02*
X143300458Y-49869819D01*
X143300458Y-49869819D02*
X143348077Y-50346009D01*
X143348077Y-50346009D02*
X143300458Y-50298390D01*
X143300458Y-50298390D02*
X143205220Y-50250771D01*
X143205220Y-50250771D02*
X142967125Y-50250771D01*
X142967125Y-50250771D02*
X142871887Y-50298390D01*
X142871887Y-50298390D02*
X142824268Y-50346009D01*
X142824268Y-50346009D02*
X142776649Y-50441247D01*
X142776649Y-50441247D02*
X142776649Y-50679342D01*
X142776649Y-50679342D02*
X142824268Y-50774580D01*
X142824268Y-50774580D02*
X142871887Y-50822200D01*
X142871887Y-50822200D02*
X142967125Y-50869819D01*
X142967125Y-50869819D02*
X143205220Y-50869819D01*
X143205220Y-50869819D02*
X143300458Y-50822200D01*
X143300458Y-50822200D02*
X143348077Y-50774580D01*
X142490934Y-49869819D02*
X142157601Y-50869819D01*
X142157601Y-50869819D02*
X141824268Y-49869819D01*
X140776648Y-50584104D02*
X140300458Y-50584104D01*
X140871886Y-50869819D02*
X140538553Y-49869819D01*
X140538553Y-49869819D02*
X140205220Y-50869819D01*
X139300458Y-50774580D02*
X139348077Y-50822200D01*
X139348077Y-50822200D02*
X139490934Y-50869819D01*
X139490934Y-50869819D02*
X139586172Y-50869819D01*
X139586172Y-50869819D02*
X139729029Y-50822200D01*
X139729029Y-50822200D02*
X139824267Y-50726961D01*
X139824267Y-50726961D02*
X139871886Y-50631723D01*
X139871886Y-50631723D02*
X139919505Y-50441247D01*
X139919505Y-50441247D02*
X139919505Y-50298390D01*
X139919505Y-50298390D02*
X139871886Y-50107914D01*
X139871886Y-50107914D02*
X139824267Y-50012676D01*
X139824267Y-50012676D02*
X139729029Y-49917438D01*
X139729029Y-49917438D02*
X139586172Y-49869819D01*
X139586172Y-49869819D02*
X139490934Y-49869819D01*
X139490934Y-49869819D02*
X139348077Y-49917438D01*
X139348077Y-49917438D02*
X139300458Y-49965057D01*
X138109981Y-50869819D02*
X138109981Y-49869819D01*
X137633791Y-50203152D02*
X137633791Y-50869819D01*
X137633791Y-50298390D02*
X137586172Y-50250771D01*
X137586172Y-50250771D02*
X137490934Y-50203152D01*
X137490934Y-50203152D02*
X137348077Y-50203152D01*
X137348077Y-50203152D02*
X137252839Y-50250771D01*
X137252839Y-50250771D02*
X137205220Y-50346009D01*
X137205220Y-50346009D02*
X137205220Y-50869819D01*
X138163220Y-93869819D02*
X138163220Y-92869819D01*
X137687030Y-93203152D02*
X137687030Y-93869819D01*
X137687030Y-93298390D02*
X137639411Y-93250771D01*
X137639411Y-93250771D02*
X137544173Y-93203152D01*
X137544173Y-93203152D02*
X137401316Y-93203152D01*
X137401316Y-93203152D02*
X137306078Y-93250771D01*
X137306078Y-93250771D02*
X137258459Y-93346009D01*
X137258459Y-93346009D02*
X137258459Y-93869819D01*
X136782268Y-93869819D02*
X136782268Y-92869819D01*
X136353697Y-93869819D02*
X136353697Y-93346009D01*
X136353697Y-93346009D02*
X136401316Y-93250771D01*
X136401316Y-93250771D02*
X136496554Y-93203152D01*
X136496554Y-93203152D02*
X136639411Y-93203152D01*
X136639411Y-93203152D02*
X136734649Y-93250771D01*
X136734649Y-93250771D02*
X136782268Y-93298390D01*
X135115601Y-93869819D02*
X135115601Y-93203152D01*
X135115601Y-92869819D02*
X135163220Y-92917438D01*
X135163220Y-92917438D02*
X135115601Y-92965057D01*
X135115601Y-92965057D02*
X135067982Y-92917438D01*
X135067982Y-92917438D02*
X135115601Y-92869819D01*
X135115601Y-92869819D02*
X135115601Y-92965057D01*
X134639411Y-93203152D02*
X134639411Y-93869819D01*
X134639411Y-93298390D02*
X134591792Y-93250771D01*
X134591792Y-93250771D02*
X134496554Y-93203152D01*
X134496554Y-93203152D02*
X134353697Y-93203152D01*
X134353697Y-93203152D02*
X134258459Y-93250771D01*
X134258459Y-93250771D02*
X134210840Y-93346009D01*
X134210840Y-93346009D02*
X134210840Y-93869819D01*
X124897438Y-41630588D02*
X124849819Y-41535350D01*
X124849819Y-41535350D02*
X124849819Y-41392493D01*
X124849819Y-41392493D02*
X124897438Y-41249636D01*
X124897438Y-41249636D02*
X124992676Y-41154398D01*
X124992676Y-41154398D02*
X125087914Y-41106779D01*
X125087914Y-41106779D02*
X125278390Y-41059160D01*
X125278390Y-41059160D02*
X125421247Y-41059160D01*
X125421247Y-41059160D02*
X125611723Y-41106779D01*
X125611723Y-41106779D02*
X125706961Y-41154398D01*
X125706961Y-41154398D02*
X125802200Y-41249636D01*
X125802200Y-41249636D02*
X125849819Y-41392493D01*
X125849819Y-41392493D02*
X125849819Y-41487731D01*
X125849819Y-41487731D02*
X125802200Y-41630588D01*
X125802200Y-41630588D02*
X125754580Y-41678207D01*
X125754580Y-41678207D02*
X125421247Y-41678207D01*
X125421247Y-41678207D02*
X125421247Y-41487731D01*
X125849819Y-42630588D02*
X125849819Y-42059160D01*
X125849819Y-42344874D02*
X124849819Y-42344874D01*
X124849819Y-42344874D02*
X124992676Y-42249636D01*
X124992676Y-42249636D02*
X125087914Y-42154398D01*
X125087914Y-42154398D02*
X125135533Y-42059160D01*
X124849819Y-44011541D02*
X124849819Y-44202017D01*
X124849819Y-44202017D02*
X124897438Y-44297255D01*
X124897438Y-44297255D02*
X124992676Y-44392493D01*
X124992676Y-44392493D02*
X125183152Y-44440112D01*
X125183152Y-44440112D02*
X125516485Y-44440112D01*
X125516485Y-44440112D02*
X125706961Y-44392493D01*
X125706961Y-44392493D02*
X125802200Y-44297255D01*
X125802200Y-44297255D02*
X125849819Y-44202017D01*
X125849819Y-44202017D02*
X125849819Y-44011541D01*
X125849819Y-44011541D02*
X125802200Y-43916303D01*
X125802200Y-43916303D02*
X125706961Y-43821065D01*
X125706961Y-43821065D02*
X125516485Y-43773446D01*
X125516485Y-43773446D02*
X125183152Y-43773446D01*
X125183152Y-43773446D02*
X124992676Y-43821065D01*
X124992676Y-43821065D02*
X124897438Y-43916303D01*
X124897438Y-43916303D02*
X124849819Y-44011541D01*
X125183152Y-45297255D02*
X125849819Y-45297255D01*
X125183152Y-44868684D02*
X125706961Y-44868684D01*
X125706961Y-44868684D02*
X125802200Y-44916303D01*
X125802200Y-44916303D02*
X125849819Y-45011541D01*
X125849819Y-45011541D02*
X125849819Y-45154398D01*
X125849819Y-45154398D02*
X125802200Y-45249636D01*
X125802200Y-45249636D02*
X125754580Y-45297255D01*
X125183152Y-45630589D02*
X125183152Y-46011541D01*
X124849819Y-45773446D02*
X125706961Y-45773446D01*
X125706961Y-45773446D02*
X125802200Y-45821065D01*
X125802200Y-45821065D02*
X125849819Y-45916303D01*
X125849819Y-45916303D02*
X125849819Y-46011541D01*
X138139411Y-74417438D02*
X138234649Y-74369819D01*
X138234649Y-74369819D02*
X138377506Y-74369819D01*
X138377506Y-74369819D02*
X138520363Y-74417438D01*
X138520363Y-74417438D02*
X138615601Y-74512676D01*
X138615601Y-74512676D02*
X138663220Y-74607914D01*
X138663220Y-74607914D02*
X138710839Y-74798390D01*
X138710839Y-74798390D02*
X138710839Y-74941247D01*
X138710839Y-74941247D02*
X138663220Y-75131723D01*
X138663220Y-75131723D02*
X138615601Y-75226961D01*
X138615601Y-75226961D02*
X138520363Y-75322200D01*
X138520363Y-75322200D02*
X138377506Y-75369819D01*
X138377506Y-75369819D02*
X138282268Y-75369819D01*
X138282268Y-75369819D02*
X138139411Y-75322200D01*
X138139411Y-75322200D02*
X138091792Y-75274580D01*
X138091792Y-75274580D02*
X138091792Y-74941247D01*
X138091792Y-74941247D02*
X138282268Y-74941247D01*
X137139411Y-75369819D02*
X137710839Y-75369819D01*
X137425125Y-75369819D02*
X137425125Y-74369819D01*
X137425125Y-74369819D02*
X137520363Y-74512676D01*
X137520363Y-74512676D02*
X137615601Y-74607914D01*
X137615601Y-74607914D02*
X137710839Y-74655533D01*
X135377506Y-75274580D02*
X135425125Y-75322200D01*
X135425125Y-75322200D02*
X135567982Y-75369819D01*
X135567982Y-75369819D02*
X135663220Y-75369819D01*
X135663220Y-75369819D02*
X135806077Y-75322200D01*
X135806077Y-75322200D02*
X135901315Y-75226961D01*
X135901315Y-75226961D02*
X135948934Y-75131723D01*
X135948934Y-75131723D02*
X135996553Y-74941247D01*
X135996553Y-74941247D02*
X135996553Y-74798390D01*
X135996553Y-74798390D02*
X135948934Y-74607914D01*
X135948934Y-74607914D02*
X135901315Y-74512676D01*
X135901315Y-74512676D02*
X135806077Y-74417438D01*
X135806077Y-74417438D02*
X135663220Y-74369819D01*
X135663220Y-74369819D02*
X135567982Y-74369819D01*
X135567982Y-74369819D02*
X135425125Y-74417438D01*
X135425125Y-74417438D02*
X135377506Y-74465057D01*
X134520363Y-74703152D02*
X134520363Y-75369819D01*
X134948934Y-74703152D02*
X134948934Y-75226961D01*
X134948934Y-75226961D02*
X134901315Y-75322200D01*
X134901315Y-75322200D02*
X134806077Y-75369819D01*
X134806077Y-75369819D02*
X134663220Y-75369819D01*
X134663220Y-75369819D02*
X134567982Y-75322200D01*
X134567982Y-75322200D02*
X134520363Y-75274580D01*
X134044172Y-75369819D02*
X134044172Y-74703152D01*
X134044172Y-74893628D02*
X133996553Y-74798390D01*
X133996553Y-74798390D02*
X133948934Y-74750771D01*
X133948934Y-74750771D02*
X133853696Y-74703152D01*
X133853696Y-74703152D02*
X133758458Y-74703152D01*
X133425124Y-75369819D02*
X133425124Y-74703152D01*
X133425124Y-74893628D02*
X133377505Y-74798390D01*
X133377505Y-74798390D02*
X133329886Y-74750771D01*
X133329886Y-74750771D02*
X133234648Y-74703152D01*
X133234648Y-74703152D02*
X133139410Y-74703152D01*
X132425124Y-75322200D02*
X132520362Y-75369819D01*
X132520362Y-75369819D02*
X132710838Y-75369819D01*
X132710838Y-75369819D02*
X132806076Y-75322200D01*
X132806076Y-75322200D02*
X132853695Y-75226961D01*
X132853695Y-75226961D02*
X132853695Y-74846009D01*
X132853695Y-74846009D02*
X132806076Y-74750771D01*
X132806076Y-74750771D02*
X132710838Y-74703152D01*
X132710838Y-74703152D02*
X132520362Y-74703152D01*
X132520362Y-74703152D02*
X132425124Y-74750771D01*
X132425124Y-74750771D02*
X132377505Y-74846009D01*
X132377505Y-74846009D02*
X132377505Y-74941247D01*
X132377505Y-74941247D02*
X132853695Y-75036485D01*
X131948933Y-74703152D02*
X131948933Y-75369819D01*
X131948933Y-74798390D02*
X131901314Y-74750771D01*
X131901314Y-74750771D02*
X131806076Y-74703152D01*
X131806076Y-74703152D02*
X131663219Y-74703152D01*
X131663219Y-74703152D02*
X131567981Y-74750771D01*
X131567981Y-74750771D02*
X131520362Y-74846009D01*
X131520362Y-74846009D02*
X131520362Y-75369819D01*
X131187028Y-74703152D02*
X130806076Y-74703152D01*
X131044171Y-74369819D02*
X131044171Y-75226961D01*
X131044171Y-75226961D02*
X130996552Y-75322200D01*
X130996552Y-75322200D02*
X130901314Y-75369819D01*
X130901314Y-75369819D02*
X130806076Y-75369819D01*
X129853694Y-74703152D02*
X129472742Y-74703152D01*
X129710837Y-74369819D02*
X129710837Y-75226961D01*
X129710837Y-75226961D02*
X129663218Y-75322200D01*
X129663218Y-75322200D02*
X129567980Y-75369819D01*
X129567980Y-75369819D02*
X129472742Y-75369819D01*
X129139408Y-75369819D02*
X129139408Y-74703152D01*
X129139408Y-74893628D02*
X129091789Y-74798390D01*
X129091789Y-74798390D02*
X129044170Y-74750771D01*
X129044170Y-74750771D02*
X128948932Y-74703152D01*
X128948932Y-74703152D02*
X128853694Y-74703152D01*
X128520360Y-75369819D02*
X128520360Y-74703152D01*
X128520360Y-74369819D02*
X128567979Y-74417438D01*
X128567979Y-74417438D02*
X128520360Y-74465057D01*
X128520360Y-74465057D02*
X128472741Y-74417438D01*
X128472741Y-74417438D02*
X128520360Y-74369819D01*
X128520360Y-74369819D02*
X128520360Y-74465057D01*
X128044170Y-74703152D02*
X128044170Y-75703152D01*
X128044170Y-74750771D02*
X127948932Y-74703152D01*
X127948932Y-74703152D02*
X127758456Y-74703152D01*
X127758456Y-74703152D02*
X127663218Y-74750771D01*
X127663218Y-74750771D02*
X127615599Y-74798390D01*
X127615599Y-74798390D02*
X127567980Y-74893628D01*
X127567980Y-74893628D02*
X127567980Y-75179342D01*
X127567980Y-75179342D02*
X127615599Y-75274580D01*
X127615599Y-75274580D02*
X127663218Y-75322200D01*
X127663218Y-75322200D02*
X127758456Y-75369819D01*
X127758456Y-75369819D02*
X127948932Y-75369819D01*
X127948932Y-75369819D02*
X128044170Y-75322200D01*
X137623220Y-79988866D02*
X136861316Y-79988866D01*
X137242268Y-80369819D02*
X137242268Y-79607914D01*
X136432744Y-79465057D02*
X136385125Y-79417438D01*
X136385125Y-79417438D02*
X136289887Y-79369819D01*
X136289887Y-79369819D02*
X136051792Y-79369819D01*
X136051792Y-79369819D02*
X135956554Y-79417438D01*
X135956554Y-79417438D02*
X135908935Y-79465057D01*
X135908935Y-79465057D02*
X135861316Y-79560295D01*
X135861316Y-79560295D02*
X135861316Y-79655533D01*
X135861316Y-79655533D02*
X135908935Y-79798390D01*
X135908935Y-79798390D02*
X136480363Y-80369819D01*
X136480363Y-80369819D02*
X135861316Y-80369819D01*
X135004173Y-79703152D02*
X135004173Y-80369819D01*
X135242268Y-79322200D02*
X135480363Y-80036485D01*
X135480363Y-80036485D02*
X134861316Y-80036485D01*
X134623220Y-79369819D02*
X134289887Y-80369819D01*
X134289887Y-80369819D02*
X133956554Y-79369819D01*
X137591792Y-88774580D02*
X137639411Y-88822200D01*
X137639411Y-88822200D02*
X137782268Y-88869819D01*
X137782268Y-88869819D02*
X137877506Y-88869819D01*
X137877506Y-88869819D02*
X138020363Y-88822200D01*
X138020363Y-88822200D02*
X138115601Y-88726961D01*
X138115601Y-88726961D02*
X138163220Y-88631723D01*
X138163220Y-88631723D02*
X138210839Y-88441247D01*
X138210839Y-88441247D02*
X138210839Y-88298390D01*
X138210839Y-88298390D02*
X138163220Y-88107914D01*
X138163220Y-88107914D02*
X138115601Y-88012676D01*
X138115601Y-88012676D02*
X138020363Y-87917438D01*
X138020363Y-87917438D02*
X137877506Y-87869819D01*
X137877506Y-87869819D02*
X137782268Y-87869819D01*
X137782268Y-87869819D02*
X137639411Y-87917438D01*
X137639411Y-87917438D02*
X137591792Y-87965057D01*
X137020363Y-88869819D02*
X137115601Y-88822200D01*
X137115601Y-88822200D02*
X137163220Y-88726961D01*
X137163220Y-88726961D02*
X137163220Y-87869819D01*
X136210839Y-88869819D02*
X136210839Y-88346009D01*
X136210839Y-88346009D02*
X136258458Y-88250771D01*
X136258458Y-88250771D02*
X136353696Y-88203152D01*
X136353696Y-88203152D02*
X136544172Y-88203152D01*
X136544172Y-88203152D02*
X136639410Y-88250771D01*
X136210839Y-88822200D02*
X136306077Y-88869819D01*
X136306077Y-88869819D02*
X136544172Y-88869819D01*
X136544172Y-88869819D02*
X136639410Y-88822200D01*
X136639410Y-88822200D02*
X136687029Y-88726961D01*
X136687029Y-88726961D02*
X136687029Y-88631723D01*
X136687029Y-88631723D02*
X136639410Y-88536485D01*
X136639410Y-88536485D02*
X136544172Y-88488866D01*
X136544172Y-88488866D02*
X136306077Y-88488866D01*
X136306077Y-88488866D02*
X136210839Y-88441247D01*
X135782267Y-88822200D02*
X135687029Y-88869819D01*
X135687029Y-88869819D02*
X135496553Y-88869819D01*
X135496553Y-88869819D02*
X135401315Y-88822200D01*
X135401315Y-88822200D02*
X135353696Y-88726961D01*
X135353696Y-88726961D02*
X135353696Y-88679342D01*
X135353696Y-88679342D02*
X135401315Y-88584104D01*
X135401315Y-88584104D02*
X135496553Y-88536485D01*
X135496553Y-88536485D02*
X135639410Y-88536485D01*
X135639410Y-88536485D02*
X135734648Y-88488866D01*
X135734648Y-88488866D02*
X135782267Y-88393628D01*
X135782267Y-88393628D02*
X135782267Y-88346009D01*
X135782267Y-88346009D02*
X135734648Y-88250771D01*
X135734648Y-88250771D02*
X135639410Y-88203152D01*
X135639410Y-88203152D02*
X135496553Y-88203152D01*
X135496553Y-88203152D02*
X135401315Y-88250771D01*
X134972743Y-88822200D02*
X134877505Y-88869819D01*
X134877505Y-88869819D02*
X134687029Y-88869819D01*
X134687029Y-88869819D02*
X134591791Y-88822200D01*
X134591791Y-88822200D02*
X134544172Y-88726961D01*
X134544172Y-88726961D02*
X134544172Y-88679342D01*
X134544172Y-88679342D02*
X134591791Y-88584104D01*
X134591791Y-88584104D02*
X134687029Y-88536485D01*
X134687029Y-88536485D02*
X134829886Y-88536485D01*
X134829886Y-88536485D02*
X134925124Y-88488866D01*
X134925124Y-88488866D02*
X134972743Y-88393628D01*
X134972743Y-88393628D02*
X134972743Y-88346009D01*
X134972743Y-88346009D02*
X134925124Y-88250771D01*
X134925124Y-88250771D02*
X134829886Y-88203152D01*
X134829886Y-88203152D02*
X134687029Y-88203152D01*
X134687029Y-88203152D02*
X134591791Y-88250771D01*
X134115600Y-88488866D02*
X133353696Y-88488866D01*
X132925124Y-88584104D02*
X132448934Y-88584104D01*
X133020362Y-88869819D02*
X132687029Y-87869819D01*
X132687029Y-87869819D02*
X132353696Y-88869819D01*
X131687029Y-88346009D02*
X131544172Y-88393628D01*
X131544172Y-88393628D02*
X131496553Y-88441247D01*
X131496553Y-88441247D02*
X131448934Y-88536485D01*
X131448934Y-88536485D02*
X131448934Y-88679342D01*
X131448934Y-88679342D02*
X131496553Y-88774580D01*
X131496553Y-88774580D02*
X131544172Y-88822200D01*
X131544172Y-88822200D02*
X131639410Y-88869819D01*
X131639410Y-88869819D02*
X132020362Y-88869819D01*
X132020362Y-88869819D02*
X132020362Y-87869819D01*
X132020362Y-87869819D02*
X131687029Y-87869819D01*
X131687029Y-87869819D02*
X131591791Y-87917438D01*
X131591791Y-87917438D02*
X131544172Y-87965057D01*
X131544172Y-87965057D02*
X131496553Y-88060295D01*
X131496553Y-88060295D02*
X131496553Y-88155533D01*
X131496553Y-88155533D02*
X131544172Y-88250771D01*
X131544172Y-88250771D02*
X131591791Y-88298390D01*
X131591791Y-88298390D02*
X131687029Y-88346009D01*
X131687029Y-88346009D02*
X132020362Y-88346009D01*
X130496553Y-88869819D02*
X131067981Y-88869819D01*
X130782267Y-88869819D02*
X130782267Y-87869819D01*
X130782267Y-87869819D02*
X130877505Y-88012676D01*
X130877505Y-88012676D02*
X130972743Y-88107914D01*
X130972743Y-88107914D02*
X131067981Y-88155533D01*
X130306077Y-88965057D02*
X129544172Y-88965057D01*
X128829886Y-88869819D02*
X129306076Y-88869819D01*
X129306076Y-88869819D02*
X129306076Y-87869819D01*
X138139411Y-53917438D02*
X138234649Y-53869819D01*
X138234649Y-53869819D02*
X138377506Y-53869819D01*
X138377506Y-53869819D02*
X138520363Y-53917438D01*
X138520363Y-53917438D02*
X138615601Y-54012676D01*
X138615601Y-54012676D02*
X138663220Y-54107914D01*
X138663220Y-54107914D02*
X138710839Y-54298390D01*
X138710839Y-54298390D02*
X138710839Y-54441247D01*
X138710839Y-54441247D02*
X138663220Y-54631723D01*
X138663220Y-54631723D02*
X138615601Y-54726961D01*
X138615601Y-54726961D02*
X138520363Y-54822200D01*
X138520363Y-54822200D02*
X138377506Y-54869819D01*
X138377506Y-54869819D02*
X138282268Y-54869819D01*
X138282268Y-54869819D02*
X138139411Y-54822200D01*
X138139411Y-54822200D02*
X138091792Y-54774580D01*
X138091792Y-54774580D02*
X138091792Y-54441247D01*
X138091792Y-54441247D02*
X138282268Y-54441247D01*
X137710839Y-53965057D02*
X137663220Y-53917438D01*
X137663220Y-53917438D02*
X137567982Y-53869819D01*
X137567982Y-53869819D02*
X137329887Y-53869819D01*
X137329887Y-53869819D02*
X137234649Y-53917438D01*
X137234649Y-53917438D02*
X137187030Y-53965057D01*
X137187030Y-53965057D02*
X137139411Y-54060295D01*
X137139411Y-54060295D02*
X137139411Y-54155533D01*
X137139411Y-54155533D02*
X137187030Y-54298390D01*
X137187030Y-54298390D02*
X137758458Y-54869819D01*
X137758458Y-54869819D02*
X137139411Y-54869819D01*
X135948934Y-53869819D02*
X135948934Y-54679342D01*
X135948934Y-54679342D02*
X135901315Y-54774580D01*
X135901315Y-54774580D02*
X135853696Y-54822200D01*
X135853696Y-54822200D02*
X135758458Y-54869819D01*
X135758458Y-54869819D02*
X135567982Y-54869819D01*
X135567982Y-54869819D02*
X135472744Y-54822200D01*
X135472744Y-54822200D02*
X135425125Y-54774580D01*
X135425125Y-54774580D02*
X135377506Y-54679342D01*
X135377506Y-54679342D02*
X135377506Y-53869819D01*
X134901315Y-54203152D02*
X134901315Y-54869819D01*
X134901315Y-54298390D02*
X134853696Y-54250771D01*
X134853696Y-54250771D02*
X134758458Y-54203152D01*
X134758458Y-54203152D02*
X134615601Y-54203152D01*
X134615601Y-54203152D02*
X134520363Y-54250771D01*
X134520363Y-54250771D02*
X134472744Y-54346009D01*
X134472744Y-54346009D02*
X134472744Y-54869819D01*
X133996553Y-54869819D02*
X133996553Y-54203152D01*
X133996553Y-54393628D02*
X133948934Y-54298390D01*
X133948934Y-54298390D02*
X133901315Y-54250771D01*
X133901315Y-54250771D02*
X133806077Y-54203152D01*
X133806077Y-54203152D02*
X133710839Y-54203152D01*
X132996553Y-54822200D02*
X133091791Y-54869819D01*
X133091791Y-54869819D02*
X133282267Y-54869819D01*
X133282267Y-54869819D02*
X133377505Y-54822200D01*
X133377505Y-54822200D02*
X133425124Y-54726961D01*
X133425124Y-54726961D02*
X133425124Y-54346009D01*
X133425124Y-54346009D02*
X133377505Y-54250771D01*
X133377505Y-54250771D02*
X133282267Y-54203152D01*
X133282267Y-54203152D02*
X133091791Y-54203152D01*
X133091791Y-54203152D02*
X132996553Y-54250771D01*
X132996553Y-54250771D02*
X132948934Y-54346009D01*
X132948934Y-54346009D02*
X132948934Y-54441247D01*
X132948934Y-54441247D02*
X133425124Y-54536485D01*
X132091791Y-54203152D02*
X132091791Y-55012676D01*
X132091791Y-55012676D02*
X132139410Y-55107914D01*
X132139410Y-55107914D02*
X132187029Y-55155533D01*
X132187029Y-55155533D02*
X132282267Y-55203152D01*
X132282267Y-55203152D02*
X132425124Y-55203152D01*
X132425124Y-55203152D02*
X132520362Y-55155533D01*
X132091791Y-54822200D02*
X132187029Y-54869819D01*
X132187029Y-54869819D02*
X132377505Y-54869819D01*
X132377505Y-54869819D02*
X132472743Y-54822200D01*
X132472743Y-54822200D02*
X132520362Y-54774580D01*
X132520362Y-54774580D02*
X132567981Y-54679342D01*
X132567981Y-54679342D02*
X132567981Y-54393628D01*
X132567981Y-54393628D02*
X132520362Y-54298390D01*
X132520362Y-54298390D02*
X132472743Y-54250771D01*
X132472743Y-54250771D02*
X132377505Y-54203152D01*
X132377505Y-54203152D02*
X132187029Y-54203152D01*
X132187029Y-54203152D02*
X132091791Y-54250771D01*
X137639411Y-102917438D02*
X137734649Y-102869819D01*
X137734649Y-102869819D02*
X137877506Y-102869819D01*
X137877506Y-102869819D02*
X138020363Y-102917438D01*
X138020363Y-102917438D02*
X138115601Y-103012676D01*
X138115601Y-103012676D02*
X138163220Y-103107914D01*
X138163220Y-103107914D02*
X138210839Y-103298390D01*
X138210839Y-103298390D02*
X138210839Y-103441247D01*
X138210839Y-103441247D02*
X138163220Y-103631723D01*
X138163220Y-103631723D02*
X138115601Y-103726961D01*
X138115601Y-103726961D02*
X138020363Y-103822200D01*
X138020363Y-103822200D02*
X137877506Y-103869819D01*
X137877506Y-103869819D02*
X137782268Y-103869819D01*
X137782268Y-103869819D02*
X137639411Y-103822200D01*
X137639411Y-103822200D02*
X137591792Y-103774580D01*
X137591792Y-103774580D02*
X137591792Y-103441247D01*
X137591792Y-103441247D02*
X137782268Y-103441247D01*
X137163220Y-103869819D02*
X137163220Y-102869819D01*
X137163220Y-102869819D02*
X136591792Y-103869819D01*
X136591792Y-103869819D02*
X136591792Y-102869819D01*
X136115601Y-103869819D02*
X136115601Y-102869819D01*
X136115601Y-102869819D02*
X135877506Y-102869819D01*
X135877506Y-102869819D02*
X135734649Y-102917438D01*
X135734649Y-102917438D02*
X135639411Y-103012676D01*
X135639411Y-103012676D02*
X135591792Y-103107914D01*
X135591792Y-103107914D02*
X135544173Y-103298390D01*
X135544173Y-103298390D02*
X135544173Y-103441247D01*
X135544173Y-103441247D02*
X135591792Y-103631723D01*
X135591792Y-103631723D02*
X135639411Y-103726961D01*
X135639411Y-103726961D02*
X135734649Y-103822200D01*
X135734649Y-103822200D02*
X135877506Y-103869819D01*
X135877506Y-103869819D02*
X136115601Y-103869819D01*
X114677438Y-41580588D02*
X114629819Y-41485350D01*
X114629819Y-41485350D02*
X114629819Y-41342493D01*
X114629819Y-41342493D02*
X114677438Y-41199636D01*
X114677438Y-41199636D02*
X114772676Y-41104398D01*
X114772676Y-41104398D02*
X114867914Y-41056779D01*
X114867914Y-41056779D02*
X115058390Y-41009160D01*
X115058390Y-41009160D02*
X115201247Y-41009160D01*
X115201247Y-41009160D02*
X115391723Y-41056779D01*
X115391723Y-41056779D02*
X115486961Y-41104398D01*
X115486961Y-41104398D02*
X115582200Y-41199636D01*
X115582200Y-41199636D02*
X115629819Y-41342493D01*
X115629819Y-41342493D02*
X115629819Y-41437731D01*
X115629819Y-41437731D02*
X115582200Y-41580588D01*
X115582200Y-41580588D02*
X115534580Y-41628207D01*
X115534580Y-41628207D02*
X115201247Y-41628207D01*
X115201247Y-41628207D02*
X115201247Y-41437731D01*
X115629819Y-42580588D02*
X115629819Y-42009160D01*
X115629819Y-42294874D02*
X114629819Y-42294874D01*
X114629819Y-42294874D02*
X114772676Y-42199636D01*
X114772676Y-42199636D02*
X114867914Y-42104398D01*
X114867914Y-42104398D02*
X114915533Y-42009160D01*
X115629819Y-43771065D02*
X114629819Y-43771065D01*
X114629819Y-43771065D02*
X115344104Y-44104398D01*
X115344104Y-44104398D02*
X114629819Y-44437731D01*
X114629819Y-44437731D02*
X115629819Y-44437731D01*
X115582200Y-45294874D02*
X115629819Y-45199636D01*
X115629819Y-45199636D02*
X115629819Y-45009160D01*
X115629819Y-45009160D02*
X115582200Y-44913922D01*
X115582200Y-44913922D02*
X115486961Y-44866303D01*
X115486961Y-44866303D02*
X115106009Y-44866303D01*
X115106009Y-44866303D02*
X115010771Y-44913922D01*
X115010771Y-44913922D02*
X114963152Y-45009160D01*
X114963152Y-45009160D02*
X114963152Y-45199636D01*
X114963152Y-45199636D02*
X115010771Y-45294874D01*
X115010771Y-45294874D02*
X115106009Y-45342493D01*
X115106009Y-45342493D02*
X115201247Y-45342493D01*
X115201247Y-45342493D02*
X115296485Y-44866303D01*
X114963152Y-45628208D02*
X114963152Y-46009160D01*
X114629819Y-45771065D02*
X115486961Y-45771065D01*
X115486961Y-45771065D02*
X115582200Y-45818684D01*
X115582200Y-45818684D02*
X115629819Y-45913922D01*
X115629819Y-45913922D02*
X115629819Y-46009160D01*
X115582200Y-46723446D02*
X115629819Y-46628208D01*
X115629819Y-46628208D02*
X115629819Y-46437732D01*
X115629819Y-46437732D02*
X115582200Y-46342494D01*
X115582200Y-46342494D02*
X115486961Y-46294875D01*
X115486961Y-46294875D02*
X115106009Y-46294875D01*
X115106009Y-46294875D02*
X115010771Y-46342494D01*
X115010771Y-46342494D02*
X114963152Y-46437732D01*
X114963152Y-46437732D02*
X114963152Y-46628208D01*
X114963152Y-46628208D02*
X115010771Y-46723446D01*
X115010771Y-46723446D02*
X115106009Y-46771065D01*
X115106009Y-46771065D02*
X115201247Y-46771065D01*
X115201247Y-46771065D02*
X115296485Y-46294875D01*
X115629819Y-47199637D02*
X114963152Y-47199637D01*
X115153628Y-47199637D02*
X115058390Y-47247256D01*
X115058390Y-47247256D02*
X115010771Y-47294875D01*
X115010771Y-47294875D02*
X114963152Y-47390113D01*
X114963152Y-47390113D02*
X114963152Y-47485351D01*
X115248866Y-48580590D02*
X115248866Y-49342495D01*
X115629819Y-48961542D02*
X114867914Y-48961542D01*
D11*
X50034000Y-25000000D02*
X150000000Y-25000000D01*
X150000000Y-125076000D01*
X50034000Y-125076000D01*
X50034000Y-25000000D01*
M02*
