M48
; DRILL file {KiCad 8.0.0} date 2024-02-29T12:59:11+0100
; FORMAT={-:-/ absolute / metric / decimal}
; #@! TF.CreationDate,2024-02-29T12:59:11+01:00
; #@! TF.GenerationSoftware,Kicad,Pcbnew,8.0.0
; #@! TF.FileFunction,Plated,1,2,PTH
FMAT,2
METRIC
; #@! TA.AperFunction,Plated,PTH,ComponentDrill
T1C0.800
; #@! TA.AperFunction,Plated,PTH,ComponentDrill
T2C1.000
; #@! TA.AperFunction,Plated,PTH,ComponentDrill
T3C1.100
; #@! TA.AperFunction,Plated,PTH,ComponentDrill
T4C1.200
; #@! TA.AperFunction,Plated,PTH,ComponentDrill
T5C1.400
; #@! TA.AperFunction,Plated,PTH,ComponentDrill
T6C2.000
; #@! TA.AperFunction,Plated,PTH,ComponentDrill
T7C3.200
%
G90
G05
T1
X53.95Y-103.945
X56.49Y-106.485
X59.03Y-103.945
X67.041Y-72.23
X67.041Y-79.849
X69.581Y-72.23
X69.581Y-79.849
X72.121Y-72.23
X72.121Y-79.849
X84.582Y-106.482
X84.582Y-109.982
X102.75Y-50.0
X105.54Y-96.66
X105.54Y-101.74
X107.75Y-50.0
X108.08Y-99.2
X112.975Y-76.68
X112.975Y-84.3
X115.515Y-76.68
X115.515Y-84.3
X118.055Y-76.68
X118.055Y-84.3
T2
X78.272Y-115.61
X78.272Y-120.61
X83.272Y-115.61
X83.272Y-120.61
T3
X66.37Y-66.91
X76.53Y-66.91
X82.91Y-65.5
X93.07Y-65.5
X96.25Y-62.42
X96.25Y-72.58
X100.036Y-86.928
X103.25Y-55.67
X103.25Y-58.21
X103.25Y-60.75
X103.42Y-29.21
X105.116Y-86.928
X107.193Y-57.42
X107.193Y-67.58
X110.5Y-54.42
X110.5Y-64.58
X113.58Y-29.21
X116.669Y-106.783
X116.669Y-116.943
X117.92Y-29.21
X120.955Y-120.294
X123.495Y-120.294
X126.035Y-120.294
X128.08Y-29.21
X130.92Y-34.75
X132.17Y-38.25
X133.096Y-111.76
X133.096Y-121.92
X141.08Y-34.75
X142.33Y-38.25
T4
X65.56Y-29.66
X65.56Y-35.05
X66.04Y-40.96
X67.07Y-45.99
X67.07Y-61.23
X73.23Y-45.99
X73.23Y-61.23
X79.32Y-45.96
X79.32Y-61.2
X80.8Y-29.66
X80.8Y-35.05
X81.28Y-40.96
X87.824Y-91.135
X87.824Y-98.755
X89.154Y-114.571
X89.154Y-122.191
X90.215Y-76.75
X90.5Y-50.0
X90.5Y-57.5
X91.821Y-31.369
X91.821Y-38.869
X96.715Y-91.5
X97.835Y-76.75
X101.143Y-110.559
X101.143Y-118.059
X102.921Y-33.917
X102.921Y-41.537
X104.335Y-91.5
X117.46Y-45.77
X131.965Y-29.71
X132.7Y-45.77
X139.585Y-29.71
T5
X57.343Y-38.977
X57.343Y-44.057
X57.343Y-49.137
X60.96Y-119.34
X61.639Y-58.344
X61.639Y-63.424
X61.639Y-68.504
X66.04Y-119.34
X71.12Y-119.34
X109.982Y-35.853
X115.062Y-35.853
X120.142Y-35.853
X125.222Y-35.853
X138.96Y-45.722
X144.04Y-45.722
X144.222Y-54.3
X144.222Y-59.38
X144.222Y-64.46
X144.222Y-69.54
X144.222Y-74.62
X144.222Y-79.7
X144.222Y-88.3
X144.222Y-93.38
X144.222Y-98.46
X144.222Y-103.54
X144.222Y-108.62
X144.222Y-113.7
T6
X120.84Y-61.384
X130.84Y-61.384
T7
X53.75Y-28.75
X53.75Y-121.25
X146.25Y-28.75
X146.25Y-121.326
M30
