%TF.GenerationSoftware,KiCad,Pcbnew,8.0.0*%
%TF.CreationDate,2024-02-29T12:59:18+01:00*%
%TF.ProjectId,G1-ALC,47312d41-4c43-42e6-9b69-6361645f7063,rev?*%
%TF.SameCoordinates,Original*%
%TF.FileFunction,Paste,Top*%
%TF.FilePolarity,Positive*%
%FSLAX46Y46*%
G04 Gerber Fmt 4.6, Leading zero omitted, Abs format (unit mm)*
G04 Created by KiCad (PCBNEW 8.0.0) date 2024-02-29 12:59:18*
%MOMM*%
%LPD*%
G01*
G04 APERTURE LIST*
G04 Aperture macros list*
%AMRoundRect*
0 Rectangle with rounded corners*
0 $1 Rounding radius*
0 $2 $3 $4 $5 $6 $7 $8 $9 X,Y pos of 4 corners*
0 Add a 4 corners polygon primitive as box body*
4,1,4,$2,$3,$4,$5,$6,$7,$8,$9,$2,$3,0*
0 Add four circle primitives for the rounded corners*
1,1,$1+$1,$2,$3*
1,1,$1+$1,$4,$5*
1,1,$1+$1,$6,$7*
1,1,$1+$1,$8,$9*
0 Add four rect primitives between the rounded corners*
20,1,$1+$1,$2,$3,$4,$5,0*
20,1,$1+$1,$4,$5,$6,$7,0*
20,1,$1+$1,$6,$7,$8,$9,0*
20,1,$1+$1,$8,$9,$2,$3,0*%
G04 Aperture macros list end*
%ADD10RoundRect,0.150000X-0.837500X-0.150000X0.837500X-0.150000X0.837500X0.150000X-0.837500X0.150000X0*%
%ADD11RoundRect,0.250000X0.650000X-0.325000X0.650000X0.325000X-0.650000X0.325000X-0.650000X-0.325000X0*%
%ADD12RoundRect,0.250000X-0.650000X0.325000X-0.650000X-0.325000X0.650000X-0.325000X0.650000X0.325000X0*%
%ADD13RoundRect,0.250000X-0.325000X-0.650000X0.325000X-0.650000X0.325000X0.650000X-0.325000X0.650000X0*%
%ADD14RoundRect,0.250000X0.325000X0.650000X-0.325000X0.650000X-0.325000X-0.650000X0.325000X-0.650000X0*%
%ADD15RoundRect,0.250000X-0.625000X0.312500X-0.625000X-0.312500X0.625000X-0.312500X0.625000X0.312500X0*%
%ADD16RoundRect,0.250000X-0.312500X-0.625000X0.312500X-0.625000X0.312500X0.625000X-0.312500X0.625000X0*%
%ADD17RoundRect,0.250000X0.625000X-0.312500X0.625000X0.312500X-0.625000X0.312500X-0.625000X-0.312500X0*%
%ADD18RoundRect,0.250000X0.312500X0.625000X-0.312500X0.625000X-0.312500X-0.625000X0.312500X-0.625000X0*%
%ADD19RoundRect,0.250000X0.475000X-0.250000X0.475000X0.250000X-0.475000X0.250000X-0.475000X-0.250000X0*%
%ADD20RoundRect,0.112500X-0.187500X-0.112500X0.187500X-0.112500X0.187500X0.112500X-0.187500X0.112500X0*%
%ADD21RoundRect,0.112500X0.187500X0.112500X-0.187500X0.112500X-0.187500X-0.112500X0.187500X-0.112500X0*%
%ADD22RoundRect,0.250000X-0.475000X0.250000X-0.475000X-0.250000X0.475000X-0.250000X0.475000X0.250000X0*%
%ADD23RoundRect,0.112500X0.112500X-0.187500X0.112500X0.187500X-0.112500X0.187500X-0.112500X-0.187500X0*%
%TA.AperFunction,Profile*%
%ADD24C,0.100000*%
%TD*%
G04 APERTURE END LIST*
D10*
%TO.C,U102*%
X68867500Y-89611367D03*
X68867500Y-90881367D03*
X68867500Y-92151367D03*
X68867500Y-93421367D03*
X68867500Y-94691367D03*
X68867500Y-95961367D03*
X68867500Y-97231367D03*
X75792500Y-97231367D03*
X75792500Y-95961367D03*
X75792500Y-94691367D03*
X75792500Y-93421367D03*
X75792500Y-92151367D03*
X75792500Y-90881367D03*
X75792500Y-89611367D03*
%TD*%
D11*
%TO.C,C106*%
X112776000Y-117807000D03*
X112776000Y-114857000D03*
%TD*%
D12*
%TO.C,C120*%
X62770000Y-98600000D03*
X62770000Y-101550000D03*
%TD*%
%TO.C,C118*%
X58404896Y-94646428D03*
X58404896Y-97596428D03*
%TD*%
%TO.C,C121*%
X113317476Y-99051500D03*
X113317476Y-102001500D03*
%TD*%
%TO.C,C109*%
X116000000Y-120025000D03*
X116000000Y-122975000D03*
%TD*%
D13*
%TO.C,C116*%
X74305000Y-86475367D03*
X77255000Y-86475367D03*
%TD*%
D12*
%TO.C,C113*%
X117889476Y-99051500D03*
X117889476Y-102001500D03*
%TD*%
D11*
%TO.C,C108*%
X92620000Y-90025000D03*
X92620000Y-87075000D03*
%TD*%
D12*
%TO.C,C111*%
X78680000Y-98296367D03*
X78680000Y-101246367D03*
%TD*%
D13*
%TO.C,C115*%
X58995000Y-85019867D03*
X61945000Y-85019867D03*
%TD*%
D14*
%TO.C,C110*%
X65885000Y-106530000D03*
X62935000Y-106530000D03*
%TD*%
D15*
%TO.C,R125*%
X65430000Y-98573000D03*
X65430000Y-101498000D03*
%TD*%
D16*
%TO.C,R128*%
X69377500Y-69870000D03*
X72302500Y-69870000D03*
%TD*%
%TO.C,R117*%
X56763500Y-81645367D03*
X59688500Y-81645367D03*
%TD*%
D15*
%TO.C,R112*%
X84014000Y-93482867D03*
X84014000Y-96407867D03*
%TD*%
D17*
%TO.C,R121*%
X67940000Y-103142500D03*
X67940000Y-100217500D03*
%TD*%
%TO.C,R116*%
X56680000Y-87792367D03*
X56680000Y-84867367D03*
%TD*%
D16*
%TO.C,R114*%
X112870976Y-95446500D03*
X115795976Y-95446500D03*
%TD*%
D18*
%TO.C,R120*%
X82068500Y-87237367D03*
X79143500Y-87237367D03*
%TD*%
D16*
%TO.C,R118*%
X59007500Y-87559867D03*
X61932500Y-87559867D03*
%TD*%
D18*
%TO.C,R106*%
X103962500Y-65500000D03*
X101037500Y-65500000D03*
%TD*%
%TO.C,R111*%
X83952500Y-98501367D03*
X81027500Y-98501367D03*
%TD*%
D16*
%TO.C,R126*%
X70087500Y-101549867D03*
X73012500Y-101549867D03*
%TD*%
D15*
%TO.C,R115*%
X53940000Y-79447367D03*
X53940000Y-82372367D03*
%TD*%
%TO.C,R301*%
X108890000Y-81157500D03*
X108890000Y-84082500D03*
%TD*%
D16*
%TO.C,R119*%
X69491500Y-86475367D03*
X72416500Y-86475367D03*
%TD*%
D17*
%TO.C,R108*%
X102560000Y-75112500D03*
X102560000Y-72187500D03*
%TD*%
%TO.C,R127*%
X78710000Y-106472367D03*
X78710000Y-103547367D03*
%TD*%
D15*
%TO.C,R113*%
X81474000Y-93228867D03*
X81474000Y-96153867D03*
%TD*%
D16*
%TO.C,R124*%
X61147500Y-94789867D03*
X64072500Y-94789867D03*
%TD*%
D15*
%TO.C,R122*%
X54296000Y-94752867D03*
X54296000Y-97677867D03*
%TD*%
D19*
%TO.C,C114*%
X66234000Y-92339367D03*
X66234000Y-90439367D03*
%TD*%
D20*
%TO.C,D122*%
X74582000Y-102057367D03*
X76682000Y-102057367D03*
%TD*%
D21*
%TO.C,D124*%
X111550000Y-106500000D03*
X109450000Y-106500000D03*
%TD*%
D22*
%TO.C,C112*%
X78172000Y-94503367D03*
X78172000Y-96403367D03*
%TD*%
D21*
%TO.C,D121*%
X83032000Y-102057367D03*
X80932000Y-102057367D03*
%TD*%
D23*
%TO.C,D123*%
X66210000Y-88899867D03*
X66210000Y-86799867D03*
%TD*%
D19*
%TO.C,C117*%
X78680000Y-92339367D03*
X78680000Y-90439367D03*
%TD*%
D22*
%TO.C,C119*%
X66234000Y-94503367D03*
X66234000Y-96403367D03*
%TD*%
D24*
X50034000Y-25000000D02*
X150000000Y-25000000D01*
X150000000Y-125076000D01*
X50034000Y-125076000D01*
X50034000Y-25000000D01*
M02*
