%TF.GenerationSoftware,KiCad,Pcbnew,8.0.0*%
%TF.CreationDate,2024-02-29T12:59:19+01:00*%
%TF.ProjectId,G1-ALC,47312d41-4c43-42e6-9b69-6361645f7063,rev?*%
%TF.SameCoordinates,Original*%
%TF.FileFunction,Soldermask,Bot*%
%TF.FilePolarity,Negative*%
%FSLAX46Y46*%
G04 Gerber Fmt 4.6, Leading zero omitted, Abs format (unit mm)*
G04 Created by KiCad (PCBNEW 8.0.0) date 2024-02-29 12:59:19*
%MOMM*%
%LPD*%
G01*
G04 APERTURE LIST*
G04 Aperture macros list*
%AMRoundRect*
0 Rectangle with rounded corners*
0 $1 Rounding radius*
0 $2 $3 $4 $5 $6 $7 $8 $9 X,Y pos of 4 corners*
0 Add a 4 corners polygon primitive as box body*
4,1,4,$2,$3,$4,$5,$6,$7,$8,$9,$2,$3,0*
0 Add four circle primitives for the rounded corners*
1,1,$1+$1,$2,$3*
1,1,$1+$1,$4,$5*
1,1,$1+$1,$6,$7*
1,1,$1+$1,$8,$9*
0 Add four rect primitives between the rounded corners*
20,1,$1+$1,$2,$3,$4,$5,0*
20,1,$1+$1,$4,$5,$6,$7,0*
20,1,$1+$1,$6,$7,$8,$9,0*
20,1,$1+$1,$8,$9,$2,$3,0*%
G04 Aperture macros list end*
%ADD10C,1.300000*%
%ADD11C,1.200000*%
%ADD12RoundRect,0.249999X-1.550001X0.790001X-1.550001X-0.790001X1.550001X-0.790001X1.550001X0.790001X0*%
%ADD13O,3.600000X2.080000*%
%ADD14RoundRect,0.249999X-0.790001X-1.550001X0.790001X-1.550001X0.790001X1.550001X-0.790001X1.550001X0*%
%ADD15O,2.080000X3.600000*%
%ADD16RoundRect,0.249999X1.550001X-0.790001X1.550001X0.790001X-1.550001X0.790001X-1.550001X-0.790001X0*%
%ADD17RoundRect,0.249999X0.790001X1.550001X-0.790001X1.550001X-0.790001X-1.550001X0.790001X-1.550001X0*%
%ADD18R,2.400000X2.400000*%
%ADD19C,2.400000*%
%ADD20R,2.200000X2.200000*%
%ADD21O,2.200000X2.200000*%
%ADD22O,2.400000X2.400000*%
%ADD23C,5.600000*%
%ADD24R,1.905000X2.000000*%
%ADD25O,1.905000X2.000000*%
%ADD26R,1.600000X1.600000*%
%ADD27O,1.600000X1.600000*%
%ADD28R,4.000000X4.000000*%
%ADD29C,4.000000*%
%ADD30C,1.600000*%
%ADD31R,2.000000X2.000000*%
%ADD32O,2.000000X2.000000*%
%ADD33C,1.440000*%
%ADD34R,2.000000X1.905000*%
%ADD35O,2.000000X1.905000*%
%TA.AperFunction,Profile*%
%ADD36C,0.100000*%
%TD*%
G04 APERTURE END LIST*
D10*
X50750000Y-25720000D02*
X50750000Y-124500000D01*
X50750000Y-124500000D02*
X149250000Y-124500000D01*
X50750000Y-25750000D02*
X149250000Y-25750000D01*
D11*
X148794000Y-25750000D02*
X50750000Y-25750000D01*
D10*
X149500000Y-25620000D02*
X149500000Y-124500000D01*
D12*
%TO.C,J102*%
X57343500Y-38977500D03*
D13*
X57343500Y-44057500D03*
X57343500Y-49137500D03*
%TD*%
D14*
%TO.C,J101*%
X60960000Y-119340500D03*
D15*
X66040000Y-119340500D03*
X71120000Y-119340500D03*
%TD*%
D16*
%TO.C,J107*%
X144222500Y-113700000D03*
D13*
X144222500Y-108620000D03*
X144222500Y-103540000D03*
X144222500Y-98460000D03*
X144222500Y-93380000D03*
X144222500Y-88300000D03*
%TD*%
D16*
%TO.C,J108*%
X144222500Y-79700000D03*
D13*
X144222500Y-74620000D03*
X144222500Y-69540000D03*
X144222500Y-64460000D03*
X144222500Y-59380000D03*
X144222500Y-54300000D03*
%TD*%
D14*
%TO.C,J104*%
X138960000Y-45722500D03*
D15*
X144040000Y-45722500D03*
%TD*%
D17*
%TO.C,J103*%
X125222000Y-35853500D03*
D15*
X120142000Y-35853500D03*
X115062000Y-35853500D03*
X109982000Y-35853500D03*
%TD*%
D12*
%TO.C,J105*%
X61638700Y-58343800D03*
D13*
X61638700Y-63423800D03*
X61638700Y-68503800D03*
%TD*%
D18*
%TO.C,C105*%
X101142800Y-110559200D03*
D19*
X101142800Y-118059200D03*
%TD*%
D20*
%TO.C,D301*%
X110500000Y-54420000D03*
D21*
X110500000Y-64580000D03*
%TD*%
D19*
%TO.C,RLK1*%
X87824000Y-91135367D03*
D22*
X87824000Y-98755367D03*
%TD*%
D23*
%TO.C,H104*%
X146250000Y-121326000D03*
%TD*%
D24*
%TO.C,U101*%
X126034800Y-120294400D03*
D25*
X123494800Y-120294400D03*
X120954800Y-120294400D03*
%TD*%
D26*
%TO.C,U301*%
X112975000Y-84300000D03*
D27*
X115515000Y-84300000D03*
X118055000Y-84300000D03*
X118055000Y-76680000D03*
X115515000Y-76680000D03*
X112975000Y-76680000D03*
%TD*%
D18*
%TO.C,D103*%
X73230000Y-61230000D03*
D22*
X73230000Y-45990000D03*
%TD*%
D20*
%TO.C,D120*%
X133096000Y-111760000D03*
D21*
X133096000Y-121920000D03*
%TD*%
D28*
%TO.C,C103*%
X120839775Y-61384316D03*
D29*
X130839775Y-61384316D03*
%TD*%
D19*
%TO.C,R103*%
X131965000Y-29710000D03*
D22*
X139585000Y-29710000D03*
%TD*%
D23*
%TO.C,H103*%
X53750000Y-121250000D03*
%TD*%
D20*
%TO.C,D110*%
X141080000Y-34750000D03*
D21*
X130920000Y-34750000D03*
%TD*%
D20*
%TO.C,D119*%
X116669476Y-106783000D03*
D21*
X116669476Y-116943000D03*
%TD*%
D26*
%TO.C,U103*%
X72121000Y-72229500D03*
D27*
X69581000Y-72229500D03*
X67041000Y-72229500D03*
X67041000Y-79849500D03*
X69581000Y-79849500D03*
X72121000Y-79849500D03*
%TD*%
D20*
%TO.C,D118*%
X105116182Y-86928000D03*
D21*
X100036182Y-86928000D03*
%TD*%
D20*
%TO.C,D111*%
X132170000Y-38250000D03*
D21*
X142330000Y-38250000D03*
%TD*%
D19*
%TO.C,R110*%
X96715000Y-91500000D03*
D22*
X104335000Y-91500000D03*
%TD*%
D18*
%TO.C,D104*%
X81280000Y-40960000D03*
D22*
X66040000Y-40960000D03*
%TD*%
D19*
%TO.C,R101*%
X65560000Y-29660000D03*
D22*
X80800000Y-29660000D03*
%TD*%
D20*
%TO.C,D114*%
X107193376Y-67580000D03*
D21*
X107193376Y-57420000D03*
%TD*%
D19*
%TO.C,R105*%
X90215000Y-76750000D03*
D22*
X97835000Y-76750000D03*
%TD*%
D20*
%TO.C,D112*%
X117920000Y-29210000D03*
D21*
X128080000Y-29210000D03*
%TD*%
D30*
%TO.C,C104*%
X107750000Y-50000000D03*
X102750000Y-50000000D03*
%TD*%
D20*
%TO.C,D115*%
X82910000Y-65500000D03*
D21*
X93070000Y-65500000D03*
%TD*%
D19*
%TO.C,R102*%
X80800000Y-35050000D03*
D22*
X65560000Y-35050000D03*
%TD*%
D18*
%TO.C,C101*%
X90500000Y-57500000D03*
D19*
X90500000Y-50000000D03*
%TD*%
%TO.C,R107*%
X102920800Y-41537400D03*
D22*
X102920800Y-33917400D03*
%TD*%
D19*
%TO.C,R104*%
X117460000Y-45770000D03*
D22*
X132700000Y-45770000D03*
%TD*%
D31*
%TO.C,BR101*%
X83272000Y-120610000D03*
D32*
X83272000Y-115610000D03*
X78272000Y-115610000D03*
X78272000Y-120610000D03*
%TD*%
D20*
%TO.C,D113*%
X103420000Y-29210000D03*
D21*
X113580000Y-29210000D03*
%TD*%
D18*
%TO.C,C102*%
X91821000Y-38869000D03*
D19*
X91821000Y-31369000D03*
%TD*%
D33*
%TO.C,RV103*%
X105540476Y-101740000D03*
X108080476Y-99200000D03*
X105540476Y-96660000D03*
%TD*%
D18*
%TO.C,D101*%
X79320000Y-45960000D03*
D22*
X79320000Y-61200000D03*
%TD*%
D23*
%TO.C,H101*%
X146250000Y-28750000D03*
%TD*%
D26*
%TO.C,C107*%
X84582000Y-106482000D03*
D30*
X84582000Y-109982000D03*
%TD*%
D33*
%TO.C,RV101*%
X53950000Y-103945000D03*
X56490000Y-106485000D03*
X59030000Y-103945000D03*
%TD*%
D34*
%TO.C,Q101*%
X103250000Y-60750000D03*
D35*
X103250000Y-58210000D03*
X103250000Y-55670000D03*
%TD*%
D23*
%TO.C,H102*%
X53750000Y-28750000D03*
%TD*%
D20*
%TO.C,D117*%
X66370000Y-66910000D03*
D21*
X76530000Y-66910000D03*
%TD*%
D18*
%TO.C,D102*%
X67070000Y-61230000D03*
D22*
X67070000Y-45990000D03*
%TD*%
D19*
%TO.C,R109*%
X89154000Y-114571000D03*
D22*
X89154000Y-122191000D03*
%TD*%
D20*
%TO.C,D116*%
X96250000Y-62420000D03*
D21*
X96250000Y-72580000D03*
%TD*%
D36*
X50034000Y-25000000D02*
X150000000Y-25000000D01*
X150000000Y-125076000D01*
X50034000Y-125076000D01*
X50034000Y-25000000D01*
M02*
